<?xml version="1.0" standalone="no"?>
<!DOCTYPE svg PUBLIC "-//W3C//DTD SVG 1.1//EN" "http://www.w3.org/Graphics/SVG/1.1/DTD/svg11.dtd" >
<svg xmlns="http://www.w3.org/2000/svg" xmlns:xlink="http://www.w3.org/1999/xlink" version="1.1">
<metadata>
Created by FontForge 20170731 at Fri Mar 19 15:20:53 2021
 By Aleksey,,,
Copyright (c) 1990 ParaGraph Intl., (c) 1998 ParaType Inc., ParaType Ltd. All rights reserved.
</metadata>
<defs>
<font id="Pragmatica-Light" horiz-adv-x="1179" >
  <font-face 
    font-family="Pragmatica"
    font-weight="300"
    font-stretch="normal"
    units-per-em="2048"
    panose-1="2 11 4 3 4 5 2 2 2 4"
    ascent="1638"
    descent="-410"
    x-height="1040"
    cap-height="1434"
    bbox="-844 -514 2507 2011"
    underline-thickness="102"
    underline-position="-307"
    unicode-range="U+000D-FB02"
  />
<missing-glyph horiz-adv-x="1024" 
d="M119 16h786v1016h-786v-1016zM102 0v1049h820v-1049h-820z" />
    <glyph glyph-name="afii10017.var.accented" unicode="&#x410;`" horiz-adv-x="1271" 
d="M324 412l-154 -412h-164l545 1434h170l545 -1434h-166l-152 412h-624zM367 541h536l-268 747zM668 1843h188l-203 -287h-133z" />
    <glyph glyph-name="afii10022.var.accented" unicode="&#x415;`" horiz-adv-x="1251" 
d="M657 1843h189l-203 -287h-133zM340 807h766v-129h-766v-549h862v-129h-1014v1434h990v-129h-838v-498z" />
    <glyph glyph-name="afii10026.var.accented" unicode="&#x418;`" horiz-adv-x="1497" 
d="M340 217l813 1217h156v-1434h-152v1223l-813 -1223h-156v1434h152v-1217zM780 1843h189l-203 -287h-133z" />
    <glyph glyph-name="afii10032.var.accented" unicode="&#x41e;`" horiz-adv-x="1617" 
d="M842 1843h188l-203 -287h-133zM803 1477q287 0 463 -164q217 -204 217 -596q0 -216 -62.5 -365.5t-150.5 -232.5q-169 -162 -457 -162q-307 0 -473 166q-18 16 -38.5 40.5t-52 78t-55.5 116t-41.5 158.5t-17.5 201q0 199 59 349t150 241q170 170 459 170zM811 1348
q-203 0 -334 -117q-80 -73 -131 -205t-51 -317q0 -158 42 -283.5t118 -204.5q135 -135 356 -135q213 0 350 137q162 162 162 490q0 348 -184 520q-125 115 -328 115z" />
    <glyph glyph-name="afii10037.var.accented" unicode="&#x423;`" 
d="M651 520l367 914h162l-465 -1141q-69 -170 -129 -230q-51 -51 -108 -67t-128 -16q-76 0 -143 20v131q59 -20 131 -20q83 0 137 49q27 27 54.5 82.5t41.5 101.5l-544 1090h186zM623 1843h188l-203 -287h-133z" />
    <glyph glyph-name="afii10045.var.accented" unicode="&#x42b;`" horiz-adv-x="1726" 
d="M340 1434v-600h410q99 0 185.5 -22t160.5 -89q123 -115 123 -305t-113 -303q-115 -115 -344 -115h-574v1434h152zM340 705v-576h405q169 0 244 82q36 37 55 92t19 113q0 131 -80 207q-86 82 -272 82h-371zM1386 1434h152v-1434h-152v1434zM895 1843h188l-202 -287h-133z
" />
    <glyph glyph-name="afii10047.var.accented" unicode="&#x42d;`" horiz-adv-x="1501" 
d="M492 807h714q-5 122 -46 239t-126 195q-126 109 -319 109q-177 0 -281 -74q-135 -95 -153 -258h-154q7 94 45.5 172.5t81 121.5t92.5 74q75 47 175 70t194 23q244 0 401 -121q120 -93 185 -260.5t65 -374.5q0 -202 -66 -379.5t-186 -273.5q-145 -119 -399 -119
q-281 0 -441 160q-67 67 -112.5 165t-59.5 203h154q20 -174 135 -284q118 -115 318 -115q178 0 292 86q64 47 108.5 120.5t63.5 152t26 135t7 106.5h-714v127zM782 1843h189l-203 -287h-133z" />
    <glyph glyph-name="afii10048.var.accented" unicode="&#x42e;`" horiz-adv-x="2045" 
d="M340 821h227q9 128 59 260t150 228q176 168 459 168q147 0 265 -44.5t192 -115.5q38 -37 72 -85t69.5 -122.5t56.5 -180.5t21 -229q0 -388 -211 -585q-98 -94 -210.5 -126t-244.5 -32q-141 0 -257 36t-212 126q-107 102 -160 254t-53 319h-223v-692h-152v1434h152v-613z
M1237 86q222 0 358 139q156 159 156 480q0 344 -174 518q-62 59 -154.5 92t-191.5 33q-206 0 -336 -127q-52 -50 -88.5 -118.5t-53.5 -140.5t-23.5 -130.5t-6.5 -114.5q0 -345 174 -506q128 -125 340 -125zM1055 1843h188l-203 -287h-133z" />
    <glyph glyph-name="afii10049.var.accented" unicode="&#x42f;`" horiz-adv-x="1406" 
d="M1067 590h-381l-356 -590h-183l381 604q-77 6 -150.5 36.5t-119.5 76.5q-49 47 -80 122t-31 173q0 195 115 303q125 119 375 119h582v-1434h-152v590zM1067 1305h-426q-169 0 -254 -78q-40 -36 -62 -93t-22 -120q0 -128 70 -205q86 -90 291 -90h403v586zM784 1843h189
l-203 -287h-133z" />
    <glyph glyph-name="afii10065.var.accented" unicode="&#x430;`" horiz-adv-x="1138" 
d="M606 1434h176l-194 -271h-125zM274 741h-137q0 69 31.5 143t103.5 126q101 71 293 71q209 0 305 -96q54 -54 70 -113.5t14 -130.5l-12 -518v-9.5v-11v-10t0.5 -10.5t1.5 -10t2 -10.5t2.5 -9t3.5 -9.5t5 -8l6 -8q34 -40 94 -25v-102q-24 -8 -76 -8q-82 0 -121 39
q-49 49 -45 135q-52 -87 -135 -133q-102 -58 -244 -58q-170 0 -256 84q-86 80 -86 220q0 120 76 196q88 88 330 113l67 8q17 3 65.5 7.5t74.5 8.5q59 9 81 31q25 27 25 100q0 120 -63 179q-64 57 -197 57q-149 0 -213 -64q-31 -31 -47.5 -78.5t-18.5 -95.5zM805 444l4 107
q-27 -25 -82 -35q-66 -11 -184 -22l-41 -5q-156 -19 -211 -71q-49 -49 -49 -142q0 -86 53 -139q33 -37 73 -48t91 -11q135 0 223 72q57 47 87.5 124.5t35.5 169.5z" />
    <glyph glyph-name="afii10070.var.accented" unicode="&#x435;`" 
d="M627 1434h176l-195 -271h-125zM924 301h135q-25 -126 -113 -221q-69 -71 -149.5 -96t-182.5 -25q-105 0 -189 23t-163 98q-153 148 -153 444q0 283 143 426q131 131 352 131q215 0 332 -123q77 -80 103.5 -188t31.5 -276h-815q8 -220 111 -330q93 -103 254 -103
q133 0 215 78q16 14 29.5 32t22 32.5t16 32t10.5 27.5t6.5 23.5t3.5 14.5zM602 979q-161 0 -250 -100q-43 -50 -69.5 -127.5t-26.5 -155.5h666q0 72 -26.5 161.5t-74.5 137.5q-80 84 -219 84z" />
    <glyph glyph-name="afii10074.var.accented" unicode="&#x438;`" horiz-adv-x="1200" 
d="M303 164l576 876h159v-1040h-141v879l-573 -879h-162v1040h141v-876zM637 1434h176l-195 -271h-124z" />
    <glyph glyph-name="afii10080.var.accented" unicode="&#x43e;`" horiz-adv-x="1212" 
d="M643 1434h176l-194 -271h-125zM606 1081q213 0 340 -120q83 -78 120.5 -197.5t37.5 -243.5q0 -292 -166 -446q-72 -67 -152 -91t-178 -24q-216 0 -336 115q-67 56 -115 168.5t-48 277.5q0 284 157 441q120 120 340 120zM606 981q-145 0 -231 -86q-119 -119 -119 -373
q0 -261 127 -381q87 -80 223 -80q137 0 221 78q127 117 127 383q0 244 -108 363q-92 96 -240 96z" />
    <glyph glyph-name="afii10085.var.accented" unicode="&#x443;`" horiz-adv-x="980" 
d="M526 1434h176l-194 -271h-125zM182 -377v107q34 -9 80 -9q64 0 100 31q32 28 60 115l43 133l-438 1040h170l344 -882l299 882h141l-428 -1198q-40 -108 -63 -141q-13 -21 -29 -35q-58 -53 -164 -53q-57 0 -115 10z" />
    <glyph glyph-name="afii10093.var.accented" unicode="&#x44b;`" horiz-adv-x="1419" 
d="M162 1040h141v-417h272h64q131 0 211 -50q135 -84 135 -256q0 -97 -39 -164.5t-94 -101.5q-85 -51 -225 -51h-465v1040zM303 520v-418h275q120 0 178 41q82 57 82 170q0 104 -60 156q-26 23 -62.5 35t-64 14t-73.5 2h-275zM1116 1040h141v-1040h-141v1040zM745 1434h177
l-195 -271h-125z" />
    <glyph glyph-name="afii10095.var.accented" unicode="&#x44d;`" horiz-adv-x="1118" 
d="M387 494v102h475q0 133 -55 231q-88 152 -277 152q-147 0 -229 -86q-61 -64 -70 -166h-137q12 162 129 260q66 55 141.5 74.5t167.5 19.5q222 0 340 -118q138 -138 138 -431q0 -59 -5.5 -120t-31.5 -150t-70 -145q-119 -158 -364 -158q-221 0 -332 111q-53 52 -86 129.5
t-39 154.5h139q3 -101 53 -170q32 -48 99.5 -85.5t173.5 -37.5q103 0 165 41.5t101 130.5q52 120 49 261h-475zM596 1434h176l-194 -271h-125z" />
    <glyph glyph-name="afii10096.var.accented" unicode="&#x44e;`" horiz-adv-x="1574" 
d="M303 600h172q4 105 44 198t106 156q132 127 346 127q210 0 340 -123q68 -68 111.5 -177.5t43.5 -258.5q0 -144 -43 -259t-120 -189q-74 -69 -154.5 -92t-173.5 -23q-213 0 -340 117q-77 76 -119.5 190.5t-42.5 231.5h-170v-498h-141v1040h141v-440zM623 522
q0 -256 114 -370q91 -91 238 -91q129 0 213 76q129 120 129 385q0 264 -127 381q-83 76 -219 76q-146 0 -232 -86q-116 -116 -116 -371zM823 1434h176l-194 -271h-125z" />
    <glyph glyph-name="afii10097.var.accented" unicode="&#x44f;`" horiz-adv-x="1091" 
d="M506 424l-268 -424h-156l280 426q-108 14 -176 82q-84 80 -84 215q0 144 80 227q86 90 256 90h492v-1040h-142v424h-282zM788 938h-286q-49 0 -74.5 -2t-60.5 -14.5t-62 -38.5q-57 -52 -57 -152q0 -93 55 -143q62 -62 209 -62h276v412zM582 1434h176l-195 -271h-125z" />
    <glyph glyph-name="fi" unicode="fi" horiz-adv-x="1021" 
d="M205 1040v129q0 69 12.5 117t48.5 86q40 40 97 54t135 14q73 0 108 -6v-103q-28 4 -67 4q-105 0 -150 -39q-43 -39 -43 -133v-123h516v-1040h-141v938h-375v-938h-141v938h-193v102h193zM719 1262v172h147v-172h-147z" />
    <glyph glyph-name="fl" unicode="fl" horiz-adv-x="1024" 
d="M862 1434v-1434h-141v938h-375v-938h-141v938h-193v102h193v129q0 69 12.5 117t48.5 86q40 40 97 54t135 14q73 0 108 -6v-103q-28 4 -67 4q-105 0 -150 -39q-43 -39 -43 -133v-123h375v394h141z" />
    <glyph glyph-name=".notdef" horiz-adv-x="1024" 
d="M119 16h786v1016h-786v-1016zM102 0v1049h820v-1049h-820z" />
    <glyph glyph-name=".null" horiz-adv-x="0" 
 />
    <glyph glyph-name="uni000D" unicode="&#xd;" horiz-adv-x="477" 
 />
    <glyph glyph-name="NULL" horiz-adv-x="0" 
 />
    <glyph glyph-name="NULL" horiz-adv-x="0" 
 />
    <glyph glyph-name="space" unicode=" " horiz-adv-x="477" 
 />
    <glyph glyph-name="exclam" unicode="!" horiz-adv-x="614" 
d="M227 1434h162v-586l-41 -459h-82l-39 459v586zM225 0v193h164v-193h-164z" />
    <glyph glyph-name="quotedbl" unicode="&#x22;" horiz-adv-x="761" 
d="M328 1434l-70 -394h-86l-70 394h226zM659 1434l-67 -394h-88l-68 394h223z" />
    <glyph glyph-name="numbersign" unicode="#" horiz-adv-x="1370" 
d="M842 66h-111l49 329h-293l-49 -329h-110l49 329h-275l23 144h274l58 366h-275l23 144h274l51 327h111l-51 -327h293l51 327h110l-51 -327h275l-23 -144h-274l-58 -366h275l-21 -144h-274zM803 539l57 366h-293l-57 -366h293z" />
    <glyph glyph-name="dollar" unicode="$" 
d="M92 436h148q0 -169 100 -262q83 -74 215 -84v592q-127 36 -196 64.5t-121 78.5q-103 100 -103 265q0 164 98 262q59 59 146 89t176 25v125h92v-125q78 0 158.5 -27t132.5 -79q34 -34 57 -77.5t32 -82.5t12 -60.5t3 -35.5h-141q-9 113 -74 178q-69 69 -180 72v-551
q131 -31 210 -65t128 -85q100 -100 100 -270q0 -190 -110 -295q-57 -57 -146 -89t-182 -28v-161h-92v161q-99 -4 -187 30t-147 91q-64 64 -96.5 159.5t-32.5 184.5zM647 666v-578q135 0 213 78q78 71 78 203t-78 202q-41 36 -100 61.5t-113 33.5zM555 821v533
q-58 4 -113.5 -16t-93.5 -56q-69 -69 -69 -188q0 -110 67 -174q64 -64 209 -99z" />
    <glyph glyph-name="percent" unicode="%" horiz-adv-x="1828" 
d="M438 1450q131 0 224 -88q112 -112 112 -309q0 -219 -115 -334q-88 -88 -215 -88q-133 0 -223 90q-112 112 -112 319q0 200 110 318q89 92 219 92zM434 1358q-74 0 -125 -51q-84 -84 -84 -263q0 -180 76 -262q54 -59 139 -59q79 0 138 59q41 46 61 118.5t20 146.5
q0 169 -84 253q-58 58 -141 58zM373 0l968 1434h119l-968 -1434h-119zM1384 803q131 0 224 -88q112 -112 112 -309q0 -220 -114 -334q-88 -88 -215 -88q-134 0 -224 90q-112 112 -112 319q0 200 110 318q89 92 219 92zM1380 711q-73 0 -125 -52q-84 -84 -84 -262
q0 -180 76 -262q54 -59 139 -59q79 0 138 59q41 46 61.5 118.5t20.5 145.5q0 170 -84 254q-58 58 -142 58z" />
    <glyph glyph-name="ampersand" unicode="&#x26;" horiz-adv-x="1331" 
d="M1032 627h131q-9 -96 -33 -172q-26 -86 -71 -164l246 -291h-175l-149 178q-1 -1 -8 -10.5t-12.5 -16t-16.5 -19t-20.5 -22.5t-24 -23.5t-28.5 -25t-32 -23.5t-36 -22q-103 -59 -262 -59q-221 0 -342 121q-117 117 -117 301q0 180 123 303q79 79 237 145q-45 51 -92 125
q-57 92 -57 193q0 115 76 198q86 91 231 91q149 0 227 -78q80 -74 80 -207q0 -139 -102 -236q-14 -14 -29 -27t-30 -23.5t-27.5 -19t-27 -16.5t-22 -12.5t-20.5 -10.5t-14 -7l338 -404q30 61 41 111q14 54 18 123zM901 272l-383 463q-53 -20 -106 -53t-86 -66
q-95 -95 -95 -229q0 -64 24.5 -124t63.5 -99q82 -82 232 -82q130 0 225 59q78 51 125 131zM563 885q92 43 139 90q70 70 70 168q0 82 -49 131q-45 45 -121 45q-78 0 -123 -45q-47 -47 -47 -123q0 -80 49 -154q0 -1 8.5 -13t27 -37.5t46.5 -61.5z" />
    <glyph glyph-name="quotesingle" unicode="'" horiz-adv-x="428" 
d="M326 1434l-68 -394h-88l-68 394h224z" />
    <glyph glyph-name="parenleft" unicode="(" horiz-adv-x="718" 
d="M446 1434h103q-103 -190 -172 -402q-84 -264 -84 -504q0 -239 84 -503q69 -212 172 -402h-103q-125 204 -198 383q-103 264 -103 522q0 259 103 523q73 179 198 383z" />
    <glyph glyph-name="parenright" unicode=")" horiz-adv-x="718" 
d="M170 1434h102q128 -209 199 -383q102 -262 102 -523q0 -260 -102 -522q-71 -174 -199 -383h-102q103 190 172 402q84 264 84 503q0 240 -84 504q-69 212 -172 402z" />
    <glyph glyph-name="asterisk" unicode="*" horiz-adv-x="1001" 
d="M502 1040l-168 -229l-72 53l166 230l-266 84l28 84l269 -84v278h88v-278l264 84l29 -84l-265 -84l166 -230l-71 -53z" />
    <glyph glyph-name="plus" unicode="+" horiz-adv-x="1228" 
d="M102 776h463v463h99v-463h462v-98h-462v-463h-99v463h-463v98z" />
    <glyph glyph-name="comma" unicode="," horiz-adv-x="614" 
d="M225 193h164v-236q0 -67 -12.5 -113t-46.5 -80q-38 -38 -105 -55v94q44 15 62 47q20 37 20 105v45h-82v193z" />
    <glyph glyph-name="hyphen" unicode="-" horiz-adv-x="827" 
d="M143 465v162h541v-162h-541z" />
    <glyph glyph-name="period" unicode="." horiz-adv-x="614" 
d="M225 0v193h164v-193h-164z" />
    <glyph glyph-name="slash" unicode="/" horiz-adv-x="835" 
d="M0 -379l731 1813h105l-732 -1813h-104z" />
    <glyph glyph-name="zero" unicode="0" 
d="M590 -43q-96 0 -170 27.5t-137 93.5q-100 105 -144.5 282.5t-44.5 366.5q0 185 45.5 357t147.5 274q119 119 299 119q188 0 307 -119q94 -96 143 -261.5t49 -367.5q0 -217 -48.5 -389.5t-145.5 -267.5q-115 -115 -301 -115zM590 86q109 0 192 80q152 152 152 551
q0 391 -152 551q-80 80 -192 80q-117 0 -197 -80q-56 -56 -91 -163t-45.5 -200.5t-10.5 -187.5q0 -100 10 -192.5t46 -197.5t95 -161q80 -80 193 -80z" />
    <glyph glyph-name="one" unicode="1" 
d="M309 1098v80h39q130 0 219 61q46 32 78.5 82.5t38.5 112.5h102v-1434h-153v1098h-324z" />
    <glyph glyph-name="two" unicode="2" 
d="M1071 129v-129h-934v20q0 125 37.5 214t130.5 182q112 107 320 237q119 78 160 115q32 28 55 59q73 94 73 224q0 142 -86 221q-80 76 -219 76q-145 0 -227 -82q-53 -51 -69.5 -113t-16.5 -141v-23h-152v37q0 203 129 332q119 119 340 119q219 0 338 -117t119 -318
q0 -100 -28 -173t-93 -140q-69 -74 -252 -186l-104 -66q-136 -86 -205 -164q-73 -84 -82 -184h766z" />
    <glyph glyph-name="three" unicode="3" 
d="M94 422h146q0 -73 25 -140.5t67 -109.5q88 -90 248 -90q152 0 239 80q92 83 92 254q0 124 -80 196q-89 78 -245 78h-101v125h58q37 0 56.5 1t57.5 6.5t70 21.5t59 41q78 68 78 190q0 125 -80 205q-77 72 -204 72q-150 0 -226 -76q-39 -39 -61.5 -103t-22.5 -141v-24h-143
v22q0 209 127 336q116 111 324 111q201 0 317 -109q113 -110 113 -285q0 -151 -99 -243q-51 -51 -131 -74v-4q97 -14 172 -86q59 -58 83 -123.5t24 -151.5q0 -191 -115 -309q-135 -135 -369 -135q-83 0 -152.5 17t-117 45t-85 67.5t-60 80t-37 88t-20.5 87t-7 80.5z" />
    <glyph glyph-name="four" unicode="4" 
d="M733 342h-667v129l663 963h156v-963h229v-129h-229v-342h-152v342zM217 471h516v758z" />
    <glyph glyph-name="five" unicode="5" 
d="M123 354h151q6 -52 30 -104.5t61 -87.5q80 -80 231 -80q147 0 235 80q107 97 107 295q0 174 -92 266q-88 88 -244 88q-19 0 -44.5 -3t-72.5 -14t-94.5 -40t-81.5 -72h-141l102 752h736v-129h-621l-68 -480q56 49 123 78q77 33 181 33q207 0 329 -117q81 -77 108 -168
t27 -192q0 -240 -135 -375q-127 -127 -364 -127q-222 0 -344 127q-45 48 -77 119t-42 151z" />
    <glyph glyph-name="six" unicode="6" 
d="M1055 1124h-142q-15 94 -77 156q-72 72 -207 72q-72 0 -127 -19.5t-103 -70.5q-141 -147 -141 -527h4q52 99 137 144q91 49 226 49q193 0 313 -113q137 -126 137 -360q0 -227 -123 -363q-124 -135 -342 -135q-230 0 -344 129q-160 165 -160 600q0 474 197 666
q128 125 334 125q188 0 299 -111q98 -92 119 -242zM281 455q0 -80 24 -157.5t74 -129.5q86 -86 233 -86q133 0 215 82q101 101 101 289q0 170 -94 264q-86 86 -228 86q-143 0 -231 -88q-94 -94 -94 -260z" />
    <glyph glyph-name="seven" unicode="7" 
d="M86 1303v131h1006v-103q-135 -153 -227 -313.5t-167 -347.5q-123 -309 -163 -670h-164q20 157 53.5 294.5t59.5 211t69 176.5q74 172 159 317t222 304h-848z" />
    <glyph glyph-name="eight" unicode="8" 
d="M391 780q-104 38 -158 117q-63 86 -63 203q0 153 102 262q115 115 314 115q193 0 309 -103q52 -47 83.5 -117.5t31.5 -154.5q0 -126 -76 -223q-52 -65 -146 -99q95 -21 164 -90q45 -41 79 -114t34 -177q0 -100 -32.5 -181.5t-86.5 -135.5q-125 -125 -354 -125
q-232 0 -363 131q-114 118 -114 309q0 148 78 253t198 130zM590 836q127 0 201 69q75 69 75 191q0 120 -78 190q-76 66 -198 66q-131 0 -203 -72q-74 -74 -74 -186q0 -115 74 -189q77 -69 203 -69zM598 82q135 0 223 84q94 94 94 242q0 154 -102 239q-51 43 -103 55.5
t-120 12.5q-163 0 -244 -86q-40 -40 -62 -99t-22 -122q0 -149 90 -236q42 -42 107 -66t139 -24z" />
    <glyph glyph-name="nine" unicode="9" 
d="M125 309h141q15 -92 78 -155q72 -72 207 -72q72 0 126.5 19.5t102.5 70.5q142 148 142 526h-4q-51 -97 -138 -143q-90 -49 -213 -49q-205 0 -325 112q-138 126 -138 361q0 226 123 362t342 136q220 0 344 -129q160 -172 160 -600q0 -221 -43 -390t-153 -276
q-128 -125 -334 -125q-188 0 -299 111q-99 93 -119 241zM569 1352q-135 0 -217 -82q-100 -100 -100 -289q0 -170 94 -264q86 -86 227 -86q144 0 232 88q94 94 94 260q0 80 -24 157.5t-74 129.5q-79 86 -232 86z" />
    <glyph glyph-name="colon" unicode=":" horiz-adv-x="614" 
d="M225 848v192h164v-192h-164zM225 0v193h164v-193h-164z" />
    <glyph glyph-name="semicolon" unicode=";" horiz-adv-x="614" 
d="M225 848v192h164v-192h-164zM225 193h164v-236q0 -67 -12.5 -113t-46.5 -80q-38 -38 -105 -55v94q44 15 62 47q20 37 20 105v45h-82v193z" />
    <glyph glyph-name="less" unicode="&#x3c;" horiz-adv-x="1357" 
d="M123 741l1014 592l49 -90l-940 -543l940 -542l-49 -90l-1014 591v82z" />
    <glyph glyph-name="equal" unicode="=" horiz-adv-x="1228" 
d="M102 961h1024v-99h-1024v99zM102 551h1024v-98h-1024v98z" />
    <glyph glyph-name="greater" unicode="&#x3e;" horiz-adv-x="1357" 
d="M1235 659l-1014 -591l-49 90l940 542l-940 543l49 90l1014 -592v-82z" />
    <glyph glyph-name="question" unicode="?" horiz-adv-x="1142" 
d="M483 0v193h164v-193h-164zM281 1008h-146q-8 229 119 356q118 113 321 113q212 0 328 -109q105 -100 105 -266q0 -98 -34.5 -168.5t-101.5 -130.5l-86 -78q-98 -90 -124 -133q-37 -64 -37 -150v-41h-119v35q0 44 1.5 68t10.5 60.5t27 70.5q39 68 110 135l80 74
q127 113 127 264q0 103 -71 174q-74 74 -213 74q-63 0 -112.5 -13.5t-94.5 -56.5q-97 -82 -90 -278z" />
    <glyph glyph-name="at" unicode="@" horiz-adv-x="1765" 
d="M1212 145l52 -86q-96 -56 -192 -79t-218 -23q-160 0 -285 45.5t-231 151.5q-215 208 -215 565q0 170 51 297.5t156 234.5q71 72 147.5 120t151 69.5t131.5 29t123 7.5q163 0 299 -43.5t252 -153.5q208 -197 208 -504q0 -246 -139 -385q-90 -90 -213 -90q-80 0 -127 33
q-42 29 -55 84q-30 -65 -104 -99q-70 -30 -160 -30q-161 0 -254 100q-105 105 -105 295q0 196 121 317q95 95 248 95q99 0 164 -43q52 -34 76 -88h4v102h127v-535q0 -78 26 -104q19 -22 64 -22q68 0 121 53q50 50 74 132t24 169q0 144 -51 264.5t-140 200.5
q-171 159 -460 159q-135 0 -244 -42t-215 -144q-103 -101 -148 -215t-45 -264q0 -148 48.5 -271.5t130.5 -209.5q86 -87 213 -138t258 -51q169 0 331 96zM1090 702q0 164 -74 230q-57 55 -158 55q-92 0 -147 -55q-78 -78 -78 -240q0 -159 84 -243q57 -54 139 -54
q93 0 156 58q78 74 78 249z" />
    <glyph glyph-name="A" unicode="A" horiz-adv-x="1271" 
d="M324 412l-154 -412h-164l545 1434h170l545 -1434h-166l-152 412h-624zM367 541h536l-268 747z" />
    <glyph glyph-name="B" unicode="B" horiz-adv-x="1421" 
d="M188 1434h600q43 0 77 -2.5t82.5 -11.5t92 -31.5t78.5 -57.5q43 -43 68.5 -110t25.5 -146q0 -135 -90 -231q-67 -67 -151 -84v-4q56 -8 112.5 -34.5t96.5 -66.5q44 -44 69 -112.5t25 -143.5t-27.5 -150.5t-75.5 -125.5q-40 -43 -94 -70t-116 -37.5t-100 -13t-91 -2.5
h-582v1434zM340 1305v-496h412q45 0 73 1.5t79.5 18.5t84.5 50q70 70 70 184q0 106 -64 170q-78 72 -231 72h-424zM340 680v-551h422q180 0 272 68q37 33 60.5 87.5t23.5 123.5q0 73 -25.5 129t-68.5 86q-79 57 -264 57h-420z" />
    <glyph glyph-name="C" unicode="C" horiz-adv-x="1501" 
d="M1245 467h154q-12 -104 -55 -197t-111 -161q-90 -90 -196.5 -121t-235.5 -31q-63 0 -116 6.5t-115.5 24t-122.5 55t-113 92.5q-104 109 -151.5 262.5t-47.5 321.5t46.5 323.5t154.5 260.5q182 174 459 174q126 0 246.5 -37.5t201.5 -114.5q58 -58 95.5 -140.5
t43.5 -180.5h-153q-11 130 -103 229q-111 115 -319 115q-215 0 -342 -125q-168 -165 -168 -482q0 -155 42.5 -296.5t133.5 -229.5q129 -129 338 -129q187 0 309 113q114 114 125 268z" />
    <glyph glyph-name="D" unicode="D" horiz-adv-x="1474" 
d="M188 1434h502q142 0 257.5 -31t219.5 -127q199 -199 199 -555q0 -192 -53.5 -336.5t-149.5 -232.5q-96 -89 -219.5 -120.5t-273.5 -31.5h-482v1434zM340 1305v-1176h285q61 0 102.5 3t106 14t121 40.5t102.5 75.5q72 72 110.5 192t38.5 263q0 310 -157 461
q-76 76 -166.5 101.5t-194.5 25.5h-348z" />
    <glyph glyph-name="E" unicode="E" horiz-adv-x="1251" 
d="M340 807h766v-129h-766v-549h862v-129h-1014v1434h990v-129h-838v-498z" />
    <glyph glyph-name="F" unicode="F" horiz-adv-x="1161" 
d="M340 795h688v-129h-688v-666h-152v1434h932v-129h-780v-510z" />
    <glyph glyph-name="G" unicode="G" horiz-adv-x="1529" 
d="M807 735h588v-735h-127v252h-4q-64 -130 -170 -207q-123 -88 -332 -88q-141 0 -252 37.5t-203 134.5q-28 28 -55.5 68.5t-63 112.5t-57.5 180.5t-22 234.5q0 203 57 350.5t143 233.5q172 172 486 172q268 0 424 -144q59 -55 99 -138.5t52 -176.5h-151q-22 136 -99 213
q-55 56 -140.5 86.5t-186.5 30.5q-136 0 -227.5 -41.5t-143.5 -98.5q-49 -51 -83 -123t-47.5 -145.5t-18.5 -124t-5 -96.5q0 -155 43.5 -283t120.5 -209q130 -145 354 -145q199 0 322 123q76 72 110.5 179.5t34.5 217.5h-446v129z" />
    <glyph glyph-name="H" unicode="H" horiz-adv-x="1449" 
d="M340 692v-692h-152v1434h152v-613h770v613h152v-1434h-152v692h-770z" />
    <glyph glyph-name="I" unicode="I" horiz-adv-x="528" 
d="M188 1434h152v-1434h-152v1434z" />
    <glyph glyph-name="J" unicode="J" horiz-adv-x="1056" 
d="M61 461h152v-12q0 -46 2.5 -80.5t10.5 -78.5t27.5 -80.5t49.5 -62.5q61 -61 180 -61q109 0 176 64q51 50 67.5 123t16.5 173v988h152v-967q0 -276 -115 -399q-106 -111 -305 -111q-193 0 -293 98q-121 121 -121 398v8z" />
    <glyph glyph-name="K" unicode="K" horiz-adv-x="1341" 
d="M340 684l758 750h202l-598 -588l639 -846h-198l-551 745l-252 -245v-500h-152v1434h152v-750z" />
    <glyph glyph-name="L" unicode="L" horiz-adv-x="1085" 
d="M1085 129v-129h-897v1434h152v-1305h745z" />
    <glyph glyph-name="M" unicode="M" horiz-adv-x="1798" 
d="M834 0l-494 1245h-4l4 -55v-1190h-152v1434h230l481 -1235l483 1235h228v-1434h-152v1190l4 55h-6l-491 -1245h-131z" />
    <glyph glyph-name="N" unicode="N" horiz-adv-x="1507" 
d="M340 1206v-1206h-152v1434h174l805 -1207v1207h152v-1434h-172z" />
    <glyph glyph-name="O" unicode="O" horiz-adv-x="1617" 
d="M803 1477q287 0 463 -164q217 -204 217 -596q0 -216 -62.5 -365.5t-150.5 -232.5q-169 -162 -457 -162q-307 0 -473 166q-18 16 -38.5 40.5t-52 78t-55.5 116t-41.5 158.5t-17.5 201q0 199 59 349t150 241q170 170 459 170zM811 1348q-203 0 -334 -117q-80 -73 -131 -205
t-51 -317q0 -158 42 -283.5t118 -204.5q135 -135 356 -135q213 0 350 137q162 162 162 490q0 348 -184 520q-125 115 -328 115z" />
    <glyph glyph-name="P" unicode="P" horiz-adv-x="1304" 
d="M188 1434h557q49 0 88 -3t92 -13t101.5 -34t87.5 -61q109 -101 109 -293q0 -200 -107 -307q-33 -35 -76.5 -60t-80 -37.5t-85.5 -19t-77.5 -7.5t-71.5 -1h-385v-598h-152v1434zM340 1305v-578h375q83 0 150 15t120 63q82 74 82 217q0 127 -76 203q-87 80 -276 80h-375z
" />
    <glyph glyph-name="Q" unicode="Q" horiz-adv-x="1617" 
d="M1270 121l174 -176l-84 -84l-184 184q-127 -88 -357 -88q-321 0 -485 176q-88 92 -143.5 245t-55.5 341q0 183 52.5 332t150.5 247q86 86 209 132.5t264 46.5q140 0 261.5 -44.5t201.5 -123.5q36 -36 68 -82.5t66.5 -117.5t54.5 -171.5t20 -216.5q0 -206 -58 -361
q-57 -149 -155 -239zM999 397l168 -170q70 76 111 185q45 131 45 305q0 151 -41 285t-127 215q-129 129 -344 129q-222 0 -352 -134q-75 -75 -119.5 -202t-44.5 -289q0 -169 46 -301t126 -209q125 -125 338 -125q176 0 268 66l-162 163z" />
    <glyph glyph-name="R" unicode="R" horiz-adv-x="1421" 
d="M188 0v1434h609q136 0 223.5 -21.5t153.5 -89.5q98 -102 98 -266q0 -155 -86 -254q-64 -73 -164 -103v-4q73 -17 125 -69q51 -51 65.5 -114.5t14.5 -152.5l4 -161q0 -1 0.5 -16.5t1 -19.5t1.5 -19t2.5 -22t4.5 -21.5t7 -24.5t9 -23.5t12.5 -26.5t16.5 -26h-164
q-41 67 -47 186l-6 152q-1 10 -2 35.5t-2 35t-3 30.5t-5 31.5t-8 27.5t-12 28t-17 23.5t-23 23.5q-72 58 -204 58h-453v-631h-152zM340 1305v-545h442q75 0 141.5 19.5t106.5 56.5q36 36 58 92.5t22 120.5q0 131 -74 190q-35 30 -89.5 46t-88 18t-84.5 2h-434z" />
    <glyph glyph-name="S" unicode="S" horiz-adv-x="1341" 
d="M109 453h153q-2 -150 94 -246q58 -59 148.5 -88t185.5 -29q92 0 173 24t130 72q80 80 80 193q0 100 -63 170q-43 47 -123.5 74.5t-151.5 40.5l-143 26q-57 11 -96.5 20.5t-93.5 27.5t-97 44.5t-74 61.5q-84 96 -84 227q0 107 47 189.5t125 132.5q133 86 359 86
q244 0 391 -131q19 -19 38.5 -44t49.5 -93t37 -144h-152q-12 124 -94 199q-91 84 -282 84q-26 0 -58.5 -3t-88 -16.5t-93.5 -36.5q-57 -35 -88 -91t-31 -122q0 -84 55 -143q67 -70 254 -104l136 -27q134 -27 224.5 -60t151.5 -90q105 -97 105 -264q0 -192 -123 -309
q-137 -123 -405 -123q-313 0 -463 150q-56 56 -94.5 143t-38.5 199z" />
    <glyph glyph-name="T" unicode="T" horiz-adv-x="1126" 
d="M487 1305h-475v129h1102v-129h-475v-1305h-152v1305z" />
    <glyph glyph-name="U" unicode="U" horiz-adv-x="1423" 
d="M162 1434h151v-861q0 -80 4 -133t26 -121.5t63 -111.5q49 -54 131.5 -84.5t175.5 -30.5q95 0 174.5 29t128.5 82q57 63 75.5 153t18.5 217v861h152v-877q0 -67 -4 -116t-17.5 -114.5t-46 -123.5t-82.5 -107q-84 -80 -183 -106.5t-218 -26.5q-268 0 -406 129
q-82 78 -112.5 195.5t-30.5 269.5v877z" />
    <glyph glyph-name="V" unicode="V" horiz-adv-x="1214" 
d="M608 156l432 1278h166l-506 -1434h-186l-506 1434h166z" />
    <glyph glyph-name="W" unicode="W" horiz-adv-x="1810" 
d="M905 1253l-323 -1253h-195l-375 1434h170l312 -1248l323 1248h178l322 -1248l311 1248h170l-377 -1434h-194z" />
    <glyph glyph-name="X" unicode="X" horiz-adv-x="1198" 
d="M600 844l383 590h186l-471 -701l492 -733h-195l-395 623l-397 -623h-195l492 733l-471 701h186z" />
    <glyph glyph-name="Y" unicode="Y" horiz-adv-x="1234" 
d="M618 750l429 684h180l-533 -822v-612h-151v612l-535 822h182z" />
    <glyph glyph-name="Z" unicode="Z" horiz-adv-x="1189" 
d="M100 1434h998v-127l-865 -1178h904v-129h-1084v141l873 1164h-826v129z" />
    <glyph glyph-name="bracketleft" unicode="[" horiz-adv-x="733" 
d="M217 1434h408v-103h-265v-1607h265v-103h-408v1813z" />
    <glyph glyph-name="backslash" unicode="\" horiz-adv-x="835" 
d="M836 -379h-105l-731 1813h104z" />
    <glyph glyph-name="bracketright" unicode="]" horiz-adv-x="733" 
d="M109 1434h407v-1813h-407v103h262v1607h-262v103z" />
    <glyph glyph-name="asciicircum" unicode="^" horiz-adv-x="845" 
d="M618 987l-194 371l-195 -371h-114l237 447h142l237 -447h-113z" />
    <glyph glyph-name="underscore" unicode="_" horiz-adv-x="1019" 
d="M0 -379v86h1020v-86h-1020z" />
    <glyph glyph-name="grave" unicode="`" horiz-adv-x="598" 
d="M262 1434l144 -271h-123l-197 271h176z" />
    <glyph glyph-name="a" unicode="a" horiz-adv-x="1138" 
d="M274 741h-137q0 69 31.5 143t103.5 126q101 71 293 71q209 0 305 -96q54 -54 70 -113.5t14 -130.5l-12 -518v-9.5v-11v-10t0.5 -10.5t1.5 -10t2 -10.5t2.5 -9t3.5 -9.5t5 -8l6 -8q34 -40 94 -25v-102q-24 -8 -76 -8q-82 0 -121 39q-49 49 -45 135q-52 -87 -135 -133
q-102 -58 -244 -58q-170 0 -256 84q-86 80 -86 220q0 120 76 196q88 88 330 113l67 8q17 3 65.5 7.5t74.5 8.5q59 9 81 31q25 27 25 100q0 120 -63 179q-64 57 -197 57q-149 0 -213 -64q-31 -31 -47.5 -78.5t-18.5 -95.5zM805 444l4 107q-27 -25 -82 -35q-66 -11 -184 -22
l-41 -5q-156 -19 -211 -71q-49 -49 -49 -142q0 -86 53 -139q33 -37 73 -48t91 -11q135 0 223 72q57 47 87.5 124.5t35.5 169.5z" />
    <glyph glyph-name="b" unicode="b" horiz-adv-x="1222" 
d="M162 1434h141v-545q43 81 113 127q95 65 237 65q202 0 316 -114q145 -145 145 -432q0 -306 -149 -455q-113 -121 -314 -121q-143 0 -245 72q-69 55 -105 123h-4v-154h-135v1434zM295 520q0 -249 121 -370q89 -89 217 -89q142 0 221 91q57 60 85 160t28 216
q0 257 -123 371q-85 80 -207 80q-141 0 -225 -92q-117 -121 -117 -367z" />
    <glyph glyph-name="c" unicode="c" horiz-adv-x="1120" 
d="M903 365h135q-8 -83 -43 -165t-92 -139q-63 -63 -134 -82.5t-167 -19.5q-101 0 -181.5 22.5t-154.5 92.5q-74 71 -115.5 187.5t-41.5 268.5q0 134 34.5 241t98.5 175q118 135 352 135q205 0 317 -108q98 -98 117 -246h-135q-11 95 -72 164q-76 88 -217 88
q-145 0 -237 -92q-109 -109 -109 -352q0 -260 125 -385q89 -89 221 -89q133 0 207 78q38 41 62.5 103t29.5 123z" />
    <glyph glyph-name="d" unicode="d" horiz-adv-x="1220" 
d="M918 1434h141v-1434h-135v154h-4q-40 -85 -123 -140q-89 -55 -228 -55q-194 0 -307 113q-153 150 -153 454q0 290 145 435q120 120 317 120q133 0 226 -59q76 -48 121 -133v545zM258 528q0 -115 22.5 -209t88.5 -163q86 -95 219 -95q129 0 213 84q63 63 94 164t31 211
q0 256 -129 379q-86 80 -211 80q-119 0 -203 -74q-60 -56 -92.5 -156t-32.5 -221z" />
    <glyph glyph-name="e" unicode="e" 
d="M924 301h135q-25 -126 -113 -221q-69 -71 -149.5 -96t-182.5 -25q-105 0 -189 23t-163 98q-153 148 -153 444q0 283 143 426q131 131 352 131q215 0 332 -123q77 -80 103.5 -188t31.5 -276h-815q8 -220 111 -330q93 -103 254 -103q133 0 215 78q16 14 29.5 32t22 32.5
t16 32t10.5 27.5t6.5 23.5t3.5 14.5zM602 979q-161 0 -250 -100q-43 -50 -69.5 -127.5t-26.5 -155.5h666q0 72 -26.5 161.5t-74.5 137.5q-80 84 -219 84z" />
    <glyph glyph-name="f" unicode="f" horiz-adv-x="581" 
d="M569 1040v-102h-223v-938h-141v938h-193v102h193v148q0 63 10 106t45 80q66 66 211 66q49 0 98 -6v-103q-10 2 -30 2h-31q-94 0 -133 -39q-29 -33 -29 -108v-146h223z" />
    <glyph glyph-name="g" unicode="g" horiz-adv-x="1212" 
d="M172 -127h141q19 -61 80 -113q68 -51 197 -51q147 0 223 70q59 52 77.5 123t18.5 159v121q-49 -100 -133 -151q-76 -47 -201 -47q-100 0 -180.5 27t-148.5 104q-137 149 -137 417q0 286 137 429q118 120 319 120q134 0 221 -57q83 -52 127 -137h5v153h133v-991
q0 -102 -24 -184t-91 -148q-114 -112 -334 -112q-238 0 -344 106q-68 68 -86 162zM596 86q58 0 112 22.5t91 59.5q40 38 67 98t37 123t12.5 95.5t2.5 58.5q0 102 -25.5 195t-79.5 149q-92 92 -235 92q-133 0 -216 -86q-104 -104 -104 -344q0 -251 111 -369q46 -46 107 -70
t120 -24z" />
    <glyph glyph-name="h" unicode="h" horiz-adv-x="1159" 
d="M162 1434h141v-545q43 77 127 131q96 61 223 61q166 0 256 -90q31 -31 50 -66.5t26.5 -77t9.5 -70.5t2 -75v-702h-141v647v64q0 137 -59 200q-61 68 -170 68q-137 0 -228 -94q-43 -45 -65.5 -105t-26.5 -100t-4 -98v-582h-141v1434z" />
    <glyph glyph-name="i" unicode="i" horiz-adv-x="456" 
d="M158 1040h141v-1040h-141v1040zM156 1262v172h145v-172h-145z" />
    <glyph glyph-name="j" unicode="j" horiz-adv-x="464" 
d="M166 1040h141v-1138q0 -171 -59 -230q-57 -57 -185 -57q-36 0 -77 6v105h8q91 0 131 32q26 24 33.5 58t7.5 92v1132zM162 1262v172h147v-172h-147z" />
    <glyph glyph-name="k" unicode="k" horiz-adv-x="1044" 
d="M303 522l533 518h170l-412 -399l450 -641h-163l-387 553l-191 -186v-367h-141v1434h141v-912z" />
    <glyph glyph-name="l" unicode="l" horiz-adv-x="464" 
d="M162 1434h141v-1434h-141v1434z" />
    <glyph glyph-name="m" unicode="m" horiz-adv-x="1759" 
d="M162 1040h141v-149q43 78 117 131q83 59 203 59q115 0 194 -59q74 -60 101 -158q7 16 19 36t39 52.5t60 57.5q95 71 228 71q149 0 237 -88q43 -43 65.5 -100t26.5 -96t4 -97v-700h-141v672q0 39 -2 67t-9 65t-23 68t-42 54q-63 53 -149 53q-115 0 -191 -76
q-90 -90 -90 -270v-633h-141v670q0 176 -74 254q-55 55 -143 55q-105 0 -182 -74q-107 -99 -107 -278v-627h-141v1040z" />
    <glyph glyph-name="n" unicode="n" horiz-adv-x="1161" 
d="M162 1040h141v-151q50 81 143 137q96 55 205 55q164 0 254 -90q59 -59 76.5 -128t17.5 -161v-702h-141v682q0 37 -1 58t-7 60.5t-23.5 71t-44.5 54.5q-62 53 -159 53q-122 0 -213 -84q-107 -107 -107 -313v-582h-141v1040z" />
    <glyph glyph-name="o" unicode="o" horiz-adv-x="1212" 
d="M606 1081q213 0 340 -120q83 -78 120.5 -197.5t37.5 -243.5q0 -292 -166 -446q-72 -67 -152 -91t-178 -24q-216 0 -336 115q-67 56 -115 168.5t-48 277.5q0 284 157 441q120 120 340 120zM606 981q-145 0 -231 -86q-119 -119 -119 -373q0 -261 127 -381q87 -80 223 -80
q137 0 221 78q127 117 127 383q0 244 -108 363q-92 96 -240 96z" />
    <glyph glyph-name="p" unicode="p" horiz-adv-x="1218" 
d="M162 1040h135v-153h4q47 72 129 133q93 61 221 61q186 0 307 -112q152 -152 152 -439q0 -170 -50 -298t-150.5 -200.5t-241.5 -72.5q-140 0 -232 57q-81 51 -133 144v-539h-141v1419zM295 516q0 -239 119 -358q93 -97 231 -97q117 0 201 84q55 58 86 156t31 225
q0 250 -123 373q-80 80 -209 80q-119 0 -211 -82q-125 -113 -125 -381z" />
    <glyph glyph-name="q" unicode="q" horiz-adv-x="1218" 
d="M977 1040h133v-1419h-141v539q-55 -98 -140 -148q-88 -53 -217 -53q-187 0 -303 119q-72 75 -109.5 193.5t-37.5 267.5q0 277 149 426q119 116 305 116q140 0 226 -57q83 -55 129 -137h6v153zM309 516q0 -258 125 -377q82 -78 205 -78q113 0 205 82q135 129 135 392
q0 250 -121 366q-87 78 -221 78q-117 0 -203 -78q-125 -116 -125 -385z" />
    <glyph glyph-name="r" unicode="r" horiz-adv-x="702" 
d="M702 1061v-115h-20q-99 0 -162 -22t-114 -76q-61 -61 -82 -134t-21 -177v-537h-141v1040h141v-206h4q39 96 129 161q97 66 244 66h22z" />
    <glyph glyph-name="s" unicode="s" horiz-adv-x="1013" 
d="M82 303h143q0 -104 72 -172q70 -70 225 -70q127 0 195 56q32 26 50.5 69.5t18.5 92.5q0 73 -55 120q-43 39 -172 68l-115 25q-65 16 -99.5 25.5t-81 30.5t-73.5 48q-69 69 -69 180q0 73 34.5 138t94.5 106q93 61 258 61q198 0 307 -102q85 -81 88 -209h-137q0 91 -57 148
q-64 61 -203 61q-130 0 -191 -61q-47 -47 -47 -127q0 -71 54 -119q47 -39 165 -68l109 -24q7 -2 43 -11t47 -12t40 -12t44 -16t35 -17.5t35 -22.5q92 -69 92 -198q0 -84 -33.5 -151t-89.5 -107q-97 -74 -293 -74q-223 0 -334 111q-42 45 -68 108.5t-32 124.5z" />
    <glyph glyph-name="t" unicode="t" horiz-adv-x="598" 
d="M12 1040h195v312h141v-312h223v-102h-223v-754q0 -51 21 -78q24 -26 82 -26q55 0 120 22v-102q-72 -29 -163 -29q-115 0 -156 52q-45 52 -45 159v756h-195v102z" />
    <glyph glyph-name="u" unicode="u" horiz-adv-x="1161" 
d="M999 0h-141v150h-4q-58 -94 -135 -138q-86 -53 -225 -53q-154 0 -242 88q-52 51 -71 120t-19 171v702h141v-647q0 -102 12.5 -164.5t55.5 -105.5q62 -62 164 -62q134 0 231 99q57 61 74.5 132t17.5 167v581h141v-1040z" />
    <glyph glyph-name="v" unicode="v" horiz-adv-x="937" 
d="M469 143l313 897h156l-387 -1040h-164l-387 1040h154z" />
    <glyph glyph-name="w" unicode="w" horiz-adv-x="1456" 
d="M727 877l-235 -877h-158l-322 1040h148l258 -876l237 876h146l237 -876l258 876h148l-322 -1040h-157z" />
    <glyph glyph-name="x" unicode="x" horiz-adv-x="948" 
d="M473 635l281 405h161l-358 -497l391 -543h-166l-309 453l-309 -453h-164l391 543l-358 497h160z" />
    <glyph glyph-name="y" unicode="y" horiz-adv-x="980" 
d="M182 -377v107q34 -9 80 -9q64 0 100 31q32 28 60 115l43 133l-438 1040h170l344 -882l299 882h141l-428 -1198q-40 -108 -63 -141q-13 -21 -29 -35q-58 -53 -164 -53q-57 0 -115 10z" />
    <glyph glyph-name="z" unicode="z" horiz-adv-x="933" 
d="M98 1040h752v-106l-625 -832h656v-102h-828v100l645 838h-600v102z" />
    <glyph glyph-name="braceleft" unicode="{" horiz-adv-x="749" 
d="M154 469v115q70 8 112 47q43 37 56.5 94t13.5 135q0 39 -4 121q-4 78 -4 109q0 82 19 144t71 114q40 40 94 60t135 26v-93q-34 -4 -65.5 -18.5t-42 -23t-15.5 -13.5q-55 -55 -55 -170q0 -10 4 -96q6 -57 6 -131q0 -141 -61 -236q-57 -86 -158 -125v-4q101 -39 158 -125
q61 -91 61 -233q0 -76 -6 -133q-4 -86 -4 -96q0 -115 55 -170q45 -45 123 -56v-92q-81 6 -135 26t-94 60q-52 52 -71 114t-19 144q0 31 4 109q4 82 4 121q0 78 -13.5 135t-56.5 94q-42 39 -112 47z" />
    <glyph glyph-name="bar" unicode="|" horiz-adv-x="954" 
d="M426 -459v2157h102v-2157h-102z" />
    <glyph glyph-name="braceright" unicode="}" horiz-adv-x="749" 
d="M596 584v-115q-71 -8 -113 -47q-42 -37 -55.5 -93.5t-13.5 -135.5q0 -39 4 -121q4 -78 4 -109q0 -82 -19 -144t-71 -114q-40 -40 -94.5 -60t-135.5 -26v92q78 11 123 56q56 56 56 170q0 15 -2 48t-3 48q-6 57 -6 133q0 141 62 233q57 86 157 125v4q-100 39 -157 125
q-62 96 -62 236q0 74 6 131q1 15 3 48t2 48q0 114 -56 170q-5 5 -15.5 13.5t-42 23t-65.5 18.5v93q81 -6 135.5 -26t94.5 -60q52 -52 71 -114t19 -144q0 -31 -4 -109q-4 -82 -4 -121q0 -79 13.5 -135.5t55.5 -93.5q42 -39 113 -47z" />
    <glyph glyph-name="asciitilde" unicode="~" horiz-adv-x="1210" 
d="M172 602l-70 29q33 104 99 170q76 76 178 76q72 0 162 -48l196 -104q3 -1 13 -6.5t14 -7.5t13.5 -6.5t16 -6t16.5 -4t20.5 -3.5t21.5 -1q46 0 76 16t57 52q20 25 34 54t17 40l72 -29q-38 -105 -102 -172q-70 -73 -166 -73q-82 0 -170 47l-201 108q-60 31 -115 31
q-68 0 -112 -47q-45 -45 -70 -115z" />
    <glyph glyph-name="Zcaron" horiz-adv-x="1189" 
d="M100 1434h998v-127l-865 -1178h904v-129h-1084v141l873 1164h-826v129zM221 1843h152l223 -229l221 229h152l-248 -287h-252z" />
    <glyph glyph-name="Zcaron" unicode="&#x17d;" horiz-adv-x="1189" 
d="M100 1434h998v-127l-865 -1178h904v-129h-1084v141l873 1164h-826v129zM221 1843h152l223 -229l221 229h152l-248 -287h-252z" />
    <glyph glyph-name="zcaron" horiz-adv-x="933" 
d="M98 1040h752v-106l-625 -832h656v-102h-828v100l645 838h-600v102zM602 1163h-236l-244 271h140l221 -215l223 215h139z" />
    <glyph glyph-name="zcaron" unicode="&#x17e;" horiz-adv-x="933" 
d="M98 1040h752v-106l-625 -832h656v-102h-828v100l645 838h-600v102zM602 1163h-236l-244 271h140l221 -215l223 215h139z" />
    <glyph glyph-name="uni00A0" unicode="&#xa0;" horiz-adv-x="477" 
 />
    <glyph glyph-name="exclamdown" unicode="&#xa1;" horiz-adv-x="614" 
d="M389 -379h-162v578l39 458h82l41 -458v-578zM389 1040v-192h-164v192h164z" />
    <glyph glyph-name="cent" unicode="&#xa2;" 
d="M934 365h135q-14 -142 -86 -246q-104 -150 -305 -160v-147h-92v147q-213 8 -336 172q-111 148 -111 397q0 276 133 418q50 57 131.5 94t182.5 41v136h92v-136q159 -9 260 -104q105 -105 121 -250h-135q-11 96 -72 164q-29 33 -66.5 53.5t-57 25t-50.5 9.5v-918
q122 17 194 119q52 78 62 185zM586 63v914q-111 -8 -183 -80q-114 -114 -114 -362q0 -177 59 -297q77 -145 238 -175z" />
    <glyph glyph-name="sterling" unicode="&#xa3;" 
d="M1022 176l68 -94q-110 -125 -252 -125q-13 0 -25.5 0.5t-26.5 3t-22.5 4t-23.5 6t-21 6t-22.5 7.5t-19.5 7t-21.5 8.5t-20.5 8.5q-123 53 -217 53q-122 0 -223 -77l-76 106q60 41 100 82.5t51 60.5q37 52 50.5 99t13.5 108q0 106 -43 193h-201v102h154q-84 167 -84 305
q0 200 114 314q123 123 355 123q215 0 334 -121q114 -117 114 -348h-149v14q0 180 -84 264q-78 78 -226 78q-150 0 -229 -84q-80 -87 -80 -217q0 -141 97 -328h325v-102h-285q31 -83 31 -170q0 -104 -49 -189q-41 -70 -88 -110l4 -8q68 24 141 24q40 0 77 -7.5t61 -16
t63 -25.5q93 -41 158 -41q92 0 178 86z" />
    <glyph glyph-name="currency" unicode="&#xa4;" horiz-adv-x="1431" 
d="M117 176l178 178q-109 142 -109 322q0 189 109 321l-178 181l94 94l178 -180q138 114 326 114q193 0 325 -114l181 180l94 -94l-178 -181q108 -140 108 -315q0 -82 -27.5 -169t-80.5 -159l178 -178l-94 -96l-181 180q-140 -113 -321 -113q-200 0 -330 113l-178 -180z
M299 676q0 -172 121 -293q56 -58 134 -91.5t161 -33.5t161.5 33t133.5 88q54 54 88.5 132.5t34.5 166.5q0 80 -31.5 157.5t-91.5 137.5q-121 121 -295 121q-79 0 -156.5 -32t-138.5 -93q-121 -121 -121 -293z" />
    <glyph glyph-name="yen" unicode="&#xa5;" 
d="M588 750l409 684h183l-516 -822v-43h235v-84h-235v-131h235v-84h-235v-270h-152v270h-236v84h236v131h-236v84h236v43l-512 822h182z" />
    <glyph glyph-name="brokenbar" unicode="&#xa6;" horiz-adv-x="954" 
d="M426 422h102v-881h-102v881zM528 817h-102v881h102v-881z" />
    <glyph glyph-name="section" unicode="&#xa7;" horiz-adv-x="1134" 
d="M891 1145h-125q-4 129 -47 174q-48 53 -158 53q-30 0 -48.5 -2t-43.5 -11.5t-43 -27.5q-43 -43 -43 -117q0 -77 55 -129q25 -22 57 -39t83.5 -38.5t74.5 -32.5l92 -41q133 -59 195 -121q86 -91 86 -231q0 -146 -90 -244q-72 -75 -170 -105q58 -19 98 -79q37 -56 37 -142
q0 -129 -80 -209q-52 -55 -112 -73.5t-138 -18.5q-176 0 -264 88q-43 43 -69 117.5t-25 151.5h125q-4 -126 55 -185q55 -57 168 -57q105 0 156 51q45 45 45 121q0 74 -47 121q-17 17 -41 31.5t-41.5 22t-63 25.5t-67.5 27l-101 41q-121 50 -198 127q-48 48 -71 105t-23 137
q0 137 92 237q62 68 168 105q-42 24 -80 74q-47 65 -47 149q0 119 71 197q85 90 248 90q166 0 250 -84q80 -80 80 -258zM651 295q97 25 162 90q70 73 70 184q0 106 -68 174q-73 73 -338 168q-103 -25 -166 -88q-61 -64 -61 -170q0 -91 51 -159q9 -14 29 -32.5t58.5 -45
t106.5 -58.5t156 -63z" />
    <glyph glyph-name="dieresis" unicode="&#xa8;" horiz-adv-x="765" 
d="M102 1262v172h148v-172h-148zM518 1262v172h146v-172h-146z" />
    <glyph glyph-name="copyright" unicode="&#xa9;" horiz-adv-x="1638" 
d="M1006 608h116q-19 -129 -102 -196q-74 -60 -193 -60q-158 0 -243 92q-97 97 -97 285q0 190 97 287q88 88 231 88q61 0 120.5 -18t98.5 -54q65 -59 74 -164h-113q0 60 -41 101q-43 47 -135 47q-88 0 -141 -53q-72 -72 -72 -234q0 -75 20.5 -135t53.5 -94q60 -60 154 -60
q75 0 124 52q38 43 48 116zM819 1434q142 0 273.5 -55.5t226.5 -145.5q97 -96 157 -231.5t60 -284.5q0 -34 -3 -69t-16.5 -94t-36 -114t-66.5 -121t-103 -122q-112 -108 -241.5 -152.5t-250.5 -44.5q-133 0 -261 49.5t-230 145.5q-115 106 -170.5 245.5t-55.5 280.5
q0 149 61 283t165 235q102 96 231 145.5t260 49.5zM819 1346q-110 0 -217.5 -42.5t-191.5 -121.5q-90 -88 -142.5 -211.5t-52.5 -255.5q0 -271 195 -459q171 -168 409 -168q111 0 219 42.5t189 119.5q92 86 144 211t52 256t-52.5 254t-141.5 211q-84 79 -192 121.5
t-218 42.5z" />
    <glyph glyph-name="ordfeminine" unicode="&#xaa;" horiz-adv-x="733" 
d="M201 1268h-90q0 88 55 143q66 66 196 66q118 0 173 -43q77 -55 73 -168l-6 -295q0 -54 14 -64q12 -10 46 -10h6v-70q-28 -4 -50 -4q-54 0 -77 23q-21 19 -25 67q-25 -43 -80 -75q-62 -33 -143 -33q-105 0 -156 51t-51 135q0 74 51 125q52 48 178 62l72 8q10 2 29 3.5
t29.5 3t24 6.5t22.5 13q20 20 20 60q0 65 -35 98q-39 37 -121 37q-74 0 -112 -31q-43 -38 -43 -108zM508 1094l2 55q-14 -12 -47 -23q-28 -6 -50.5 -8.5t-50 -4t-47.5 -3.5q-74 -13 -100 -39q-31 -35 -31 -82q0 -51 31 -82q33 -33 98 -33q87 0 138 54q54 56 57 166zM76 662
v63h592v-63h-592z" />
    <glyph glyph-name="guillemotleft" unicode="&#xab;" horiz-adv-x="946" 
d="M203 559l229 -194v-140l-305 269v133l305 268v-139zM563 559l230 -194v-140l-306 269v133l306 268v-139z" />
    <glyph glyph-name="logicalnot" unicode="&#xac;" horiz-adv-x="1228" 
d="M102 768h1024v-385h-98v287h-926v98z" />
    <glyph glyph-name="uni00AD" unicode="&#xad;" horiz-adv-x="827" 
d="M143 465v162h541v-162h-541z" />
    <glyph glyph-name="registered" unicode="&#xae;" horiz-adv-x="1638" 
d="M557 365v716h313q124 0 187 -57q53 -53 53 -141q0 -68 -39 -119q-31 -39 -82 -57v-5q39 -9 64 -34q16 -16 24 -36.5t10 -36.5t3 -46l4 -88q4 -58 26 -96h-119q-7 10 -11 18t-6 18t-3 14t-1.5 17.5t-0.5 16.5l-4 79q-5 73 -29 99q-32 35 -106 35h-168v-297h-115zM672 995
v-247h172q81 0 117 38q32 32 32 91q0 47 -28 79q-39 39 -127 39h-166zM215 715q0 -271 195 -459q171 -168 409 -168q111 0 219 42.5t189 119.5q92 86 144 211t52 256t-52.5 254t-141.5 211q-84 79 -192 121.5t-218 42.5t-217.5 -42.5t-191.5 -121.5q-90 -88 -142.5 -211.5
t-52.5 -255.5zM102 721q0 149 61 283t165 235q102 96 231 145.5t260 49.5q142 0 273.5 -55.5t226.5 -145.5q97 -96 157 -231.5t60 -284.5q0 -34 -3 -69t-16.5 -94t-36 -114t-66.5 -121t-103 -122q-112 -108 -241.5 -152.5t-250.5 -44.5q-133 0 -261 49.5t-230 145.5
q-115 106 -170.5 245.5t-55.5 280.5z" />
    <glyph glyph-name="overscore" unicode="&#xaf;" horiz-adv-x="837" 
d="M102 1270v94h633v-94h-633z" />
    <glyph glyph-name="degree" unicode="&#xb0;" horiz-adv-x="540" 
d="M156 1239q0 -47 33.5 -81t80.5 -34t81 34t34 81t-34 81t-81 34t-80.5 -34t-33.5 -81zM76 1239q0 80 57.5 137.5t136.5 57.5q80 0 137.5 -58t57.5 -137t-57.5 -137t-137.5 -58q-79 0 -136.5 57.5t-57.5 137.5z" />
    <glyph glyph-name="plusminus" unicode="&#xb1;" horiz-adv-x="1228" 
d="M102 909h463v422h99v-422h462v-98h-462v-381h-99v381h-463v98zM102 262h1024v-98h-1024v98z" />
    <glyph glyph-name="twosuperior" unicode="&#xb2;" horiz-adv-x="759" 
d="M664 659v-86h-568q0 153 103 256q45 45 180 136q14 10 36.5 25.5t32.5 22.5t23 17.5t23 20.5q35 34 48 68.5t13 84.5q0 82 -45 127q-43 43 -135 43q-82 0 -127 -47q-43 -45 -43 -149v-11h-105v9q0 134 76 210q74 74 213 74q131 0 205 -74q70 -70 70 -178q0 -127 -91 -215
q-42 -42 -184 -135q-104 -71 -127 -94q-42 -44 -51 -105h453z" />
    <glyph glyph-name="threesuperior" unicode="&#xb3;" horiz-adv-x="757" 
d="M86 827h102q0 -85 52 -143q51 -51 133 -51q90 0 135 41q55 46 55 143q0 76 -41 117q-45 45 -135 45h-65v86h47q88 0 133 45q39 39 39 113q0 71 -41 112q-39 39 -113 39q-88 0 -133 -45q-27 -27 -36 -61t-11 -88h-101q0 134 70 209q71 71 203 71t201 -69q63 -58 63 -162
q0 -95 -57 -150q-31 -31 -80 -47v-6q63 -8 106 -51q58 -58 58 -158q0 -120 -74 -194q-76 -76 -221 -76q-139 0 -215 76q-64 64 -74 204z" />
    <glyph glyph-name="acute" unicode="&#xb4;" horiz-adv-x="598" 
d="M336 1434h176l-195 -271h-124z" />
    <glyph glyph-name="mu" unicode="&#xb5;" horiz-adv-x="1165" 
d="M301 115v-494h-139v1419h139v-612q0 -96 17 -157.5t69 -114.5q78 -78 182 -78q102 0 176 74q55 55 72 117.5t17 160.5v610h141v-815q0 -84 24 -106q29 -26 84 -17v-102q-44 -8 -88 -8q-84 0 -121 37q-40 40 -40 106q-39 -77 -99 -123q-67 -53 -170 -53q-91 0 -159 47
q-65 47 -105 109z" />
    <glyph glyph-name="mu" unicode="&#x3bc;" horiz-adv-x="1165" 
d="M301 115v-494h-139v1419h139v-612q0 -96 17 -157.5t69 -114.5q78 -78 182 -78q102 0 176 74q55 55 72 117.5t17 160.5v610h141v-815q0 -84 24 -106q29 -26 84 -17v-102q-44 -8 -88 -8q-84 0 -121 37q-40 40 -40 106q-39 -77 -99 -123q-67 -53 -170 -53q-91 0 -159 47
q-65 47 -105 109z" />
    <glyph glyph-name="paragraph" unicode="&#xb6;" horiz-adv-x="925" 
d="M401 -379v1172q-78 4 -140 33t-101 73q-78 81 -78 215q0 141 88 229q91 91 254 91h82v-1813h-105zM684 -379v1813h104v-1813h-104z" />
    <glyph glyph-name="middot" unicode="&#xb7;" horiz-adv-x="614" 
d="M225 451v194h164v-194h-164z" />
    <glyph glyph-name="cedilla" unicode="&#xb8;" horiz-adv-x="610" 
d="M88 -475l29 92q47 -16 119 -16q118 0 153 37q23 23 23 63q0 42 -27 61q-38 33 -147 33h-64l25 86h57q87 0 144.5 -12.5t93.5 -48.5q43 -43 43 -109q0 -89 -52 -141q-62 -62 -227 -62q-76 0 -170 17z" />
    <glyph glyph-name="onesuperior" unicode="&#xb9;" horiz-adv-x="751" 
d="M164 1229v51h12q99 0 148 41q54 40 69 113h72v-861h-107v656h-194z" />
    <glyph glyph-name="ordmasculine" unicode="&#xba;" horiz-adv-x="790" 
d="M88 662v63h614v-63h-614zM395 1407q-86 0 -133 -45q-74 -65 -74 -221q0 -155 70 -219q50 -50 137 -50t137 50q70 64 70 219q0 156 -74 221q-47 45 -133 45zM395 803q-63 0 -111.5 13.5t-93.5 53.5q-102 95 -102 273q0 173 96 260q80 74 211 74t211 -74q96 -87 96 -260
q0 -178 -102 -273q-45 -40 -93.5 -53.5t-111.5 -13.5z" />
    <glyph glyph-name="guillemotright" unicode="&#xbb;" horiz-adv-x="946" 
d="M745 559l-231 197v139l305 -268v-133l-305 -269v140zM385 559l-231 197v139l305 -268v-133l-305 -269v140z" />
    <glyph glyph-name="onequarter" unicode="&#xbc;" horiz-adv-x="1597" 
d="M1309 195h-394v71l390 594h94v-594h141v-71h-141v-195h-90v195zM1001 266h308v469zM328 0l950 1434h74l-951 -1434h-73zM164 1241v39h20q83 0 138 41q54 40 69 113h60v-861h-95v668h-192z" />
    <glyph glyph-name="onehalf" unicode="&#xbd;" horiz-adv-x="1597" 
d="M164 1241v39h20q83 0 138 41q54 40 69 113h60v-861h-95v668h-192zM1501 72v-72h-545q1 92 28 152t81 114q47 47 127 101l37 24q90 57 129 109q47 59 47 141t-47 129q-45 45 -133 45q-80 0 -125 -47q-45 -52 -45 -147v-15h-90v15q0 122 63 188q67 78 195 78t209 -72
q42 -38 54.5 -80.5t12.5 -93.5q0 -68 -18.5 -118t-69.5 -101q-17 -17 -37.5 -33.5t-33.5 -26t-39.5 -27.5t-34.5 -24l-39 -26q-87 -58 -127 -107q-36 -45 -45 -106h446zM246 0l950 1434h74l-951 -1434h-73z" />
    <glyph glyph-name="threequarters" unicode="&#xbe;" horiz-adv-x="1597" 
d="M86 815h90q0 -102 62 -156q43 -41 127 -41q83 0 135 48q55 55 55 147q0 96 -45 131q-43 43 -133 43h-68v72h35q96 0 139 39q49 38 49 125q0 78 -45 123q-43 43 -122 43q-83 0 -127 -52q-40 -50 -43 -145h-91q4 135 74 205q63 63 187 63q131 0 196 -65q62 -62 62 -164
q0 -91 -45 -144q-31 -41 -86 -55v-4q58 -7 100 -49q57 -57 57 -162q0 -119 -69 -188q-82 -82 -220 -82q-133 0 -200 67q-70 70 -74 201zM1309 195h-394v71l390 594h94v-594h141v-71h-141v-195h-90v195zM1001 266h308v469zM369 0l950 1434h74l-951 -1434h-73z" />
    <glyph glyph-name="questiondown" unicode="&#xbf;" horiz-adv-x="1142" 
d="M659 1040v-192h-163v192h163zM862 41h146q8 -229 -119 -356q-113 -113 -328 -113q-205 0 -321 109q-41 35 -73 103t-32 163q0 99 34.5 169t100.5 130l86 78q100 92 125 133q37 64 37 149v41h119v-35q0 -44 -1.5 -67.5t-10.5 -60t-27 -70.5q-38 -66 -111 -135l-79 -74
q-127 -113 -127 -264q0 -103 71 -174q74 -74 213 -74q64 0 113 13t94 56q97 82 90 279z" />
    <glyph glyph-name="Agrave" unicode="&#xc0;" horiz-adv-x="1271" 
d="M324 412l-154 -412h-164l545 1434h170l545 -1434h-166l-152 412h-624zM367 541h536l-268 747zM582 1843l149 -287h-133l-205 287h189z" />
    <glyph glyph-name="Aacute" unicode="&#xc1;" horiz-adv-x="1271" 
d="M324 412l-154 -412h-164l545 1434h170l545 -1434h-166l-152 412h-624zM367 541h536l-268 747zM688 1843h189l-203 -287h-133z" />
    <glyph glyph-name="Acircumflex" unicode="&#xc2;" horiz-adv-x="1271" 
d="M324 412l-154 -412h-164l545 1434h170l545 -1434h-166l-152 412h-624zM367 541h536l-268 747zM518 1843h236l243 -270h-139l-223 215l-221 -215h-140z" />
    <glyph glyph-name="Atilde" unicode="&#xc3;" horiz-adv-x="1271" 
d="M324 412l-154 -412h-164l545 1434h170l545 -1434h-166l-152 412h-624zM367 541h536l-268 747zM913 1761h103q-28 -103 -82 -157q-52 -52 -125 -52q-56 0 -93.5 13t-78.5 41l-49 32l-12 8l-12 8t-11 6.5t-12 6t-11.5 4.5t-13.5 4.5t-14.5 3t-17.5 2t-19 0.5q-48 0 -76 -28
q-30 -38 -33 -80h-102q14 85 72 143q62 62 147 62q82 0 152 -49l49 -35q61 -45 129 -45q39 0 65 26q34 32 45 86z" />
    <glyph glyph-name="Adieresis" unicode="&#xc4;" horiz-adv-x="1271" 
d="M324 412l-154 -412h-164l545 1434h170l545 -1434h-166l-152 412h-624zM367 541h536l-268 747zM338 1581v152h154v-152h-154zM756 1581v152h153v-152h-153z" />
    <glyph glyph-name="Aring" unicode="&#xc5;" horiz-adv-x="1271" 
d="M324 412l-154 -412h-164l545 1434h170l545 -1434h-166l-152 412h-624zM367 541h536l-268 747zM434 1704q0 85 58 143t143 58t143 -58t58 -143t-58 -143t-143 -58t-143 58t-58 143zM508 1704q0 -45 34 -86t93 -41q54 0 90.5 36.5t36.5 90.5t-36.5 90.5t-90.5 36.5
q-59 0 -93 -41t-34 -86z" />
    <glyph glyph-name="AE" unicode="&#xc6;" horiz-adv-x="1988" 
d="M926 0v403h-523l-221 -403h-182l799 1434h1118v-129h-840v-498h766v-129h-766v-549h862v-129h-1013zM926 532v773h-37l-418 -773h455z" />
    <glyph glyph-name="Ccedilla" unicode="&#xc7;" horiz-adv-x="1501" 
d="M1245 467h154q-12 -104 -55 -197t-111 -161q-90 -90 -196.5 -121t-235.5 -31q-63 0 -116 6.5t-115.5 24t-122.5 55t-113 92.5q-104 109 -151.5 262.5t-47.5 321.5t46.5 323.5t154.5 260.5q182 174 459 174q126 0 246.5 -37.5t201.5 -114.5q58 -58 95.5 -140.5
t43.5 -180.5h-153q-11 130 -103 229q-111 115 -319 115q-215 0 -342 -125q-168 -165 -168 -482q0 -155 42.5 -296.5t133.5 -229.5q129 -129 338 -129q187 0 309 113q114 114 125 268zM559 -475l29 92q47 -16 119 -16q118 0 153 37q23 23 23 63q0 42 -27 61q-38 33 -147 33
h-64l25 86h57q87 0 144.5 -12.5t93.5 -48.5q43 -43 43 -109q0 -89 -52 -141q-62 -62 -227 -62q-77 0 -170 17z" />
    <glyph glyph-name="Egrave" unicode="&#xc8;" horiz-adv-x="1251" 
d="M340 807h766v-129h-766v-549h862v-129h-1014v1434h990v-129h-838v-498zM653 1843l150 -287h-133l-205 287h188z" />
    <glyph glyph-name="Eacute" unicode="&#xc9;" horiz-adv-x="1251" 
d="M340 807h766v-129h-766v-549h862v-129h-1014v1434h990v-129h-838v-498zM719 1843h188l-202 -287h-134z" />
    <glyph glyph-name="Ecircumflex" unicode="&#xca;" horiz-adv-x="1251" 
d="M340 807h766v-129h-766v-549h862v-129h-1014v1434h990v-129h-838v-498zM571 1843h236l244 -270h-140l-223 215l-221 -215h-139z" />
    <glyph glyph-name="Edieresis" unicode="&#xcb;" horiz-adv-x="1251" 
d="M340 807h766v-129h-766v-549h862v-129h-1014v1434h990v-129h-838v-498zM410 1581v152h153v-152h-153zM827 1581v152h154v-152h-154z" />
    <glyph glyph-name="Igrave" unicode="&#xcc;" horiz-adv-x="528" 
d="M188 1434h152v-1434h-152v1434zM213 1843l149 -287h-133l-204 287h188z" />
    <glyph glyph-name="Iacute" unicode="&#xcd;" horiz-adv-x="528" 
d="M188 1434h152v-1434h-152v1434zM313 1843h189l-203 -287h-133z" />
    <glyph glyph-name="Icircumflex" unicode="&#xce;" horiz-adv-x="528" 
d="M188 1434h152v-1434h-152v1434zM152 1843h235l244 -270h-139l-224 215l-221 -215h-139z" />
    <glyph glyph-name="Idieresis" unicode="&#xcf;" horiz-adv-x="528" 
d="M188 1434h152v-1434h-152v1434zM-14 1581v152h153v-152h-153zM403 1581v152h154v-152h-154z" />
    <glyph glyph-name="Eth" unicode="&#xd0;" horiz-adv-x="1478" 
d="M190 1434h504q142 0 257.5 -31t219.5 -127q199 -199 199 -555q0 -192 -53.5 -336.5t-149.5 -232.5q-96 -89 -219.5 -120.5t-273.5 -31.5h-484v762h-190v102h190v570zM342 1305v-441h408v-102h-408v-633h285q60 0 100.5 3t105 14t121.5 40.5t103 75.5q72 72 110.5 192
t38.5 263q0 310 -157 461q-127 127 -359 127h-348z" />
    <glyph glyph-name="Ntilde" unicode="&#xd1;" horiz-adv-x="1507" 
d="M340 1206v-1206h-152v1434h174l805 -1207v1207h152v-1434h-172zM1032 1761h103q-28 -103 -82 -157q-52 -52 -125 -52q-56 0 -93.5 13t-78.5 41l-49 32l-12 8l-12 8t-11 6.5t-12 6t-11.5 4.5t-13.5 4.5t-14.5 3t-17.5 2t-19 0.5q-48 0 -76 -28q-30 -38 -33 -80h-102
q15 87 71 143q62 62 148 62q81 0 151 -49l50 -35q61 -45 129 -45q39 0 65 26q34 32 45 86z" />
    <glyph glyph-name="Ograve" unicode="&#xd2;" horiz-adv-x="1617" 
d="M803 1477q287 0 463 -164q217 -204 217 -596q0 -216 -62.5 -365.5t-150.5 -232.5q-169 -162 -457 -162q-307 0 -473 166q-18 16 -38.5 40.5t-52 78t-55.5 116t-41.5 158.5t-17.5 201q0 199 59 349t150 241q170 170 459 170zM811 1348q-203 0 -334 -117q-80 -73 -131 -205
t-51 -317q0 -158 42 -283.5t118 -204.5q135 -135 356 -135q213 0 350 137q162 162 162 490q0 348 -184 520q-125 115 -328 115zM774 1843l150 -287h-133l-205 287h188z" />
    <glyph glyph-name="Oacute" unicode="&#xd3;" horiz-adv-x="1617" 
d="M803 1477q287 0 463 -164q217 -204 217 -596q0 -216 -62.5 -365.5t-150.5 -232.5q-169 -162 -457 -162q-307 0 -473 166q-18 16 -38.5 40.5t-52 78t-55.5 116t-41.5 158.5t-17.5 201q0 199 59 349t150 241q170 170 459 170zM811 1348q-203 0 -334 -117q-80 -73 -131 -205
t-51 -317q0 -158 42 -283.5t118 -204.5q135 -135 356 -135q213 0 350 137q162 162 162 490q0 348 -184 520q-125 115 -328 115zM883 1843h188l-203 -287h-133z" />
    <glyph glyph-name="Ocircumflex" unicode="&#xd4;" horiz-adv-x="1617" 
d="M803 1477q287 0 463 -164q217 -204 217 -596q0 -216 -62.5 -365.5t-150.5 -232.5q-169 -162 -457 -162q-307 0 -473 166q-18 16 -38.5 40.5t-52 78t-55.5 116t-41.5 158.5t-17.5 201q0 199 59 349t150 241q170 170 459 170zM811 1348q-203 0 -334 -117q-80 -73 -131 -205
t-51 -317q0 -158 42 -283.5t118 -204.5q135 -135 356 -135q213 0 350 137q162 162 162 490q0 348 -184 520q-125 115 -328 115zM690 1843h236l243 -270h-139l-223 215l-221 -215h-140z" />
    <glyph glyph-name="Otilde" unicode="&#xd5;" horiz-adv-x="1617" 
d="M803 1477q287 0 463 -164q217 -204 217 -596q0 -216 -62.5 -365.5t-150.5 -232.5q-169 -162 -457 -162q-307 0 -473 166q-18 16 -38.5 40.5t-52 78t-55.5 116t-41.5 158.5t-17.5 201q0 199 59 349t150 241q170 170 459 170zM811 1348q-203 0 -334 -117q-80 -73 -131 -205
t-51 -317q0 -158 42 -283.5t118 -204.5q135 -135 356 -135q213 0 350 137q162 162 162 490q0 348 -184 520q-125 115 -328 115zM1090 1761h102q-28 -103 -82 -157q-52 -52 -125 -52q-56 0 -93.5 13t-78.5 41l-49 32l-12 8l-12 8t-11 6.5t-12 6t-11.5 4.5t-13.5 4.5t-14.5 3
t-17.5 2t-19 0.5q-48 0 -76 -28q-30 -38 -33 -80h-102q14 85 72 143q62 62 147 62q82 0 152 -49l49 -35q61 -45 129 -45q39 0 65 26q35 33 46 86z" />
    <glyph glyph-name="Odieresis" unicode="&#xd6;" horiz-adv-x="1617" 
d="M803 1477q287 0 463 -164q217 -204 217 -596q0 -216 -62.5 -365.5t-150.5 -232.5q-169 -162 -457 -162q-307 0 -473 166q-18 16 -38.5 40.5t-52 78t-55.5 116t-41.5 158.5t-17.5 201q0 199 59 349t150 241q170 170 459 170zM811 1348q-203 0 -334 -117q-80 -73 -131 -205
t-51 -317q0 -158 42 -283.5t118 -204.5q135 -135 356 -135q213 0 350 137q162 162 162 490q0 348 -184 520q-125 115 -328 115zM532 1581v152h154v-152h-154zM950 1581v152h154v-152h-154z" />
    <glyph glyph-name="multiply" unicode="&#xd7;" horiz-adv-x="1257" 
d="M158 313l401 402l-401 401l69 70l402 -402l401 402l70 -70l-402 -401l402 -402l-70 -69l-401 401l-402 -401z" />
    <glyph glyph-name="Oslash" unicode="&#xd8;" horiz-adv-x="1613" 
d="M82 -59l205 245q-154 206 -154 533q0 68 9.5 138.5t31 152t65 159.5t103.5 136q180 172 461 172q140 0 244.5 -37.5t197.5 -108.5l166 199l82 -62l-176 -211q164 -208 164 -561q0 -194 -57 -339.5t-154 -237.5q-177 -162 -473 -162q-139 0 -242 35t-199 119l-196 -236z
M387 305l764 916q-73 68 -153 97.5t-187 29.5q-205 0 -334 -119q-184 -169 -184 -500q0 -231 94 -424zM1217 1139l-766 -916q74 -70 159 -103.5t199 -33.5q215 0 346 131q84 84 125 218t41 298q0 225 -104 406z" />
    <glyph glyph-name="Ugrave" unicode="&#xd9;" horiz-adv-x="1423" 
d="M162 1434h151v-861q0 -80 4 -133t26 -121.5t63 -111.5q49 -54 131.5 -84.5t175.5 -30.5q95 0 174.5 29t128.5 82q57 63 75.5 153t18.5 217v861h152v-877q0 -67 -4 -116t-17.5 -114.5t-46 -123.5t-82.5 -107q-84 -80 -183 -106.5t-218 -26.5q-268 0 -406 129
q-82 78 -112.5 195.5t-30.5 269.5v877zM653 1843l150 -287h-133l-205 287h188z" />
    <glyph glyph-name="Uacute" unicode="&#xda;" horiz-adv-x="1423" 
d="M162 1434h151v-861q0 -80 4 -133t26 -121.5t63 -111.5q49 -54 131.5 -84.5t175.5 -30.5q95 0 174.5 29t128.5 82q57 63 75.5 153t18.5 217v861h152v-877q0 -67 -4 -116t-17.5 -114.5t-46 -123.5t-82.5 -107q-84 -80 -183 -106.5t-218 -26.5q-268 0 -406 129
q-82 78 -112.5 195.5t-30.5 269.5v877zM760 1843h188l-203 -287h-133z" />
    <glyph glyph-name="Ucircumflex" unicode="&#xdb;" horiz-adv-x="1423" 
d="M162 1434h151v-861q0 -80 4 -133t26 -121.5t63 -111.5q49 -54 131.5 -84.5t175.5 -30.5q95 0 174.5 29t128.5 82q57 63 75.5 153t18.5 217v861h152v-877q0 -67 -4 -116t-17.5 -114.5t-46 -123.5t-82.5 -107q-84 -80 -183 -106.5t-218 -26.5q-268 0 -406 129
q-82 78 -112.5 195.5t-30.5 269.5v877zM592 1843h235l244 -270h-139l-223 215l-222 -215h-139z" />
    <glyph glyph-name="Udieresis" unicode="&#xdc;" horiz-adv-x="1423" 
d="M162 1434h151v-861q0 -80 4 -133t26 -121.5t63 -111.5q49 -54 131.5 -84.5t175.5 -30.5q95 0 174.5 29t128.5 82q57 63 75.5 153t18.5 217v861h152v-877q0 -67 -4 -116t-17.5 -114.5t-46 -123.5t-82.5 -107q-84 -80 -183 -106.5t-218 -26.5q-268 0 -406 129
q-82 78 -112.5 195.5t-30.5 269.5v877zM426 1581v152h154v-152h-154zM844 1581v152h153v-152h-153z" />
    <glyph glyph-name="Yacute" unicode="&#xdd;" horiz-adv-x="1234" 
d="M618 750l429 684h180l-533 -822v-612h-151v612l-535 822h182zM678 1843h188l-202 -287h-134z" />
    <glyph glyph-name="Thorn" unicode="&#xde;" horiz-adv-x="1304" 
d="M188 1434h152v-275h405q54 0 85.5 -2t83.5 -9.5t96.5 -28.5t83.5 -54q129 -112 129 -315q0 -202 -117 -314q-118 -112 -365 -112h-401v-324h-152v1434zM340 1030v-577h375q183 0 258 63q94 75 94 227q0 81 -28 140.5t-70 91.5q-74 55 -254 55h-375z" />
    <glyph glyph-name="germandbls" unicode="&#xdf;" horiz-adv-x="1153" 
d="M162 0v940q0 67 2.5 107.5t11.5 99t32.5 106.5t61.5 88q105 109 310 109q184 0 278 -94q88 -88 88 -242q0 -121 -55 -199q-50 -76 -139 -100v-6q112 -23 188 -96q104 -102 104 -287q0 -212 -124 -332q-66 -66 -142.5 -87t-165.5 -21q-67 0 -149 14v106q56 -16 117 -16
q153 0 229 80q43 43 66.5 114t23.5 146q0 76 -25 138t-67 100q-86 75 -289 75h-55v103l61 -2q129 -7 207 59q72 64 72 195q0 122 -64 186q-62 62 -174 62q-115 0 -182 -64q-52 -52 -67 -126t-15 -198v-958h-139z" />
    <glyph glyph-name="agrave" unicode="&#xe0;" horiz-adv-x="1138" 
d="M274 741h-137q0 69 31.5 143t103.5 126q101 71 293 71q209 0 305 -96q54 -54 70 -113.5t14 -130.5l-12 -518v-9.5v-11v-10t0.5 -10.5t1.5 -10t2 -10.5t2.5 -9t3.5 -9.5t5 -8l6 -8q34 -40 94 -25v-102q-24 -8 -76 -8q-82 0 -121 39q-49 49 -45 135q-52 -87 -135 -133
q-102 -58 -244 -58q-170 0 -256 84q-86 80 -86 220q0 120 76 196q88 88 330 113l67 8q17 3 65.5 7.5t74.5 8.5q59 9 81 31q25 27 25 100q0 120 -63 179q-64 57 -197 57q-149 0 -213 -64q-31 -31 -47.5 -78.5t-18.5 -95.5zM805 444l4 107q-27 -25 -82 -35q-66 -11 -184 -22
l-41 -5q-156 -19 -211 -71q-49 -49 -49 -142q0 -86 53 -139q33 -37 73 -48t91 -11q135 0 223 72q57 47 87.5 124.5t35.5 169.5zM538 1434l144 -271h-123l-197 271h176z" />
    <glyph glyph-name="aacute" unicode="&#xe1;" horiz-adv-x="1138" 
d="M274 741h-137q0 69 31.5 143t103.5 126q101 71 293 71q209 0 305 -96q54 -54 70 -113.5t14 -130.5l-12 -518v-9.5v-11v-10t0.5 -10.5t1.5 -10t2 -10.5t2.5 -9t3.5 -9.5t5 -8l6 -8q34 -40 94 -25v-102q-24 -8 -76 -8q-82 0 -121 39q-49 49 -45 135q-52 -87 -135 -133
q-102 -58 -244 -58q-170 0 -256 84q-86 80 -86 220q0 120 76 196q88 88 330 113l67 8q17 3 65.5 7.5t74.5 8.5q59 9 81 31q25 27 25 100q0 120 -63 179q-64 57 -197 57q-149 0 -213 -64q-31 -31 -47.5 -78.5t-18.5 -95.5zM805 444l4 107q-27 -25 -82 -35q-66 -11 -184 -22
l-41 -5q-156 -19 -211 -71q-49 -49 -49 -142q0 -86 53 -139q33 -37 73 -48t91 -11q135 0 223 72q57 47 87.5 124.5t35.5 169.5zM612 1434h176l-194 -271h-125z" />
    <glyph glyph-name="acircumflex" unicode="&#xe2;" horiz-adv-x="1138" 
d="M274 741h-137q0 69 31.5 143t103.5 126q101 71 293 71q209 0 305 -96q54 -54 70 -113.5t14 -130.5l-12 -518v-9.5v-11v-10t0.5 -10.5t1.5 -10t2 -10.5t2.5 -9t3.5 -9.5t5 -8l6 -8q34 -40 94 -25v-102q-24 -8 -76 -8q-82 0 -121 39q-49 49 -45 135q-52 -87 -135 -133
q-102 -58 -244 -58q-170 0 -256 84q-86 80 -86 220q0 120 76 196q88 88 330 113l67 8q17 3 65.5 7.5t74.5 8.5q59 9 81 31q25 27 25 100q0 120 -63 179q-64 57 -197 57q-149 0 -213 -64q-31 -31 -47.5 -78.5t-18.5 -95.5zM805 444l4 107q-27 -25 -82 -35q-66 -11 -184 -22
l-41 -5q-156 -19 -211 -71q-49 -49 -49 -142q0 -86 53 -139q33 -37 73 -48t91 -11q135 0 223 72q57 47 87.5 124.5t35.5 169.5zM455 1434h236l243 -271h-139l-223 215l-221 -215h-140z" />
    <glyph glyph-name="atilde" unicode="&#xe3;" horiz-adv-x="1138" 
d="M274 741h-137q0 69 31.5 143t103.5 126q101 71 293 71q209 0 305 -96q54 -54 70 -113.5t14 -130.5l-12 -518v-9.5v-11v-10t0.5 -10.5t1.5 -10t2 -10.5t2.5 -9t3.5 -9.5t5 -8l6 -8q34 -40 94 -25v-102q-24 -8 -76 -8q-82 0 -121 39q-49 49 -45 135q-52 -87 -135 -133
q-102 -58 -244 -58q-170 0 -256 84q-86 80 -86 220q0 120 76 196q88 88 330 113l67 8q17 3 65.5 7.5t74.5 8.5q59 9 81 31q25 27 25 100q0 120 -63 179q-64 57 -197 57q-149 0 -213 -64q-31 -31 -47.5 -78.5t-18.5 -95.5zM805 444l4 107q-27 -25 -82 -35q-66 -11 -184 -22
l-41 -5q-156 -19 -211 -71q-49 -49 -49 -142q0 -86 53 -139q33 -37 73 -48t91 -11q135 0 223 72q57 47 87.5 124.5t35.5 169.5zM834 1434h98q-30 -106 -82 -158q-51 -51 -125 -51q-50 0 -85.5 12.5t-76.5 40.5l-49 33q-2 2 -12 8l-12.5 7.5t-10.5 6.5t-11.5 6.5t-11 5
t-12.5 4.5l-12.5 2.5t-15 2t-15.5 0.5q-46 0 -75 -29q-23 -26 -35 -80h-101q15 87 72 144q56 61 148 61q70 0 141 -49l49 -35q65 -45 119 -45q38 0 65 27q33 33 50 86z" />
    <glyph glyph-name="adieresis" unicode="&#xe4;" horiz-adv-x="1138" 
d="M274 741h-137q0 69 31.5 143t103.5 126q101 71 293 71q209 0 305 -96q54 -54 70 -113.5t14 -130.5l-12 -518v-9.5v-11v-10t0.5 -10.5t1.5 -10t2 -10.5t2.5 -9t3.5 -9.5t5 -8l6 -8q34 -40 94 -25v-102q-24 -8 -76 -8q-82 0 -121 39q-49 49 -45 135q-52 -87 -135 -133
q-102 -58 -244 -58q-170 0 -256 84q-86 80 -86 220q0 120 76 196q88 88 330 113l67 8q17 3 65.5 7.5t74.5 8.5q59 9 81 31q25 27 25 100q0 120 -63 179q-64 57 -197 57q-149 0 -213 -64q-31 -31 -47.5 -78.5t-18.5 -95.5zM805 444l4 107q-27 -25 -82 -35q-66 -11 -184 -22
l-41 -5q-156 -19 -211 -71q-49 -49 -49 -142q0 -86 53 -139q33 -37 73 -48t91 -11q135 0 223 72q57 47 87.5 124.5t35.5 169.5zM284 1262v172h148v-172h-148zM700 1262v172h146v-172h-146z" />
    <glyph glyph-name="aring" unicode="&#xe5;" horiz-adv-x="1138" 
d="M274 741h-137q0 69 31.5 143t103.5 126q101 71 293 71q209 0 305 -96q54 -54 70 -113.5t14 -130.5l-12 -518v-9.5v-11v-10t0.5 -10.5t1.5 -10t2 -10.5t2.5 -9t3.5 -9.5t5 -8l6 -8q34 -40 94 -25v-102q-24 -8 -76 -8q-82 0 -121 39q-49 49 -45 135q-52 -87 -135 -133
q-102 -58 -244 -58q-170 0 -256 84q-86 80 -86 220q0 120 76 196q88 88 330 113l67 8q17 3 65.5 7.5t74.5 8.5q59 9 81 31q25 27 25 100q0 120 -63 179q-64 57 -197 57q-149 0 -213 -64q-31 -31 -47.5 -78.5t-18.5 -95.5zM805 444l4 107q-27 -25 -82 -35q-66 -11 -184 -22
l-41 -5q-156 -19 -211 -71q-49 -49 -49 -142q0 -86 53 -139q33 -37 73 -48t91 -11q135 0 223 72q57 47 87.5 124.5t35.5 169.5zM369 1319q0 79 54.5 133.5t133.5 54.5t133.5 -54.5t54.5 -133.5q0 -80 -54.5 -134.5t-133.5 -54.5t-133.5 54.5t-54.5 134.5zM436 1319
q0 -49 34.5 -85t86.5 -36q49 0 84 35.5t35 85.5t-35 85.5t-84 35.5q-52 0 -86.5 -36t-34.5 -85z" />
    <glyph glyph-name="ae" unicode="&#xe6;" horiz-adv-x="1875" 
d="M279 741h-138q0 189 156 281q60 37 122 48t140 11q75 0 131.5 -9.5t110.5 -41.5q83 -49 123 -131q49 74 123 123q95 59 241 59q109 0 195.5 -27.5t156.5 -99.5q73 -77 100 -181.5t27 -258.5v-20h-811q0 -86 26.5 -179t86.5 -157q94 -97 242 -97q145 0 227 82
q56 56 82 158h137q-38 -146 -119 -227q-65 -65 -155.5 -90t-173.5 -25q-172 0 -279 70q-16 10 -35.5 25.5t-55.5 59t-60 95.5q-48 -108 -152 -176q-110 -68 -268 -68q-191 0 -283 88q-82 77 -82 219q0 64 16.5 110t61.5 91q60 57 139 80.5t199 36.5l78 8q24 3 61.5 6t63.5 6
q3 1 15.5 3.5t19 4.5t16.5 5.5t18 9t15 12.5q20 28 20 111q0 110 -61 164q-63 59 -197 59q-125 0 -190 -45q-86 -58 -90 -193zM815 479v72q-23 -20 -61 -29q-48 -14 -127 -20q-126 -11 -172 -19q-115 -18 -162 -65q-53 -53 -53 -135q0 -100 61 -158q57 -55 164 -55
q161 0 256 100q54 57 74 130t20 179zM958 596h666q0 187 -98 295q-88 88 -226 88q-155 0 -243 -96q-85 -94 -99 -287z" />
    <glyph glyph-name="ccedilla" unicode="&#xe7;" horiz-adv-x="1120" 
d="M903 365h135q-8 -83 -43 -165t-92 -139q-63 -63 -134 -82.5t-167 -19.5q-101 0 -181.5 22.5t-154.5 92.5q-74 71 -115.5 187.5t-41.5 268.5q0 134 34.5 241t98.5 175q118 135 352 135q205 0 317 -108q98 -98 117 -246h-135q-11 95 -72 164q-76 88 -217 88
q-145 0 -237 -92q-109 -109 -109 -352q0 -260 125 -385q89 -89 221 -89q133 0 207 78q38 41 62.5 103t29.5 123zM375 -475l29 92q47 -16 119 -16q118 0 153 37q23 23 23 63q0 42 -27 61q-38 33 -147 33h-64l25 86h57q87 0 144.5 -12.5t93.5 -48.5q43 -43 43 -109
q0 -89 -52 -141q-62 -62 -227 -62q-76 0 -170 17z" />
    <glyph glyph-name="egrave" unicode="&#xe8;" 
d="M924 301h135q-25 -126 -113 -221q-69 -71 -149.5 -96t-182.5 -25q-105 0 -189 23t-163 98q-153 148 -153 444q0 283 143 426q131 131 352 131q215 0 332 -123q77 -80 103.5 -188t31.5 -276h-815q8 -220 111 -330q93 -103 254 -103q133 0 215 78q16 14 29.5 32t22 32.5
t16 32t10.5 27.5t6.5 23.5t3.5 14.5zM602 979q-161 0 -250 -100q-43 -50 -69.5 -127.5t-26.5 -155.5h666q0 72 -26.5 161.5t-74.5 137.5q-80 84 -219 84zM569 1434l144 -271h-123l-197 271h176z" />
    <glyph glyph-name="eacute" unicode="&#xe9;" 
d="M924 301h135q-25 -126 -113 -221q-69 -71 -149.5 -96t-182.5 -25q-105 0 -189 23t-163 98q-153 148 -153 444q0 283 143 426q131 131 352 131q215 0 332 -123q77 -80 103.5 -188t31.5 -276h-815q8 -220 111 -330q93 -103 254 -103q133 0 215 78q16 14 29.5 32t22 32.5
t16 32t10.5 27.5t6.5 23.5t3.5 14.5zM602 979q-161 0 -250 -100q-43 -50 -69.5 -127.5t-26.5 -155.5h666q0 72 -26.5 161.5t-74.5 137.5q-80 84 -219 84zM653 1434h176l-194 -271h-125z" />
    <glyph glyph-name="ecircumflex" unicode="&#xea;" 
d="M924 301h135q-25 -126 -113 -221q-69 -71 -149.5 -96t-182.5 -25q-105 0 -189 23t-163 98q-153 148 -153 444q0 283 143 426q131 131 352 131q215 0 332 -123q77 -80 103.5 -188t31.5 -276h-815q8 -220 111 -330q93 -103 254 -103q133 0 215 78q16 14 29.5 32t22 32.5
t16 32t10.5 27.5t6.5 23.5t3.5 14.5zM602 979q-161 0 -250 -100q-43 -50 -69.5 -127.5t-26.5 -155.5h666q0 72 -26.5 161.5t-74.5 137.5q-80 84 -219 84zM498 1434h236l243 -271h-139l-223 215l-221 -215h-140z" />
    <glyph glyph-name="edieresis" unicode="&#xeb;" 
d="M924 301h135q-25 -126 -113 -221q-69 -71 -149.5 -96t-182.5 -25q-105 0 -189 23t-163 98q-153 148 -153 444q0 283 143 426q131 131 352 131q215 0 332 -123q77 -80 103.5 -188t31.5 -276h-815q8 -220 111 -330q93 -103 254 -103q133 0 215 78q16 14 29.5 32t22 32.5
t16 32t10.5 27.5t6.5 23.5t3.5 14.5zM602 979q-161 0 -250 -100q-43 -50 -69.5 -127.5t-26.5 -155.5h666q0 72 -26.5 161.5t-74.5 137.5q-80 84 -219 84zM307 1262v172h148v-172h-148zM723 1262v172h145v-172h-145z" />
    <glyph glyph-name="igrave" unicode="&#xec;" horiz-adv-x="456" 
d="M162 1040h143v-1040h-143v1040zM170 1434l143 -271h-123l-196 271h176z" />
    <glyph glyph-name="iacute" unicode="&#xed;" horiz-adv-x="456" 
d="M162 1040h143v-1040h-143v1040zM279 1434h176l-195 -271h-125z" />
    <glyph glyph-name="icircumflex" unicode="&#xee;" horiz-adv-x="456" 
d="M162 1040h143v-1040h-143v1040zM119 1434h235l244 -271h-139l-223 215l-222 -215h-139z" />
    <glyph glyph-name="idieresis" unicode="&#xef;" horiz-adv-x="456" 
d="M162 1040h143v-1040h-143v1040zM-43 1262v172h147v-172h-147zM373 1262v172h145v-172h-145z" />
    <glyph glyph-name="eth" unicode="&#xf0;" horiz-adv-x="1222" 
d="M303 1413l23 82q213 -37 354 -100l180 106l47 -57l-147 -88q107 -60 164 -117q63 -59 104 -135t58 -159.5t22.5 -144.5t5.5 -136q0 -192 -37.5 -335.5t-134.5 -240.5q-129 -129 -350 -129q-205 0 -330 117q-65 60 -109 162.5t-44 248.5q0 127 35 238.5t104 183.5
q125 131 354 131q159 0 264 -73q92 -67 135 -181h5q-11 236 -177 402q-67 68 -161 110l-289 -178l-47 58l254 157q-135 56 -283 78zM604 938q-141 0 -223 -80q-63 -59 -93 -163t-30 -206q0 -103 28.5 -195.5t82.5 -146.5q86 -86 239 -86q155 0 244 89q57 57 85 154.5
t28 201.5q0 232 -115 342q-90 90 -246 90z" />
    <glyph glyph-name="ntilde" unicode="&#xf1;" horiz-adv-x="1161" 
d="M162 1040h141v-151q50 81 143 137q96 55 205 55q164 0 254 -90q59 -59 76.5 -128t17.5 -161v-702h-141v682q0 37 -1 58t-7 60.5t-23.5 71t-44.5 54.5q-62 53 -159 53q-122 0 -213 -84q-107 -107 -107 -313v-582h-141v1040zM878 1434h99q-30 -106 -82 -158
q-51 -51 -125 -51q-50 0 -85.5 12.5t-76.5 40.5l-49 33q-2 2 -12 8l-12.5 7.5t-10.5 6.5t-11.5 6.5t-11 5t-12.5 4.5l-12.5 2.5t-15 2t-15.5 0.5q-46 0 -75 -29q-23 -26 -35 -80h-101q15 87 72 144q56 61 148 61q70 0 141 -49l49 -35q65 -45 119 -45q38 0 65 27q31 31 49 86
z" />
    <glyph glyph-name="ograve" unicode="&#xf2;" horiz-adv-x="1212" 
d="M606 1081q213 0 340 -120q83 -78 120.5 -197.5t37.5 -243.5q0 -292 -166 -446q-72 -67 -152 -91t-178 -24q-216 0 -336 115q-67 56 -115 168.5t-48 277.5q0 284 157 441q120 120 340 120zM606 981q-145 0 -231 -86q-119 -119 -119 -373q0 -261 127 -381q87 -80 223 -80
q137 0 221 78q127 117 127 383q0 244 -108 363q-92 96 -240 96zM569 1434l144 -271h-123l-197 271h176z" />
    <glyph glyph-name="oacute" unicode="&#xf3;" horiz-adv-x="1212" 
d="M606 1081q213 0 340 -120q83 -78 120.5 -197.5t37.5 -243.5q0 -292 -166 -446q-72 -67 -152 -91t-178 -24q-216 0 -336 115q-67 56 -115 168.5t-48 277.5q0 284 157 441q120 120 340 120zM606 981q-145 0 -231 -86q-119 -119 -119 -373q0 -261 127 -381q87 -80 223 -80
q137 0 221 78q127 117 127 383q0 244 -108 363q-92 96 -240 96zM664 1434h176l-195 -271h-125z" />
    <glyph glyph-name="ocircumflex" unicode="&#xf4;" horiz-adv-x="1212" 
d="M606 1081q213 0 340 -120q83 -78 120.5 -197.5t37.5 -243.5q0 -292 -166 -446q-72 -67 -152 -91t-178 -24q-216 0 -336 115q-67 56 -115 168.5t-48 277.5q0 284 157 441q120 120 340 120zM606 981q-145 0 -231 -86q-119 -119 -119 -373q0 -261 127 -381q87 -80 223 -80
q137 0 221 78q127 117 127 383q0 244 -108 363q-92 96 -240 96zM493 1434h236l243 -271h-139l-223 215l-221 -215h-140z" />
    <glyph glyph-name="otilde" unicode="&#xf5;" horiz-adv-x="1212" 
d="M606 1081q213 0 340 -120q83 -78 120.5 -197.5t37.5 -243.5q0 -292 -166 -446q-72 -67 -152 -91t-178 -24q-216 0 -336 115q-67 56 -115 168.5t-48 277.5q0 284 157 441q120 120 340 120zM606 981q-145 0 -231 -86q-119 -119 -119 -373q0 -261 127 -381q87 -80 223 -80
q137 0 221 78q127 117 127 383q0 244 -108 363q-92 96 -240 96zM879 1434h98q-30 -106 -82 -158q-51 -51 -125 -51q-50 0 -85.5 12.5t-76.5 40.5l-49 33q-2 2 -12 8l-12.5 7.5t-10.5 6.5t-11.5 6.5t-11 5t-12.5 4.5l-12.5 2.5t-15 2t-15.5 0.5q-46 0 -75 -29
q-23 -26 -35 -80h-100q15 88 71 144q56 61 148 61q70 0 141 -49l49 -35q65 -45 119 -45q38 0 65 27q33 33 50 86z" />
    <glyph glyph-name="odieresis" unicode="&#xf6;" horiz-adv-x="1212" 
d="M606 1081q213 0 340 -120q83 -78 120.5 -197.5t37.5 -243.5q0 -292 -166 -446q-72 -67 -152 -91t-178 -24q-216 0 -336 115q-67 56 -115 168.5t-48 277.5q0 284 157 441q120 120 340 120zM606 981q-145 0 -231 -86q-119 -119 -119 -373q0 -261 127 -381q87 -80 223 -80
q137 0 221 78q127 117 127 383q0 244 -108 363q-92 96 -240 96zM323 1262v172h148v-172h-148zM739 1262v172h146v-172h-146z" />
    <glyph glyph-name="divide" unicode="&#xf7;" horiz-adv-x="1228" 
d="M102 618v99h1024v-99h-1024zM614 420q47 0 78 -31t31 -78t-31 -77.5t-78 -30.5t-77.5 30.5t-30.5 77.5t30.5 78t77.5 31zM614 1133q47 0 78 -31t31 -78t-31 -78t-78 -31t-77.5 31t-30.5 78t30.5 78t77.5 31z" />
    <glyph glyph-name="oslash" unicode="&#xf8;" horiz-adv-x="1181" 
d="M82 -6l121 143q-109 160 -109 383q0 283 158 441q128 120 340 120q103 0 175.5 -22t143.5 -80l113 133l76 -65l-119 -142q109 -174 109 -385q0 -292 -166 -446q-72 -67 -152 -91t-178 -24q-102 0 -177.5 23t-146.5 81l-112 -135zM295 246l536 639q-96 96 -239 96
q-146 0 -232 -86q-118 -111 -118 -373q0 -152 53 -276zM889 797l-537 -637q85 -99 240 -99q132 0 221 78q54 46 90.5 142.5t36.5 246.5q0 149 -51 269z" />
    <glyph glyph-name="ugrave" unicode="&#xf9;" horiz-adv-x="1161" 
d="M999 0h-141v150h-4q-58 -94 -135 -138q-86 -53 -225 -53q-154 0 -242 88q-52 51 -71 120t-19 171v702h141v-647q0 -102 12.5 -164.5t55.5 -105.5q62 -62 164 -62q134 0 231 99q57 61 74.5 132t17.5 167v581h141v-1040zM528 1434l144 -271h-123l-197 271h176z" />
    <glyph glyph-name="uacute" unicode="&#xfa;" horiz-adv-x="1161" 
d="M999 0h-141v150h-4q-58 -94 -135 -138q-86 -53 -225 -53q-154 0 -242 88q-52 51 -71 120t-19 171v702h141v-647q0 -102 12.5 -164.5t55.5 -105.5q62 -62 164 -62q134 0 231 99q57 61 74.5 132t17.5 167v581h141v-1040zM616 1434h177l-195 -271h-125z" />
    <glyph glyph-name="ucircumflex" unicode="&#xfb;" horiz-adv-x="1161" 
d="M999 0h-141v150h-4q-58 -94 -135 -138q-86 -53 -225 -53q-154 0 -242 88q-52 51 -71 120t-19 171v702h141v-647q0 -102 12.5 -164.5t55.5 -105.5q62 -62 164 -62q134 0 231 99q57 61 74.5 132t17.5 167v581h141v-1040zM469 1434h236l243 -271h-139l-223 215l-221 -215
h-140z" />
    <glyph glyph-name="udieresis" unicode="&#xfc;" horiz-adv-x="1161" 
d="M999 0h-141v150h-4q-58 -94 -135 -138q-86 -53 -225 -53q-154 0 -242 88q-52 51 -71 120t-19 171v702h141v-647q0 -102 12.5 -164.5t55.5 -105.5q62 -62 164 -62q134 0 231 99q57 61 74.5 132t17.5 167v581h141v-1040zM307 1262v172h148v-172h-148zM723 1262v172h145
v-172h-145z" />
    <glyph glyph-name="yacute" unicode="&#xfd;" horiz-adv-x="980" 
d="M182 -377v107q34 -9 80 -9q64 0 100 31q32 28 60 115l43 133l-438 1040h170l344 -882l299 882h141l-428 -1198q-40 -108 -63 -141q-13 -21 -29 -35q-58 -53 -164 -53q-57 0 -115 10zM561 1434h176l-195 -271h-124z" />
    <glyph glyph-name="thorn" unicode="&#xfe;" horiz-adv-x="1218" 
d="M162 1434h135v-547h4q47 72 129 133q93 61 221 61q186 0 307 -112q152 -152 152 -439q0 -170 -50 -298t-150.5 -200.5t-241.5 -72.5q-140 0 -232 57q-81 51 -133 144v-539h-141v1813zM295 516q0 -239 119 -358q93 -97 231 -97q117 0 201 84q55 58 86 156t31 225
q0 250 -123 373q-80 80 -209 80q-119 0 -211 -82q-125 -113 -125 -381z" />
    <glyph glyph-name="ydieresis" unicode="&#xff;" horiz-adv-x="980" 
d="M182 -377v107q34 -9 80 -9q64 0 100 31q32 28 60 115l43 133l-438 1040h170l344 -882l299 882h141l-428 -1198q-40 -108 -63 -141q-13 -21 -29 -35q-58 -53 -164 -53q-57 0 -115 10zM236 1262v172h147v-172h-147zM651 1262v172h146v-172h-146z" />
    <glyph glyph-name="Amacron" unicode="&#x100;" horiz-adv-x="1271" 
d="M324 412l-154 -412h-164l545 1434h170l545 -1434h-166l-152 412h-624zM367 541h536l-268 747zM319 1593v101h633v-101h-633z" />
    <glyph glyph-name="amacron" unicode="&#x101;" horiz-adv-x="1138" 
d="M274 741h-137q0 69 31.5 143t103.5 126q101 71 293 71q209 0 305 -96q54 -54 70 -113.5t14 -130.5l-12 -518v-9.5v-11v-10t0.5 -10.5t1.5 -10t2 -10.5t2.5 -9t3.5 -9.5t5 -8l6 -8q34 -40 94 -25v-102q-24 -8 -76 -8q-82 0 -121 39q-49 49 -45 135q-52 -87 -135 -133
q-102 -58 -244 -58q-170 0 -256 84q-86 80 -86 220q0 120 76 196q88 88 330 113l67 8q17 3 65.5 7.5t74.5 8.5q59 9 81 31q25 27 25 100q0 120 -63 179q-64 57 -197 57q-149 0 -213 -64q-31 -31 -47.5 -78.5t-18.5 -95.5zM805 444l4 107q-27 -25 -82 -35q-66 -11 -184 -22
l-41 -5q-156 -19 -211 -71q-49 -49 -49 -142q0 -86 53 -139q33 -37 73 -48t91 -11q135 0 223 72q57 47 87.5 124.5t35.5 169.5zM242 1270v94h632v-94h-632z" />
    <glyph glyph-name="Abreve" unicode="&#x102;" horiz-adv-x="1271" 
d="M324 412l-154 -412h-164l545 1434h170l545 -1434h-166l-152 412h-624zM367 541h536l-268 747zM848 1817h129q-19 -112 -84 -177q-94 -94 -252 -94q-170 0 -264 94q-66 70 -84 177h129q9 -74 49 -117q56 -58 164 -58t164 58q40 43 49 117z" />
    <glyph glyph-name="abreve" unicode="&#x103;" horiz-adv-x="1138" 
d="M274 741h-137q0 69 31.5 143t103.5 126q101 71 293 71q209 0 305 -96q54 -54 70 -113.5t14 -130.5l-12 -518v-9.5v-11v-10t0.5 -10.5t1.5 -10t2 -10.5t2.5 -9t3.5 -9.5t5 -8l6 -8q34 -40 94 -25v-102q-24 -8 -76 -8q-82 0 -121 39q-49 49 -45 135q-52 -87 -135 -133
q-102 -58 -244 -58q-170 0 -256 84q-86 80 -86 220q0 120 76 196q88 88 330 113l67 8q17 3 65.5 7.5t74.5 8.5q59 9 81 31q25 27 25 100q0 120 -63 179q-64 57 -197 57q-149 0 -213 -64q-31 -31 -47.5 -78.5t-18.5 -95.5zM805 444l4 107q-27 -25 -82 -35q-66 -11 -184 -22
l-41 -5q-156 -19 -211 -71q-49 -49 -49 -142q0 -86 53 -139q33 -37 73 -48t91 -11q135 0 223 72q57 47 87.5 124.5t35.5 169.5zM791 1434h118q-14 -105 -83 -174q-87 -82 -238 -82t-238 82q-70 70 -84 174h119q10 -76 55 -121q49 -47 148 -47q98 0 147 47q46 46 56 121z" />
    <glyph glyph-name="Aogonek" unicode="&#x104;" horiz-adv-x="1271" 
d="M324 412l-154 -412h-164l545 1434h170l545 -1434q-69 -42 -107 -92q-45 -58 -45 -133q0 -57 33 -86q27 -27 80 -27q50 0 86 31q42 38 45 102h117q-8 -98 -78 -168q-70 -65 -187 -65q-114 0 -178 57q-59 51 -59 139q0 83 47 148q36 52 100 94h-20l-152 412h-624zM367 541
h536l-268 747z" />
    <glyph glyph-name="aogonek" unicode="&#x105;" horiz-adv-x="1138" 
d="M274 741h-137q0 69 31.5 143t103.5 126q101 71 293 71q209 0 305 -96q54 -54 70 -113.5t14 -130.5l-12 -518q0 -75 23 -100q13 -15 38.5 -21.5t53.5 0.5v-102q-72 -46 -109 -94q-45 -59 -45 -131q0 -57 33 -86q27 -27 80 -27q50 0 86 31q42 38 45 102h117
q-8 -98 -78 -168q-70 -65 -187 -65q-114 0 -178 57q-59 51 -59 139q0 83 47 148q36 52 100 94q-47 20 -71 66q-26 48 -23 100q-53 -83 -135 -133q-101 -58 -244 -58q-170 0 -256 84q-86 80 -86 220q0 120 76 196q88 88 330 113l67 8q17 3 65.5 7.5t74.5 8.5q59 9 81 31
q25 27 25 100q0 120 -63 179q-64 57 -197 57q-149 0 -213 -64q-31 -31 -47.5 -78.5t-18.5 -95.5zM805 444l4 107q-27 -25 -82 -35q-66 -11 -184 -22l-41 -5q-44 -4 -73 -8.5t-71 -21t-67 -41.5q-49 -49 -49 -133q0 -93 53 -148q59 -59 164 -59q139 0 223 72
q57 47 87.5 124.5t35.5 169.5z" />
    <glyph glyph-name="Cacute" unicode="&#x106;" horiz-adv-x="1501" 
d="M1245 467h154q-12 -104 -55 -197t-111 -161q-90 -90 -196.5 -121t-235.5 -31q-63 0 -116 6.5t-115.5 24t-122.5 55t-113 92.5q-104 109 -151.5 262.5t-47.5 321.5t46.5 323.5t154.5 260.5q182 174 459 174q126 0 246.5 -37.5t201.5 -114.5q58 -58 95.5 -140.5
t43.5 -180.5h-153q-11 130 -103 229q-111 115 -319 115q-215 0 -342 -125q-168 -165 -168 -482q0 -155 42.5 -296.5t133.5 -229.5q129 -129 338 -129q187 0 309 113q114 114 125 268zM872 1843h189l-203 -287h-133z" />
    <glyph glyph-name="cacute" unicode="&#x107;" horiz-adv-x="1120" 
d="M903 365h135q-8 -83 -43 -165t-92 -139q-63 -63 -134 -82.5t-167 -19.5q-101 0 -181.5 22.5t-154.5 92.5q-74 71 -115.5 187.5t-41.5 268.5q0 134 34.5 241t98.5 175q118 135 352 135q205 0 317 -108q98 -98 117 -246h-135q-11 95 -72 164q-76 88 -217 88
q-145 0 -237 -92q-109 -109 -109 -352q0 -260 125 -385q89 -89 221 -89q133 0 207 78q38 41 62.5 103t29.5 123zM664 1434h176l-195 -271h-124z" />
    <glyph glyph-name="Ccircumflex" unicode="&#x108;" horiz-adv-x="1501" 
d="M1245 467h154q-12 -104 -55 -197t-111 -161q-90 -90 -196.5 -121t-235.5 -31q-63 0 -116 6.5t-115.5 24t-122.5 55t-113 92.5q-104 109 -151.5 262.5t-47.5 321.5t46.5 323.5t154.5 260.5q182 174 459 174q126 0 246.5 -37.5t201.5 -114.5q58 -58 95.5 -140.5
t43.5 -180.5h-153q-11 130 -103 229q-111 115 -319 115q-215 0 -342 -125q-168 -165 -168 -482q0 -155 42.5 -296.5t133.5 -229.5q129 -129 338 -129q187 0 309 113q114 114 125 268zM694 1843h236l244 -270h-140l-223 215l-221 -215h-139z" />
    <glyph glyph-name="ccircumflex" unicode="&#x109;" horiz-adv-x="1120" 
d="M903 365h135q-8 -83 -43 -165t-92 -139q-63 -63 -134 -82.5t-167 -19.5q-101 0 -181.5 22.5t-154.5 92.5q-74 71 -115.5 187.5t-41.5 268.5q0 134 34.5 241t98.5 175q118 135 352 135q205 0 317 -108q98 -98 117 -246h-135q-11 95 -72 164q-76 88 -217 88
q-145 0 -237 -92q-109 -109 -109 -352q0 -260 125 -385q89 -89 221 -89q133 0 207 78q38 41 62.5 103t29.5 123zM489 1434h236l243 -271h-139l-223 215l-221 -215h-140z" />
    <glyph glyph-name="Ccaron" unicode="&#x10c;" horiz-adv-x="1501" 
d="M1245 467h154q-12 -104 -55 -197t-111 -161q-90 -90 -196.5 -121t-235.5 -31q-63 0 -116 6.5t-115.5 24t-122.5 55t-113 92.5q-104 109 -151.5 262.5t-47.5 321.5t46.5 323.5t154.5 260.5q182 174 459 174q126 0 246.5 -37.5t201.5 -114.5q58 -58 95.5 -140.5
t43.5 -180.5h-153q-11 130 -103 229q-111 115 -319 115q-215 0 -342 -125q-168 -165 -168 -482q0 -155 42.5 -296.5t133.5 -229.5q129 -129 338 -129q187 0 309 113q114 114 125 268zM430 1843h152l223 -229l221 229h152l-248 -287h-252z" />
    <glyph glyph-name="ccaron" unicode="&#x10d;" horiz-adv-x="1120" 
d="M903 365h135q-8 -83 -43 -165t-92 -139q-63 -63 -134 -82.5t-167 -19.5q-101 0 -181.5 22.5t-154.5 92.5q-74 71 -115.5 187.5t-41.5 268.5q0 134 34.5 241t98.5 175q118 135 352 135q205 0 317 -108q98 -98 117 -246h-135q-11 95 -72 164q-76 88 -217 88
q-145 0 -237 -92q-109 -109 -109 -352q0 -260 125 -385q89 -89 221 -89q133 0 207 78q38 41 62.5 103t29.5 123zM725 1163h-236l-244 271h140l221 -215l223 215h139z" />
    <glyph glyph-name="Dcaron" unicode="&#x10e;" horiz-adv-x="1474" 
d="M188 1434h502q142 0 257.5 -31t219.5 -127q199 -199 199 -555q0 -192 -53.5 -336.5t-149.5 -232.5q-96 -89 -219.5 -120.5t-273.5 -31.5h-482v1434zM340 1305v-1176h285q61 0 102.5 3t106 14t121 40.5t102.5 75.5q72 72 110.5 192t38.5 263q0 310 -157 461
q-76 76 -166.5 101.5t-194.5 25.5h-348zM307 1843h152l223 -229l221 229h152l-248 -287h-252z" />
    <glyph glyph-name="dcaron" unicode="&#x10f;" horiz-adv-x="1220" 
d="M918 1434h141v-1434h-135v154h-4q-40 -85 -123 -140q-89 -55 -228 -55q-194 0 -307 113q-153 150 -153 454q0 290 145 435q120 120 317 120q133 0 226 -59q76 -48 121 -133v545zM258 528q0 -115 22.5 -209t88.5 -163q86 -95 219 -95q129 0 213 84q63 63 94 164t31 211
q0 256 -129 379q-86 80 -211 80q-119 0 -203 -74q-60 -56 -92.5 -156t-32.5 -221zM1147 1434h164v-236q0 -66 -13 -112t-47 -80q-40 -40 -104 -56v94q43 14 61 48q21 38 21 104v45h-82v193z" />
    <glyph glyph-name="Dcroat" unicode="&#x110;" horiz-adv-x="1478" 
d="M190 1434h504q142 0 257.5 -31t219.5 -127q199 -199 199 -555q0 -192 -53.5 -336.5t-149.5 -232.5q-96 -89 -219.5 -120.5t-273.5 -31.5h-484v762h-190v102h190v570zM342 1305v-441h408v-102h-408v-633h285q60 0 100.5 3t105 14t121.5 40.5t103 75.5q72 72 110.5 192
t38.5 263q0 310 -157 461q-127 127 -359 127h-348z" />
    <glyph glyph-name="dslash" unicode="&#x111;" horiz-adv-x="1228" 
d="M918 1434h141v-138h170v-94h-170v-1202h-135v154h-4q-40 -85 -123 -140q-89 -55 -228 -55q-194 0 -307 113q-153 150 -153 454q0 290 145 435q120 120 321 120q133 0 222 -59q76 -48 121 -133v313h-373v94h373v138zM260 514q0 -240 111 -358q86 -95 219 -95q129 0 213 84
q63 63 94 164t31 211q0 256 -129 379q-86 80 -211 80q-119 0 -203 -74q-42 -39 -70 -97.5t-38.5 -122t-13.5 -100t-3 -71.5z" />
    <glyph glyph-name="Emacron" unicode="&#x112;" horiz-adv-x="1251" 
d="M340 807h766v-129h-766v-549h862v-129h-1014v1434h990v-129h-838v-498zM379 1593v101h633v-101h-633z" />
    <glyph glyph-name="emacron" unicode="&#x113;" 
d="M924 301h135q-25 -126 -113 -221q-69 -71 -149.5 -96t-182.5 -25q-105 0 -189 23t-163 98q-153 148 -153 444q0 283 143 426q131 131 352 131q215 0 332 -123q77 -80 103.5 -188t31.5 -276h-815q8 -220 111 -330q93 -103 254 -103q133 0 215 78q16 14 29.5 32t22 32.5
t16 32t10.5 27.5t6.5 23.5t3.5 14.5zM602 979q-161 0 -250 -100q-43 -50 -69.5 -127.5t-26.5 -155.5h666q0 72 -26.5 161.5t-74.5 137.5q-80 84 -219 84zM285 1270v94h633v-94h-633z" />
    <glyph glyph-name="Edotaccent" unicode="&#x116;" horiz-adv-x="1251" 
d="M340 807h766v-129h-766v-549h862v-129h-1014v1434h990v-129h-838v-498zM614 1581v152h154v-152h-154z" />
    <glyph glyph-name="edotaccent" unicode="&#x117;" 
d="M924 301h135q-25 -126 -113 -221q-69 -71 -149.5 -96t-182.5 -25q-105 0 -189 23t-163 98q-153 148 -153 444q0 283 143 426q131 131 352 131q215 0 332 -123q77 -80 103.5 -188t31.5 -276h-815q8 -220 111 -330q93 -103 254 -103q133 0 215 78q16 14 29.5 32t22 32.5
t16 32t10.5 27.5t6.5 23.5t3.5 14.5zM602 979q-161 0 -250 -100q-43 -50 -69.5 -127.5t-26.5 -155.5h666q0 72 -26.5 161.5t-74.5 137.5q-80 84 -219 84zM532 1262v172h152v-172h-152z" />
    <glyph glyph-name="Eogonek" unicode="&#x118;" horiz-adv-x="1253" 
d="M340 807h766v-129h-766v-549h864v-129h-313q-69 -42 -107 -92q-45 -58 -45 -133q0 -57 33 -86q27 -27 80 -27q50 0 86 31q42 38 45 102h117q-8 -98 -78 -168q-70 -65 -186 -65q-115 0 -179 57q-59 51 -59 139q0 83 47 148q36 52 100 94h-557v1434h992v-129h-840v-498z
" />
    <glyph glyph-name="eogonek" unicode="&#x119;" 
d="M924 301h135q-31 -139 -123 -231q-29 -27 -100 -78q-13 -10 -47 -33t-48 -37q-63 -63 -63 -147q0 -57 33 -86q27 -27 80 -27q50 0 86 31q42 38 45 102h116q-8 -99 -77 -168q-70 -65 -187 -65q-114 0 -178 57q-59 51 -59 139q0 60 24 109q21 49 72 92q-129 -2 -214 23.5
t-157 97.5q-153 148 -153 444q0 283 143 426q131 131 352 131q215 0 332 -123q77 -80 103.5 -188t31.5 -276h-815q8 -220 111 -330q93 -103 254 -103q133 0 215 78q16 14 29.5 32t22 32.5t16 32t10.5 27.5t6.5 23.5t3.5 14.5zM602 979q-161 0 -250 -100
q-43 -50 -69.5 -127.5t-26.5 -155.5h666q0 72 -26.5 161.5t-74.5 137.5q-80 84 -219 84z" />
    <glyph glyph-name="Ecaron" unicode="&#x11a;" horiz-adv-x="1251" 
d="M340 807h766v-129h-766v-549h862v-129h-1014v1434h990v-129h-838v-498zM317 1843h152l223 -229l221 229h152l-248 -287h-252z" />
    <glyph glyph-name="ecaron" unicode="&#x11b;" 
d="M924 301h135q-25 -126 -113 -221q-69 -71 -149.5 -96t-182.5 -25q-105 0 -189 23t-163 98q-153 148 -153 444q0 283 143 426q131 131 352 131q215 0 332 -123q77 -80 103.5 -188t31.5 -276h-815q8 -220 111 -330q93 -103 254 -103q133 0 215 78q16 14 29.5 32t22 32.5
t16 32t10.5 27.5t6.5 23.5t3.5 14.5zM602 979q-161 0 -250 -100q-43 -50 -69.5 -127.5t-26.5 -155.5h666q0 72 -26.5 161.5t-74.5 137.5q-80 84 -219 84zM725 1163h-236l-244 271h140l221 -215l223 215h139z" />
    <glyph glyph-name="Gcircumflex" unicode="&#x11c;" horiz-adv-x="1529" 
d="M807 735h588v-735h-127v252h-4q-64 -130 -170 -207q-123 -88 -332 -88q-141 0 -252 37.5t-203 134.5q-28 28 -55.5 68.5t-63 112.5t-57.5 180.5t-22 234.5q0 203 57 350.5t143 233.5q172 172 486 172q268 0 424 -144q59 -55 99 -138.5t52 -176.5h-151q-22 136 -99 213
q-55 56 -140.5 86.5t-186.5 30.5q-136 0 -227.5 -41.5t-143.5 -98.5q-49 -51 -83 -123t-47.5 -145.5t-18.5 -124t-5 -96.5q0 -155 43.5 -283t120.5 -209q130 -145 354 -145q199 0 322 123q76 72 110.5 179.5t34.5 217.5h-446v129zM684 1843h236l243 -270h-139l-223 215
l-221 -215h-140z" />
    <glyph glyph-name="gcircumflex" unicode="&#x11d;" horiz-adv-x="1212" 
d="M172 -127h141q19 -61 80 -113q68 -51 197 -51q147 0 223 70q59 52 77.5 123t18.5 159v121q-49 -100 -133 -151q-76 -47 -201 -47q-100 0 -180.5 27t-148.5 104q-137 149 -137 417q0 286 137 429q118 120 319 120q134 0 221 -57q83 -52 127 -137h5v153h133v-991
q0 -102 -24 -184t-91 -148q-114 -112 -334 -112q-238 0 -344 106q-68 68 -86 162zM596 86q58 0 112 22.5t91 59.5q40 38 67 98t37 123t12.5 95.5t2.5 58.5q0 102 -25.5 195t-79.5 149q-92 92 -235 92q-133 0 -216 -86q-104 -104 -104 -344q0 -251 111 -369q46 -46 107 -70
t120 -24zM469 1434h236l243 -271h-139l-223 215l-221 -215h-140z" />
    <glyph glyph-name="Gbreve" unicode="&#x11e;" horiz-adv-x="1529" 
d="M807 735h588v-735h-127v252h-4q-64 -130 -170 -207q-123 -88 -332 -88q-141 0 -252 37.5t-203 134.5q-28 28 -55.5 68.5t-63 112.5t-57.5 180.5t-22 234.5q0 203 57 350.5t143 233.5q172 172 486 172q268 0 424 -144q59 -55 99 -138.5t52 -176.5h-151q-22 136 -99 213
q-55 56 -140.5 86.5t-186.5 30.5q-136 0 -227.5 -41.5t-143.5 -98.5q-49 -51 -83 -123t-47.5 -145.5t-18.5 -124t-5 -96.5q0 -155 43.5 -283t120.5 -209q130 -145 354 -145q199 0 322 123q76 72 110.5 179.5t34.5 217.5h-446v129zM995 1817h129q-19 -112 -84 -177
q-94 -94 -252 -94q-170 0 -264 94q-66 70 -84 177h129q9 -74 49 -117q56 -58 164 -58t164 58q40 43 49 117z" />
    <glyph glyph-name="gbreve" unicode="&#x11f;" horiz-adv-x="1212" 
d="M172 -127h141q19 -61 80 -113q68 -51 197 -51q147 0 223 70q59 52 77.5 123t18.5 159v121q-49 -100 -133 -151q-76 -47 -201 -47q-100 0 -180.5 27t-148.5 104q-137 149 -137 417q0 286 137 429q118 120 319 120q134 0 221 -57q83 -52 127 -137h5v153h133v-991
q0 -102 -24 -184t-91 -148q-114 -112 -334 -112q-238 0 -344 106q-68 68 -86 162zM596 86q58 0 112 22.5t91 59.5q40 38 67 98t37 123t12.5 95.5t2.5 58.5q0 102 -25.5 195t-79.5 149q-92 92 -235 92q-133 0 -216 -86q-104 -104 -104 -344q0 -251 111 -369q46 -46 107 -70
t120 -24zM770 1434h118q-14 -105 -83 -174q-87 -82 -238 -82t-238 82q-70 70 -84 174h119q10 -76 55 -121q49 -47 148 -47q98 0 147 47q46 46 56 121z" />
    <glyph glyph-name="Gcommaaccent" unicode="&#x122;" horiz-adv-x="1529" 
d="M807 735h588v-735h-127v252h-4q-64 -130 -170 -207q-123 -88 -332 -88q-141 0 -252 37.5t-203 134.5q-28 28 -55.5 68.5t-63 112.5t-57.5 180.5t-22 234.5q0 203 57 350.5t143 233.5q172 172 486 172q268 0 424 -144q59 -55 99 -138.5t52 -176.5h-151q-22 136 -99 213
q-55 56 -140.5 86.5t-186.5 30.5q-136 0 -227.5 -41.5t-143.5 -98.5q-49 -51 -83 -123t-47.5 -145.5t-18.5 -124t-5 -96.5q0 -155 43.5 -283t120.5 -209q130 -145 354 -145q199 0 322 123q76 72 110.5 179.5t34.5 217.5h-446v129zM684 -123h162v-180q0 -109 -51 -160
q-43 -43 -111 -51v94q34 6 55 27q27 27 27 80v24h-82v166z" />
    <glyph glyph-name="gcommaaccent" unicode="&#x123;" horiz-adv-x="1212" 
d="M172 -127h141q19 -61 80 -113q68 -51 197 -51q147 0 223 70q59 52 77.5 123t18.5 159v121q-49 -100 -133 -151q-76 -47 -201 -47q-100 0 -180.5 27t-148.5 104q-137 149 -137 417q0 286 137 429q118 120 319 120q134 0 221 -57q83 -52 127 -137h5v153h133v-991
q0 -102 -24 -184t-91 -148q-114 -112 -334 -112q-238 0 -344 106q-68 68 -86 162zM596 86q58 0 112 22.5t91 59.5q40 38 67 98t37 123t12.5 95.5t2.5 58.5q0 102 -25.5 195t-79.5 149q-92 92 -235 92q-133 0 -216 -86q-104 -104 -104 -344q0 -251 111 -369q46 -46 107 -70
t120 -24zM645 1147h-162v180q0 108 52 160q43 43 110 51v-94q-34 -6 -55 -27q-27 -27 -27 -80v-24h82v-166z" />
    <glyph glyph-name="Hcircumflex" unicode="&#x124;" horiz-adv-x="1449" 
d="M340 692v-692h-152v1434h152v-613h770v613h152v-1434h-152v692h-770zM606 1843h236l243 -270h-139l-223 215l-221 -215h-140z" />
    <glyph glyph-name="hcircumflex" unicode="&#x125;" horiz-adv-x="1159" 
d="M162 1434h141v-545q43 77 127 131q96 61 223 61q166 0 256 -90q31 -31 50 -66.5t26.5 -77t9.5 -70.5t2 -75v-702h-141v647v64q0 137 -59 200q-61 68 -170 68q-137 0 -228 -94q-43 -45 -65.5 -105t-26.5 -100t-4 -98v-582h-141v1434zM362 1762h236l243 -271h-139l-223 215
l-221 -215h-140z" />
    <glyph glyph-name="Imacron" unicode="&#x12a;" horiz-adv-x="528" 
d="M193 1434h151v-1434h-151v1434zM-43 1593v101h633v-101h-633z" />
    <glyph glyph-name="imacron" unicode="&#x12b;" horiz-adv-x="456" 
d="M162 1040h143v-1040h-143v1040zM-78 1270v94h633v-94h-633z" />
    <glyph glyph-name="Iogonek" unicode="&#x12e;" horiz-adv-x="497" 
d="M166 1434h151v-1434q-67 -41 -106 -92q-45 -58 -45 -133q0 -57 33 -86q27 -27 80 -27q50 0 86 31q42 38 45 102h116q-8 -99 -77 -168q-70 -65 -191 -65q-110 0 -174 57q-59 53 -59 143q0 79 47 144q36 52 100 94h-6v1434z" />
    <glyph glyph-name="iogonek" unicode="&#x12f;" horiz-adv-x="436" 
d="M141 1040h142v-1040q-69 -42 -107 -92q-45 -58 -45 -133q0 -57 33 -86q27 -27 80 -27q50 0 86 31q42 38 45 102h117q-8 -98 -78 -168q-70 -65 -187 -65q-114 0 -178 57q-59 51 -59 143q0 78 47 144q42 56 104 94v1040zM139 1262v172h146v-172h-146z" />
    <glyph glyph-name="Idot" unicode="&#x130;" horiz-adv-x="528" 
d="M188 1434h152v-1434h-152v1434zM184 1581v152h154v-152h-154z" />
    <glyph glyph-name="dotlessi" unicode="&#x131;" horiz-adv-x="466" 
d="M162 1040h143v-1040h-143v1040z" />
    <glyph glyph-name="Jcircumflex" unicode="&#x134;" horiz-adv-x="1056" 
d="M61 461h152v-12q0 -46 2.5 -80.5t10.5 -78.5t27.5 -80.5t49.5 -62.5q61 -61 180 -61q109 0 176 64q51 50 67.5 123t16.5 173v988h152v-967q0 -276 -115 -399q-106 -111 -305 -111q-193 0 -293 98q-121 121 -121 398v8zM694 1843h236l244 -270h-140l-223 215l-221 -215
h-139z" />
    <glyph glyph-name="jcircumflex" unicode="&#x135;" horiz-adv-x="462" 
d="M166 1040h141v-1138q0 -171 -59 -230q-57 -57 -185 -57q-36 0 -77 6v105h8q91 0 131 32q26 24 33.5 58t7.5 92v1132zM129 1434h236l243 -271h-139l-223 215l-221 -215h-140z" />
    <glyph glyph-name="Kcommaaccent" unicode="&#x136;" horiz-adv-x="1341" 
d="M340 684l758 750h202l-598 -588l639 -846h-198l-551 745l-252 -245v-500h-152v1434h152v-750zM645 -123h162v-180q0 -109 -51 -160q-43 -43 -111 -51v94q34 6 55 27q27 27 27 80v24h-82v166z" />
    <glyph glyph-name="kcommaaccent" unicode="&#x137;" horiz-adv-x="1044" 
d="M303 522l533 518h170l-412 -399l450 -641h-163l-387 553l-191 -186v-367h-141v1434h141v-912zM512 -123h162v-180q0 -109 -51 -160q-43 -43 -111 -51v94q34 6 55 27q27 27 27 80v24h-82v166z" />
    <glyph glyph-name="Lacute" unicode="&#x139;" horiz-adv-x="1085" 
d="M1085 129v-129h-897v1434h152v-1305h745zM381 1843h188l-202 -287h-134z" />
    <glyph glyph-name="lacute" unicode="&#x13a;" horiz-adv-x="464" 
d="M162 1434h141v-1434h-141v1434zM279 1762h176l-195 -271h-124z" />
    <glyph glyph-name="Lcommaaccent" unicode="&#x13b;" horiz-adv-x="1085" 
d="M1085 129v-129h-897v1434h152v-1305h745zM563 -123h162v-180q0 -109 -51 -160q-43 -43 -111 -51v94q34 6 55 27q27 27 27 80v24h-82v166z" />
    <glyph glyph-name="lcommaaccent" unicode="&#x13c;" horiz-adv-x="464" 
d="M162 1434h141v-1434h-141v1434zM150 -123h161v-180q0 -109 -51 -160q-43 -43 -110 -51v94q34 6 55 27q26 26 26 80v24h-81v166z" />
    <glyph glyph-name="Lcaron" unicode="&#x13d;" horiz-adv-x="1085" 
d="M1085 129v-129h-897v1434h152v-1305h745zM553 1434h164v-236q0 -66 -13 -112t-47 -80q-40 -40 -104 -56v94q43 14 61 48q21 38 21 104v45h-82v193z" />
    <glyph glyph-name="lcaron" unicode="&#x13e;" horiz-adv-x="462" 
d="M162 1434h141v-1434h-141v1434zM389 1434h164v-236q0 -67 -12.5 -112.5t-46.5 -79.5q-39 -39 -105 -56v94q44 15 62 48q20 37 20 104v45h-82v193z" />
    <glyph glyph-name="Lslash" unicode="&#x141;" horiz-adv-x="1071" 
d="M1071 129v-129h-899v340l-172 -166v119l172 168v973h152v-834l479 473v-119l-479 -475v-350h747z" />
    <glyph glyph-name="lslash" unicode="&#x142;" horiz-adv-x="522" 
d="M190 1434h142v-533l231 160v-117l-231 -160v-784h-142v700l-231 -157v116l231 158v617z" />
    <glyph glyph-name="Nacute" unicode="&#x143;" horiz-adv-x="1507" 
d="M340 1206v-1206h-152v1434h174l805 -1207v1207h152v-1434h-172zM821 1843h189l-203 -287h-133z" />
    <glyph glyph-name="nacute" unicode="&#x144;" horiz-adv-x="1161" 
d="M162 1040h141v-151q50 81 143 137q96 55 205 55q164 0 254 -90q59 -59 76.5 -128t17.5 -161v-702h-141v682q0 37 -1 58t-7 60.5t-23.5 71t-44.5 54.5q-62 53 -159 53q-122 0 -213 -84q-107 -107 -107 -313v-582h-141v1040zM653 1434h176l-195 -271h-124z" />
    <glyph glyph-name="Ncommaaccent" unicode="&#x145;" horiz-adv-x="1507" 
d="M340 1206v-1206h-152v1434h174l805 -1207v1207h152v-1434h-172zM672 -123h162v-180q0 -108 -52 -160q-43 -43 -110 -51v94q34 6 55 27q27 27 27 80v24h-82v166z" />
    <glyph glyph-name="ncommaaccent" unicode="&#x146;" horiz-adv-x="1161" 
d="M162 1040h141v-151q50 81 143 137q96 55 205 55q164 0 254 -90q59 -59 76.5 -128t17.5 -161v-702h-141v682q0 37 -1 58t-7 60.5t-23.5 71t-44.5 54.5q-62 53 -159 53q-122 0 -213 -84q-107 -107 -107 -313v-582h-141v1040zM502 -123h162v-180q0 -108 -52 -160
q-43 -43 -110 -51v94q34 6 55 27q27 27 27 80v24h-82v166z" />
    <glyph glyph-name="Ncaron" unicode="&#x147;" horiz-adv-x="1507" 
d="M340 1206v-1206h-152v1434h174l805 -1207v1207h152v-1434h-172zM379 1843h151l224 -229l221 229h151l-247 -287h-252z" />
    <glyph glyph-name="ncaron" unicode="&#x148;" horiz-adv-x="1161" 
d="M162 1040h141v-151q50 81 143 137q96 55 205 55q164 0 254 -90q59 -59 76.5 -128t17.5 -161v-702h-141v682q0 37 -1 58t-7 60.5t-23.5 71t-44.5 54.5q-62 53 -159 53q-122 0 -213 -84q-107 -107 -107 -313v-582h-141v1040zM746 1163h-236l-244 271h140l221 -215l223 215
h139z" />
    <glyph glyph-name="Omacron" unicode="&#x14c;" horiz-adv-x="1617" 
d="M803 1477q287 0 463 -164q217 -204 217 -596q0 -216 -62.5 -365.5t-150.5 -232.5q-169 -162 -457 -162q-307 0 -473 166q-18 16 -38.5 40.5t-52 78t-55.5 116t-41.5 158.5t-17.5 201q0 199 59 349t150 241q170 170 459 170zM811 1348q-203 0 -334 -117q-80 -73 -131 -205
t-51 -317q0 -158 42 -283.5t118 -204.5q135 -135 356 -135q213 0 350 137q162 162 162 490q0 348 -184 520q-125 115 -328 115zM492 1593v101h632v-101h-632z" />
    <glyph glyph-name="omacron" unicode="&#x14d;" horiz-adv-x="1212" 
d="M606 1081q213 0 340 -120q83 -78 120.5 -197.5t37.5 -243.5q0 -292 -166 -446q-72 -67 -152 -91t-178 -24q-216 0 -336 115q-67 56 -115 168.5t-48 277.5q0 284 157 441q120 120 340 120zM606 981q-145 0 -231 -86q-119 -119 -119 -373q0 -261 127 -381q87 -80 223 -80
q137 0 221 78q127 117 127 383q0 244 -108 363q-92 96 -240 96zM281 1270v94h632v-94h-632z" />
    <glyph glyph-name="Obreve" unicode="&#x14e;" horiz-adv-x="1617" 
d="M803 1477q287 0 463 -164q217 -204 217 -596q0 -216 -62.5 -365.5t-150.5 -232.5q-169 -162 -457 -162q-307 0 -473 166q-18 16 -38.5 40.5t-52 78t-55.5 116t-41.5 158.5t-17.5 201q0 199 59 349t150 241q170 170 459 170zM811 1348q-203 0 -334 -117q-80 -73 -131 -205
t-51 -317q0 -158 42 -283.5t118 -204.5q135 -135 356 -135q213 0 350 137q162 162 162 490q0 348 -184 520q-125 115 -328 115zM1036 1817h129q-19 -112 -84 -177q-94 -94 -252 -94q-170 0 -264 94q-66 70 -84 177h129q9 -74 49 -117q56 -58 164 -58t164 58q40 43 49 117z
" />
    <glyph glyph-name="obreve" unicode="&#x14f;" horiz-adv-x="1212" 
d="M606 1081q213 0 340 -120q83 -78 120.5 -197.5t37.5 -243.5q0 -292 -166 -446q-72 -67 -152 -91t-178 -24q-216 0 -336 115q-67 56 -115 168.5t-48 277.5q0 284 157 441q120 120 340 120zM606 981q-145 0 -231 -86q-119 -119 -119 -373q0 -261 127 -381q87 -80 223 -80
q137 0 221 78q127 117 127 383q0 244 -108 363q-92 96 -240 96zM811 1434h118q-14 -105 -83 -174q-87 -82 -238 -82t-238 82q-70 70 -84 174h119q10 -76 55 -121q49 -47 148 -47q98 0 147 47q46 46 56 121z" />
    <glyph glyph-name="Ohungarumlaut" unicode="&#x150;" horiz-adv-x="1617" 
d="M803 1477q287 0 463 -164q217 -204 217 -596q0 -216 -62.5 -365.5t-150.5 -232.5q-169 -162 -457 -162q-307 0 -473 166q-18 16 -38.5 40.5t-52 78t-55.5 116t-41.5 158.5t-17.5 201q0 199 59 349t150 241q170 170 459 170zM811 1348q-203 0 -334 -117q-80 -73 -131 -205
t-51 -317q0 -158 42 -283.5t118 -204.5q135 -135 356 -135q213 0 350 137q162 162 162 490q0 348 -184 520q-125 115 -328 115zM696 1843h176l-194 -287h-125zM989 1843h176l-194 -287h-125z" />
    <glyph glyph-name="ohungarumlaut" unicode="&#x151;" horiz-adv-x="1212" 
d="M606 1081q213 0 340 -120q83 -78 120.5 -197.5t37.5 -243.5q0 -292 -166 -446q-72 -67 -152 -91t-178 -24q-216 0 -336 115q-67 56 -115 168.5t-48 277.5q0 284 157 441q120 120 340 120zM606 981q-145 0 -231 -86q-119 -119 -119 -373q0 -261 127 -381q87 -80 223 -80
q137 0 221 78q127 117 127 383q0 244 -108 363q-92 96 -240 96zM533 1434h176l-195 -271h-125zM826 1434h176l-195 -271h-125z" />
    <glyph glyph-name="OE" unicode="&#x152;" horiz-adv-x="2387" 
d="M1323 1434h991v-129h-839v-498h766v-129h-766v-549h864v-129h-1016v219q-77 -127 -205 -194q-137 -68 -327 -68q-136 0 -243 37t-200 125q-213 213 -213 596q0 387 201 588q174 174 473 174q180 0 303 -64q143 -75 211 -209v230zM809 1348q-207 0 -342 -129
q-65 -62 -105.5 -159t-53.5 -179t-13 -164t13 -164t53.5 -179t105.5 -159q135 -129 342 -129t342 129q65 62 105.5 159t53.5 179t13 164t-13 164t-53.5 179t-105.5 159q-135 129 -342 129z" />
    <glyph glyph-name="oe" unicode="&#x153;" horiz-adv-x="2021" 
d="M1765 303h138q-29 -139 -125 -231q-67 -66 -146.5 -89.5t-179.5 -23.5q-165 0 -276 70q-100 69 -152 180q-51 -121 -160 -184q-112 -66 -260 -66q-217 0 -340 123q-74 74 -114.5 191.5t-40.5 250.5q0 134 42.5 253.5t120.5 191.5q119 112 338 112q157 0 258 -63
q110 -67 156 -182q53 108 158 180q104 65 262 65q211 0 338 -127q43 -45 71 -101.5t40 -119t16 -110.5t4 -109v-20h-815q0 -217 112 -334q94 -99 246 -99q145 0 227 82q65 65 82 160zM1098 596h665q0 187 -98 295q-88 88 -221 88q-159 0 -248 -96q-84 -91 -98 -287zM258 520
q0 -261 119 -375q91 -84 227 -84q142 0 230 84q118 118 118 375t-118 375q-88 84 -230 84q-136 0 -227 -84q-119 -114 -119 -375z" />
    <glyph glyph-name="Racute" unicode="&#x154;" horiz-adv-x="1421" 
d="M188 0v1434h609q136 0 223.5 -21.5t153.5 -89.5q98 -102 98 -266q0 -155 -86 -254q-64 -73 -164 -103v-4q73 -17 125 -69q51 -51 65.5 -114.5t14.5 -152.5l4 -161q0 -1 0.5 -16.5t1 -19.5t1.5 -19t2.5 -22t4.5 -21.5t7 -24.5t9 -23.5t12.5 -26.5t16.5 -26h-164
q-41 67 -47 186l-6 152q-1 10 -2 35.5t-2 35t-3 30.5t-5 31.5t-8 27.5t-12 28t-17 23.5t-23 23.5q-72 58 -204 58h-453v-631h-152zM340 1305v-545h442q75 0 141.5 19.5t106.5 56.5q36 36 58 92.5t22 120.5q0 131 -74 190q-35 30 -89.5 46t-88 18t-84.5 2h-434zM760 1843h188
l-203 -287h-133z" />
    <glyph glyph-name="racute" unicode="&#x155;" horiz-adv-x="702" 
d="M702 1061v-115h-20q-99 0 -162 -22t-114 -76q-61 -61 -82 -134t-21 -177v-537h-141v1040h141v-206h4q39 96 129 161q97 66 244 66h22zM459 1434h176l-195 -271h-124z" />
    <glyph glyph-name="Rcommaaccent" unicode="&#x156;" horiz-adv-x="1421" 
d="M188 0v1434h609q136 0 223.5 -21.5t153.5 -89.5q98 -102 98 -266q0 -155 -86 -254q-64 -73 -164 -103v-4q73 -17 125 -69q51 -51 65.5 -114.5t14.5 -152.5l4 -161q0 -1 0.5 -16.5t1 -19.5t1.5 -19t2.5 -22t4.5 -21.5t7 -24.5t9 -23.5t12.5 -26.5t16.5 -26h-164
q-41 67 -47 186l-6 152q-1 10 -2 35.5t-2 35t-3 30.5t-5 31.5t-8 27.5t-12 28t-17 23.5t-23 23.5q-72 58 -204 58h-453v-631h-152zM340 1305v-545h442q75 0 141.5 19.5t106.5 56.5q36 36 58 92.5t22 120.5q0 131 -74 190q-35 30 -89.5 46t-88 18t-84.5 2h-434zM645 -123h162
v-180q0 -109 -51 -160q-43 -43 -111 -51v94q34 6 55 27q27 27 27 80v24h-82v166z" />
    <glyph glyph-name="rcommaaccent" unicode="&#x157;" horiz-adv-x="702" 
d="M702 1061v-115h-20q-99 0 -162 -22t-114 -76q-61 -61 -82 -134t-21 -177v-537h-141v1040h141v-206h4q39 96 129 161q97 66 244 66h22zM150 -123h161v-180q0 -109 -51 -160q-43 -43 -110 -51v94q34 6 55 27q26 26 26 80v24h-81v166z" />
    <glyph glyph-name="Rcaron" unicode="&#x158;" horiz-adv-x="1421" 
d="M188 0v1434h609q136 0 223.5 -21.5t153.5 -89.5q98 -102 98 -266q0 -155 -86 -254q-64 -73 -164 -103v-4q73 -17 125 -69q51 -51 65.5 -114.5t14.5 -152.5l4 -161q0 -1 0.5 -16.5t1 -19.5t1.5 -19t2.5 -22t4.5 -21.5t7 -24.5t9 -23.5t12.5 -26.5t16.5 -26h-164
q-41 67 -47 186l-6 152q-1 10 -2 35.5t-2 35t-3 30.5t-5 31.5t-8 27.5t-12 28t-17 23.5t-23 23.5q-72 58 -204 58h-453v-631h-152zM340 1305v-545h442q75 0 141.5 19.5t106.5 56.5q36 36 58 92.5t22 120.5q0 131 -74 190q-35 30 -89.5 46t-88 18t-84.5 2h-434zM338 1843h151
l224 -229l221 229h151l-247 -287h-252z" />
    <glyph glyph-name="rcaron" unicode="&#x159;" horiz-adv-x="702" 
d="M702 1061v-115h-20q-99 0 -162 -22t-114 -76q-61 -61 -82 -134t-21 -177v-537h-141v1040h141v-206h4q39 96 129 161q97 66 244 66h22zM443 1163h-236l-244 271h140l221 -215l223 215h139z" />
    <glyph glyph-name="Sacute" unicode="&#x15a;" horiz-adv-x="1341" 
d="M109 453h153q-2 -150 94 -246q58 -59 148.5 -88t185.5 -29q92 0 173 24t130 72q80 80 80 193q0 100 -63 170q-43 47 -123.5 74.5t-151.5 40.5l-143 26q-57 11 -96.5 20.5t-93.5 27.5t-97 44.5t-74 61.5q-84 96 -84 227q0 107 47 189.5t125 132.5q133 86 359 86
q244 0 391 -131q19 -19 38.5 -44t49.5 -93t37 -144h-152q-12 124 -94 199q-91 84 -282 84q-26 0 -58.5 -3t-88 -16.5t-93.5 -36.5q-57 -35 -88 -91t-31 -122q0 -84 55 -143q67 -70 254 -104l136 -27q134 -27 224.5 -60t151.5 -90q105 -97 105 -264q0 -192 -123 -309
q-137 -123 -405 -123q-313 0 -463 150q-56 56 -94.5 143t-38.5 199zM729 1843h189l-203 -287h-133z" />
    <glyph glyph-name="sacute" unicode="&#x15b;" horiz-adv-x="1013" 
d="M82 303h143q0 -104 72 -172q70 -70 225 -70q127 0 195 56q32 26 50.5 69.5t18.5 92.5q0 73 -55 120q-43 39 -172 68l-115 25q-65 16 -99.5 25.5t-81 30.5t-73.5 48q-69 69 -69 180q0 73 34.5 138t94.5 106q93 61 258 61q198 0 307 -102q85 -81 88 -209h-137q0 91 -57 148
q-64 61 -203 61q-130 0 -191 -61q-47 -47 -47 -127q0 -71 54 -119q47 -39 165 -68l109 -24q7 -2 43 -11t47 -12t40 -12t44 -16t35 -17.5t35 -22.5q92 -69 92 -198q0 -84 -33.5 -151t-89.5 -107q-97 -74 -293 -74q-223 0 -334 111q-42 45 -68 108.5t-32 124.5zM545 1434h176
l-195 -271h-124z" />
    <glyph glyph-name="Scircumflex" unicode="&#x15c;" horiz-adv-x="1341" 
d="M109 453h153q-2 -150 94 -246q58 -59 148.5 -88t185.5 -29q92 0 173 24t130 72q80 80 80 193q0 100 -63 170q-43 47 -123.5 74.5t-151.5 40.5l-143 26q-57 11 -96.5 20.5t-93.5 27.5t-97 44.5t-74 61.5q-84 96 -84 227q0 107 47 189.5t125 132.5q133 86 359 86
q244 0 391 -131q19 -19 38.5 -44t49.5 -93t37 -144h-152q-12 124 -94 199q-91 84 -282 84q-26 0 -58.5 -3t-88 -16.5t-93.5 -36.5q-57 -35 -88 -91t-31 -122q0 -84 55 -143q67 -70 254 -104l136 -27q134 -27 224.5 -60t151.5 -90q105 -97 105 -264q0 -192 -123 -309
q-137 -123 -405 -123q-313 0 -463 150q-56 56 -94.5 143t-38.5 199zM571 1843h236l244 -270h-140l-223 215l-221 -215h-139z" />
    <glyph glyph-name="scircumflex" unicode="&#x15d;" horiz-adv-x="1013" 
d="M82 303h143q0 -104 72 -172q70 -70 225 -70q127 0 195 56q32 26 50.5 69.5t18.5 92.5q0 73 -55 120q-43 39 -172 68l-115 25q-65 16 -99.5 25.5t-81 30.5t-73.5 48q-69 69 -69 180q0 73 34.5 138t94.5 106q93 61 258 61q198 0 307 -102q85 -81 88 -209h-137q0 91 -57 148
q-64 61 -203 61q-130 0 -191 -61q-47 -47 -47 -127q0 -71 54 -119q47 -39 165 -68l109 -24q7 -2 43 -11t47 -12t40 -12t44 -16t35 -17.5t35 -22.5q92 -69 92 -198q0 -84 -33.5 -151t-89.5 -107q-97 -74 -293 -74q-223 0 -334 111q-42 45 -68 108.5t-32 124.5zM387 1434h236
l243 -271h-139l-223 215l-221 -215h-140z" />
    <glyph glyph-name="Scedilla" unicode="&#x15e;" horiz-adv-x="1341" 
d="M109 453h153q-2 -150 94 -246q58 -59 148.5 -88t185.5 -29q92 0 173 24t130 72q80 80 80 193q0 100 -63 170q-43 47 -123.5 74.5t-151.5 40.5l-143 26q-57 11 -96.5 20.5t-93.5 27.5t-97 44.5t-74 61.5q-84 96 -84 227q0 107 47 189.5t125 132.5q133 86 359 86
q244 0 391 -131q19 -19 38.5 -44t49.5 -93t37 -144h-152q-12 124 -94 199q-91 84 -282 84q-26 0 -58.5 -3t-88 -16.5t-93.5 -36.5q-57 -35 -88 -91t-31 -122q0 -84 55 -143q67 -70 254 -104l136 -27q134 -27 224.5 -60t151.5 -90q105 -97 105 -264q0 -192 -123 -309
q-137 -123 -405 -123q-313 0 -463 150q-56 56 -94.5 143t-38.5 199zM457 -475l28 92q47 -16 119 -16q119 0 154 37q22 22 22 63q0 42 -26 61q-38 33 -148 33h-63l24 86h58q87 0 144 -12.5t93 -48.5q43 -43 43 -109q0 -90 -51 -141q-62 -62 -227 -62q-77 0 -170 17z" />
    <glyph glyph-name="scedilla" unicode="&#x15f;" horiz-adv-x="1013" 
d="M82 303h143q0 -104 72 -172q70 -70 225 -70q127 0 195 56q32 26 50.5 69.5t18.5 92.5q0 73 -55 120q-43 39 -172 68l-115 25q-65 16 -99.5 25.5t-81 30.5t-73.5 48q-69 69 -69 180q0 73 34.5 138t94.5 106q93 61 258 61q198 0 307 -102q85 -81 88 -209h-137q0 91 -57 148
q-64 61 -203 61q-130 0 -191 -61q-47 -47 -47 -127q0 -71 54 -119q47 -39 165 -68l109 -24q7 -2 43 -11t47 -12t40 -12t44 -16t35 -17.5t35 -22.5q92 -69 92 -198q0 -84 -33.5 -151t-89.5 -107q-97 -74 -293 -74q-223 0 -334 111q-42 45 -68 108.5t-32 124.5zM272 -475
l29 92q47 -16 119 -16q118 0 153 37q23 23 23 63q0 42 -27 61q-38 33 -147 33h-64l25 86h57q87 0 144.5 -12.5t93.5 -48.5q43 -43 43 -109q0 -89 -52 -141q-62 -62 -227 -62q-76 0 -170 17z" />
    <glyph glyph-name="Scaron" unicode="&#x160;" horiz-adv-x="1341" 
d="M109 453h153q-2 -150 94 -246q58 -59 148.5 -88t185.5 -29q92 0 173 24t130 72q80 80 80 193q0 100 -63 170q-43 47 -123.5 74.5t-151.5 40.5l-143 26q-57 11 -96.5 20.5t-93.5 27.5t-97 44.5t-74 61.5q-84 96 -84 227q0 107 47 189.5t125 132.5q133 86 359 86
q244 0 391 -131q19 -19 38.5 -44t49.5 -93t37 -144h-152q-12 124 -94 199q-91 84 -282 84q-26 0 -58.5 -3t-88 -16.5t-93.5 -36.5q-57 -35 -88 -91t-31 -122q0 -84 55 -143q67 -70 254 -104l136 -27q134 -27 224.5 -60t151.5 -90q105 -97 105 -264q0 -192 -123 -309
q-137 -123 -405 -123q-313 0 -463 150q-56 56 -94.5 143t-38.5 199zM297 1843h152l223 -229l221 229h151l-247 -287h-252z" />
    <glyph glyph-name="scaron" unicode="&#x161;" horiz-adv-x="1013" 
d="M82 303h143q0 -104 72 -172q70 -70 225 -70q127 0 195 56q32 26 50.5 69.5t18.5 92.5q0 73 -55 120q-43 39 -172 68l-115 25q-65 16 -99.5 25.5t-81 30.5t-73.5 48q-69 69 -69 180q0 73 34.5 138t94.5 106q93 61 258 61q198 0 307 -102q85 -81 88 -209h-137q0 91 -57 148
q-64 61 -203 61q-130 0 -191 -61q-47 -47 -47 -127q0 -71 54 -119q47 -39 165 -68l109 -24q7 -2 43 -11t47 -12t40 -12t44 -16t35 -17.5t35 -22.5q92 -69 92 -198q0 -84 -33.5 -151t-89.5 -107q-97 -74 -293 -74q-223 0 -334 111q-42 45 -68 108.5t-32 124.5zM623 1163h-236
l-244 271h140l221 -215l223 215h139z" />
    <glyph glyph-name="Tcedilla" unicode="&#x162;" horiz-adv-x="1126" 
d="M487 1305h-475v129h1102v-129h-475v-1305h-152v1305zM334 -475l28 92q47 -16 119 -16q119 0 154 37q22 22 22 63q0 42 -26 61q-38 33 -148 33h-63l24 86h58q87 0 144 -12.5t93 -48.5q43 -43 43 -109q0 -90 -51 -141q-62 -62 -227 -62q-77 0 -170 17z" />
    <glyph glyph-name="tcedilla" unicode="&#x163;" horiz-adv-x="598" 
d="M12 1040h195v312h141v-312h223v-102h-223v-754q0 -51 21 -78q24 -26 82 -26q55 0 120 22v-102q-72 -29 -163 -29q-115 0 -156 52q-45 52 -45 159v756h-195v102zM160 -475l29 92q47 -16 119 -16q118 0 153 37q23 23 23 63q0 42 -27 61q-38 33 -147 33h-64l25 86h57
q87 0 144.5 -12.5t93.5 -48.5q43 -43 43 -109q0 -89 -52 -141q-62 -62 -227 -62q-76 0 -170 17z" />
    <glyph glyph-name="Tcaron" unicode="&#x164;" horiz-adv-x="1126" 
d="M487 1305h-475v129h1102v-129h-475v-1305h-152v1305zM188 1843h152l223 -229l221 229h152l-248 -287h-252z" />
    <glyph glyph-name="tcaron" unicode="&#x165;" horiz-adv-x="708" 
d="M12 1040h195v312h141v-312h223v-102h-223v-754q0 -51 21 -78q24 -26 82 -26q55 0 120 22v-102q-72 -29 -163 -29q-115 0 -156 52q-45 52 -45 159v756h-195v102zM635 1434h164v-236q0 -66 -13 -112t-47 -80q-40 -40 -104 -56v94q43 14 61 48q21 38 21 104v45h-82v193z" />
    <glyph glyph-name="Utilde" unicode="&#x168;" horiz-adv-x="1423" 
d="M162 1434h151v-861q0 -80 4 -133t26 -121.5t63 -111.5q49 -54 131.5 -84.5t175.5 -30.5q95 0 174.5 29t128.5 82q57 63 75.5 153t18.5 217v861h152v-877q0 -67 -4 -116t-17.5 -114.5t-46 -123.5t-82.5 -107q-84 -80 -183 -106.5t-218 -26.5q-268 0 -406 129
q-82 78 -112.5 195.5t-30.5 269.5v877zM989 1761h103q-28 -103 -82 -157q-52 -52 -125 -52q-56 0 -93.5 13t-78.5 41l-49 32l-12 8l-12 8t-11 6.5t-12 6t-11.5 4.5t-13.5 4.5t-14.5 3t-17.5 2t-19 0.5q-48 0 -76 -28q-30 -38 -33 -80h-102q15 87 71 143q62 62 148 62
q81 0 151 -49l50 -35q61 -45 129 -45q39 0 65 26q34 32 45 86z" />
    <glyph glyph-name="utilde" unicode="&#x169;" horiz-adv-x="1161" 
d="M999 0h-141v150h-4q-58 -94 -135 -138q-86 -53 -225 -53q-154 0 -242 88q-52 51 -71 120t-19 171v702h141v-647q0 -102 12.5 -164.5t55.5 -105.5q62 -62 164 -62q134 0 231 99q57 61 74.5 132t17.5 167v581h141v-1040zM851 1434h99q-30 -106 -82 -158q-51 -51 -125 -51
q-50 0 -85.5 12.5t-76.5 40.5l-49 33q-2 2 -12 8l-12.5 7.5t-10.5 6.5t-11.5 6.5t-11 5t-12.5 4.5l-12.5 2.5t-15 2t-15.5 0.5q-46 0 -75 -29q-23 -26 -35 -80h-101q15 87 72 144q56 61 148 61q70 0 141 -49l49 -35q65 -45 119 -45q38 0 65 27q31 31 49 86z" />
    <glyph glyph-name="Umacron" unicode="&#x16a;" horiz-adv-x="1423" 
d="M162 1434h151v-861q0 -80 4 -133t26 -121.5t63 -111.5q49 -54 131.5 -84.5t175.5 -30.5q95 0 174.5 29t128.5 82q57 63 75.5 153t18.5 217v861h152v-877q0 -67 -4 -116t-17.5 -114.5t-46 -123.5t-82.5 -107q-84 -80 -183 -106.5t-218 -26.5q-268 0 -406 129
q-82 78 -112.5 195.5t-30.5 269.5v877zM395 1593v101h633v-101h-633z" />
    <glyph glyph-name="umacron" unicode="&#x16b;" horiz-adv-x="1161" 
d="M999 0h-141v150h-4q-58 -94 -135 -138q-86 -53 -225 -53q-154 0 -242 88q-52 51 -71 120t-19 171v702h141v-647q0 -102 12.5 -164.5t55.5 -105.5q62 -62 164 -62q134 0 231 99q57 61 74.5 132t17.5 167v581h141v-1040zM266 1270v94h633v-94h-633z" />
    <glyph glyph-name="Ubreve" unicode="&#x16c;" horiz-adv-x="1423" 
d="M162 1434h151v-861q0 -80 4 -133t26 -121.5t63 -111.5q49 -54 131.5 -84.5t175.5 -30.5q95 0 174.5 29t128.5 82q57 63 75.5 153t18.5 217v861h152v-877q0 -67 -4 -116t-17.5 -114.5t-46 -123.5t-82.5 -107q-84 -80 -183 -106.5t-218 -26.5q-268 0 -406 129
q-82 78 -112.5 195.5t-30.5 269.5v877zM924 1817h129q-19 -112 -84 -177q-94 -94 -252 -94q-170 0 -264 94q-66 70 -84 177h129q9 -74 49 -117q56 -58 164 -58q107 0 163 58q41 44 50 117z" />
    <glyph glyph-name="ubreve" unicode="&#x16d;" horiz-adv-x="1161" 
d="M999 0h-141v150h-4q-58 -94 -135 -138q-86 -53 -225 -53q-154 0 -242 88q-52 51 -71 120t-19 171v702h141v-647q0 -102 12.5 -164.5t55.5 -105.5q62 -62 164 -62q134 0 231 99q57 61 74.5 132t17.5 167v581h141v-1040zM781 1434h118q-14 -105 -83 -174q-87 -82 -238 -82
t-238 82q-70 70 -84 174h119q10 -76 55 -121q49 -47 148 -47q98 0 147 47q46 46 56 121z" />
    <glyph glyph-name="Uring" unicode="&#x16e;" horiz-adv-x="1423" 
d="M162 1434h151v-861q0 -80 4 -133t26 -121.5t63 -111.5q49 -54 131.5 -84.5t175.5 -30.5q95 0 174.5 29t128.5 82q57 63 75.5 153t18.5 217v861h152v-877q0 -67 -4 -116t-17.5 -114.5t-46 -123.5t-82.5 -107q-84 -80 -183 -106.5t-218 -26.5q-268 0 -406 129
q-82 78 -112.5 195.5t-30.5 269.5v877zM510 1704q0 85 58 143t143 58t142.5 -58t57.5 -143t-57.5 -143t-142.5 -58t-143 58t-58 143zM584 1704q0 -45 34 -86t93 -41q54 0 90.5 36.5t36.5 90.5t-36.5 90.5t-90.5 36.5q-59 0 -93 -41t-34 -86z" />
    <glyph glyph-name="uring" unicode="&#x16f;" horiz-adv-x="1161" 
d="M999 0h-141v150h-4q-58 -94 -135 -138q-86 -53 -225 -53q-154 0 -242 88q-52 51 -71 120t-19 171v702h141v-647q0 -102 12.5 -164.5t55.5 -105.5q62 -62 164 -62q134 0 231 99q57 61 74.5 132t17.5 167v581h141v-1040zM385 1319q0 79 54.5 133.5t134.5 54.5
q79 0 133.5 -54.5t54.5 -133.5q0 -80 -54.5 -134.5t-133.5 -54.5t-134 55t-55 134zM453 1319q0 -49 34.5 -85t86.5 -36q49 0 84 35.5t35 85.5t-35 85.5t-84 35.5q-52 0 -86.5 -36t-34.5 -85z" />
    <glyph glyph-name="Uhungarumlaut" unicode="&#x170;" horiz-adv-x="1423" 
d="M162 1434h151v-861q0 -80 4 -133t26 -121.5t63 -111.5q49 -54 131.5 -84.5t175.5 -30.5q95 0 174.5 29t128.5 82q57 63 75.5 153t18.5 217v861h152v-877q0 -67 -4 -116t-17.5 -114.5t-46 -123.5t-82.5 -107q-84 -80 -183 -106.5t-218 -26.5q-268 0 -406 129
q-82 78 -112.5 195.5t-30.5 269.5v877zM604 1843h176l-194 -287h-125zM897 1843h176l-194 -287h-125z" />
    <glyph glyph-name="uhungarumlaut" unicode="&#x171;" horiz-adv-x="1161" 
d="M999 0h-141v150h-4q-58 -94 -135 -138q-86 -53 -225 -53q-154 0 -242 88q-52 51 -71 120t-19 171v702h141v-647q0 -102 12.5 -164.5t55.5 -105.5q62 -62 164 -62q134 0 231 99q57 61 74.5 132t17.5 167v581h141v-1040zM482 1434h176l-195 -271h-125zM775 1434h176
l-195 -271h-125z" />
    <glyph glyph-name="Uogonek" unicode="&#x172;" horiz-adv-x="1423" 
d="M162 1434h151v-861q0 -80 4 -133t26 -121.5t63 -111.5q49 -54 131.5 -84.5t175.5 -30.5q95 0 174.5 29t128.5 82q57 63 75.5 153t18.5 217v861h152v-877q0 -67 -4 -116t-17.5 -114.5t-46 -123.5t-82.5 -107q-78 -75 -177 -105t-235 -28q-50 -50 -65 -76q-33 -50 -33 -112
q0 -53 33 -86q27 -27 80 -27q50 0 86 31q42 38 45 102h117q-8 -98 -78 -168q-70 -65 -189 -65q-121 0 -182 61q-53 53 -53 135q0 68 35 127q27 48 77 88q-171 31 -268 119q-143 131 -143 465v877z" />
    <glyph glyph-name="uogonek" unicode="&#x173;" horiz-adv-x="1161" 
d="M999 1040v-1040q-67 -41 -106 -92q-45 -58 -45 -133q0 -57 33 -86q27 -27 80 -27q50 0 86 31q42 38 45 102h116q-8 -98 -78 -168q-70 -65 -186 -65q-114 0 -178 57q-59 51 -59 139q0 83 47 148q40 57 104 94v150h-4q-58 -94 -135 -138q-86 -53 -225 -53q-154 0 -242 88
q-52 51 -71 120t-19 171v702h141v-647q0 -102 12.5 -164.5t55.5 -105.5q62 -62 164 -62q134 0 231 99q57 61 74.5 132t17.5 167v581h141z" />
    <glyph glyph-name="Ydieresis" unicode="&#x178;" horiz-adv-x="1234" 
d="M618 750l429 684h180l-533 -822v-612h-151v612l-535 822h182zM332 1581v152h153v-152h-153zM750 1581v152h153v-152h-153z" />
    <glyph glyph-name="Zacute" unicode="&#x179;" horiz-adv-x="1189" 
d="M100 1434h998v-127l-865 -1178h904v-129h-1084v141l873 1164h-826v129zM647 1843h189l-203 -287h-133z" />
    <glyph glyph-name="zacute" unicode="&#x17a;" horiz-adv-x="933" 
d="M98 1040h752v-106l-625 -832h656v-102h-828v100l645 838h-600v102zM512 1434h176l-195 -271h-124z" />
    <glyph glyph-name="Zdotaccent" unicode="&#x17b;" horiz-adv-x="1189" 
d="M100 1434h998v-127l-865 -1178h904v-129h-1084v141l873 1164h-826v129zM518 1581v152h154v-152h-154z" />
    <glyph glyph-name="zdotaccent" unicode="&#x17c;" horiz-adv-x="933" 
d="M98 1040h752v-106l-625 -832h656v-102h-828v100l645 838h-600v102zM409 1262v172h152v-172h-152z" />
    <glyph glyph-name="uni018F" unicode="&#x18f;" horiz-adv-x="1525" 
d="M1233 680h-963q0 -341 148 -485q122 -115 319 -115q219 0 336 117q73 73 116.5 208.5t43.5 274.5zM315 1018h-159q48 188 159 299q67 72 177 117t262 45q241 0 403 -131q22 -17 46 -41.5t59.5 -77.5t62.5 -115.5t46.5 -159t19.5 -204.5q0 -205 -59.5 -389.5
t-176.5 -280.5q-152 -129 -422 -129q-128 0 -233.5 34.5t-190.5 123.5q-111 118 -153 306t-29 392h1104q0 26 -5 67t-19.5 105t-48.5 131.5t-83 116.5q-128 123 -327 123q-189 0 -308 -111q-33 -29 -69 -84.5t-56 -136.5z" />
    <glyph glyph-name="florin" unicode="&#x192;" 
d="M928 1040l-21 -102h-223l-221 -1049q-29 -141 -94 -206q-70 -70 -201 -70q-46 0 -82 8l23 107q28 -4 45 -4q25 0 39.5 1.5t35.5 11t37 27.5q35 35 53 121l222 1053h-191l23 102h190l31 142q30 118 78 168q82 84 231 84q54 0 109 -15l-19 -100q-43 12 -90 12
q-24 0 -39.5 -2t-37.5 -11.5t-40 -27.5q-39 -39 -53 -114l-28 -136h223z" />
    <glyph glyph-name="uni019F" unicode="&#x19f;" horiz-adv-x="1617" 
d="M811 1348q-216 0 -352 -136q-75 -77 -115 -192.5t-45 -233.5h1022q-6 122 -47.5 238t-110.5 188q-136 136 -352 136zM809 86q223 0 356 139q72 72 114 191t42 254h-1024q0 -128 41.5 -251t116.5 -198q135 -135 354 -135zM805 1477q291 0 467 -166q99 -95 155 -250
t56 -354q0 -391 -211 -588q-177 -162 -467 -162t-463 168q-91 85 -149 233t-58 351q0 207 57.5 357t151.5 239q185 172 461 172z" />
    <glyph glyph-name="uni01CF" unicode="&#x1cf;" horiz-adv-x="528" 
d="M188 1434h152v-1434h-152v1434zM-111 1843h152l223 -229l221 229h152l-248 -287h-252z" />
    <glyph glyph-name="uni01D0" unicode="&#x1d0;" horiz-adv-x="456" 
d="M162 1040h143v-1040h-143v1040zM358 1163h-235l-244 271h139l222 -215l223 215h139z" />
    <glyph glyph-name="uni01DD" unicode="&#x1dd;" 
d="M256 739h-135q26 129 112 222q68 71 149 95.5t183 24.5q106 0 190 -22.5t163 -97.5q153 -153 153 -445q0 -283 -143 -426q-131 -131 -353 -131q-216 0 -331 123q-77 80 -103.5 188.5t-31.5 276.5h815q-8 220 -111 330q-92 102 -254 102q-133 0 -215 -78
q-43 -41 -64.5 -88t-23.5 -74zM924 444h-666q0 -73 26 -162t74 -137q80 -84 220 -84q159 0 249 101q43 50 70 127.5t27 154.5z" />
    <glyph glyph-name="Gcaron" unicode="&#x1e6;" horiz-adv-x="1529" 
d="M807 735h588v-735h-127v252h-4q-64 -130 -170 -207q-123 -88 -332 -88q-141 0 -252 37.5t-203 134.5q-28 28 -55.5 68.5t-63 112.5t-57.5 180.5t-22 234.5q0 203 57 350.5t143 233.5q172 172 486 172q268 0 424 -144q59 -55 99 -138.5t52 -176.5h-151q-22 136 -99 213
q-55 56 -140.5 86.5t-186.5 30.5q-136 0 -227.5 -41.5t-143.5 -98.5q-49 -51 -83 -123t-47.5 -145.5t-18.5 -124t-5 -96.5q0 -155 43.5 -283t120.5 -209q130 -145 354 -145q199 0 322 123q76 72 110.5 179.5t34.5 217.5h-446v129zM410 1843h151l223 -229l222 229h151
l-248 -287h-252z" />
    <glyph glyph-name="gcaron" unicode="&#x1e7;" horiz-adv-x="1212" 
d="M172 -127h141q19 -61 80 -113q68 -51 197 -51q147 0 223 70q59 52 77.5 123t18.5 159v121q-49 -100 -133 -151q-76 -47 -201 -47q-100 0 -180.5 27t-148.5 104q-137 149 -137 417q0 286 137 429q118 120 319 120q134 0 221 -57q83 -52 127 -137h5v153h133v-991
q0 -102 -24 -184t-91 -148q-114 -112 -334 -112q-238 0 -344 106q-68 68 -86 162zM596 86q58 0 112 22.5t91 59.5q40 38 67 98t37 123t12.5 95.5t2.5 58.5q0 102 -25.5 195t-79.5 149q-92 92 -235 92q-133 0 -216 -86q-104 -104 -104 -344q0 -251 111 -369q46 -46 107 -70
t120 -24zM723 1163h-236l-244 271h140l221 -215l223 215h139z" />
    <glyph glyph-name="Scommaaccent" unicode="&#x218;" horiz-adv-x="1341" 
d="M109 453h153q-2 -150 94 -246q58 -59 148.5 -88t185.5 -29q92 0 173 24t130 72q80 80 80 193q0 100 -63 170q-43 47 -123.5 74.5t-151.5 40.5l-143 26q-57 11 -96.5 20.5t-93.5 27.5t-97 44.5t-74 61.5q-84 96 -84 227q0 107 47 189.5t125 132.5q133 86 359 86
q244 0 391 -131q19 -19 38.5 -44t49.5 -93t37 -144h-152q-12 124 -94 199q-91 84 -282 84q-26 0 -58.5 -3t-88 -16.5t-93.5 -36.5q-57 -35 -88 -91t-31 -122q0 -84 55 -143q67 -70 254 -104l136 -27q134 -27 224.5 -60t151.5 -90q105 -97 105 -264q0 -192 -123 -309
q-137 -123 -405 -123q-313 0 -463 150q-56 56 -94.5 143t-38.5 199zM625 -123h161v-180q0 -109 -51 -160q-43 -43 -110 -51v94q34 6 55 27q27 27 27 80v24h-82v166z" />
    <glyph glyph-name="scommaaccent" unicode="&#x219;" horiz-adv-x="1013" 
d="M82 303h143q0 -104 72 -172q70 -70 225 -70q127 0 195 56q32 26 50.5 69.5t18.5 92.5q0 73 -55 120q-43 39 -172 68l-115 25q-65 16 -99.5 25.5t-81 30.5t-73.5 48q-69 69 -69 180q0 73 34.5 138t94.5 106q93 61 258 61q198 0 307 -102q85 -81 88 -209h-137q0 91 -57 148
q-64 61 -203 61q-130 0 -191 -61q-47 -47 -47 -127q0 -71 54 -119q47 -39 165 -68l109 -24q7 -2 43 -11t47 -12t40 -12t44 -16t35 -17.5t35 -22.5q92 -69 92 -198q0 -84 -33.5 -151t-89.5 -107q-97 -74 -293 -74q-223 0 -334 111q-42 45 -68 108.5t-32 124.5zM440 -123h162
v-180q0 -109 -51 -160q-43 -43 -111 -51v94q35 6 56 27q26 26 26 80v24h-82v166z" />
    <glyph glyph-name="Tcommaaccent" unicode="&#x21a;" horiz-adv-x="1126" 
d="M487 1305h-475v129h1102v-129h-475v-1305h-152v1305zM481 -123h162v-180q0 -109 -51 -160q-43 -43 -111 -51v94q35 6 56 27q26 26 26 80v24h-82v166z" />
    <glyph glyph-name="tcommaaccent" unicode="&#x21b;" horiz-adv-x="598" 
d="M12 1040h195v312h141v-312h223v-102h-223v-754q0 -51 21 -78q24 -26 82 -26q55 0 120 22v-102q-72 -29 -163 -29q-115 0 -156 52q-45 52 -45 159v756h-195v102zM328 -123h161v-180q0 -109 -51 -160q-43 -43 -110 -51v94q34 6 55 27q27 27 27 80v24h-82v166z" />
    <glyph glyph-name="uni0228" unicode="&#x228;" horiz-adv-x="1251" 
d="M340 807h766v-129h-766v-549h862v-129h-1014v1434h990v-129h-838v-498zM467 -475l29 92q47 -16 118 -16q119 0 154 37q23 23 23 63q0 42 -27 61q-38 33 -148 33h-63l25 86h57q87 0 144 -12.5t93 -48.5q43 -43 43 -109q0 -90 -51 -141q-62 -62 -227 -62q-77 0 -170 17z
" />
    <glyph glyph-name="uni0229" unicode="&#x229;" 
d="M924 301h135q-25 -126 -113 -221q-69 -71 -149.5 -96t-182.5 -25q-105 0 -189 23t-163 98q-153 148 -153 444q0 283 143 426q131 131 352 131q215 0 332 -123q77 -80 103.5 -188t31.5 -276h-815q8 -220 111 -330q93 -103 254 -103q133 0 215 78q16 14 29.5 32t22 32.5
t16 32t10.5 27.5t6.5 23.5t3.5 14.5zM602 979q-161 0 -250 -100q-43 -50 -69.5 -127.5t-26.5 -155.5h666q0 72 -26.5 161.5t-74.5 137.5q-80 84 -219 84zM410 -475l29 92q47 -16 119 -16q118 0 153 37q23 23 23 63q0 42 -27 61q-38 33 -147 33h-64l25 86h57
q87 0 144.5 -12.5t93.5 -48.5q43 -43 43 -109q0 -89 -52 -141q-62 -62 -227 -62q-76 0 -170 17z" />
    <glyph glyph-name="uni0237" unicode="&#x237;" horiz-adv-x="462" 
d="M166 1040h141v-1138q0 -171 -59 -230q-57 -57 -185 -57q-36 0 -77 6v105h8q91 0 131 32q26 24 33.5 58t7.5 92v1132z" />
    <glyph glyph-name="uni0259" unicode="&#x259;" 
d="M256 739h-135q26 129 112 222q68 71 149 95.5t183 24.5q106 0 190 -22.5t163 -97.5q153 -153 153 -445q0 -283 -143 -426q-131 -131 -353 -131q-216 0 -331 123q-77 80 -103.5 188.5t-31.5 276.5h815q-8 220 -111 330q-92 102 -254 102q-133 0 -215 -78
q-43 -41 -64.5 -88t-23.5 -74zM924 444h-666q0 -73 26 -162t74 -137q80 -84 220 -84q159 0 249 101q43 50 70 127.5t27 154.5z" />
    <glyph glyph-name="uni0275" unicode="&#x275;" horiz-adv-x="1212" 
d="M606 979q-145 0 -229 -84q-104 -104 -119 -317h696q-15 214 -120 319q-84 82 -228 82zM606 61q138 0 228 84q105 100 120 330h-696q0 -74 27 -168t90 -157q89 -89 231 -89zM606 1081q213 0 340 -120q83 -78 120.5 -197.5t37.5 -243.5q0 -292 -166 -446q-72 -67 -152 -91
t-178 -24q-216 0 -336 115q-67 56 -115 168.5t-48 277.5q0 284 157 441q120 120 340 120z" />
    <glyph glyph-name="afii57929" unicode="&#x2bc;" horiz-adv-x="368" 
d="M102 1434h164v-236q0 -67 -12.5 -112.5t-46.5 -79.5q-39 -39 -105 -56v94q44 15 62 48q20 37 20 104v45h-82v193z" />
    <glyph glyph-name="circumflex" unicode="&#x2c6;" horiz-adv-x="927" 
d="M346 1434h236l243 -271h-139l-223 215l-221 -215h-140z" />
    <glyph glyph-name="caron" unicode="&#x2c7;" horiz-adv-x="927" 
d="M582 1163h-236l-244 271h140l221 -215l223 215h139z" />
    <glyph glyph-name="breve" unicode="&#x2d8;" horiz-adv-x="847" 
d="M627 1434h118q-14 -105 -83 -174q-87 -82 -238 -82t-238 82q-70 70 -84 174h119q10 -76 55 -121q49 -47 148 -47q98 0 147 47q46 46 56 121z" />
    <glyph glyph-name="dotaccent" unicode="&#x2d9;" horiz-adv-x="356" 
d="M102 1262v172h152v-172h-152z" />
    <glyph glyph-name="ring" unicode="&#x2da;" horiz-adv-x="581" 
d="M102 1319q0 79 54.5 133.5t134.5 54.5q79 0 133.5 -54.5t54.5 -133.5q0 -80 -54.5 -134.5t-133.5 -54.5t-134 55t-55 134zM170 1319q0 -49 34.5 -85t86.5 -36q49 0 84 35.5t35 85.5t-35 85.5t-84 35.5q-52 0 -86.5 -36t-34.5 -85z" />
    <glyph glyph-name="ogonek" unicode="&#x2db;" horiz-adv-x="698" 
d="M246 0h145q-67 -41 -106 -92q-45 -58 -45 -133q0 -58 32 -86q27 -27 80 -27q50 0 86 31q42 38 45 102h117q-8 -98 -78 -168q-70 -65 -186 -65q-114 0 -178 57q-60 52 -60 139q0 83 47 148q35 51 101 94z" />
    <glyph glyph-name="tilde" unicode="&#x2dc;" horiz-adv-x="946" 
d="M745 1434h99q-30 -106 -82 -158q-51 -51 -125 -51q-50 0 -85.5 12.5t-76.5 40.5l-49 33q-2 2 -12 8l-12.5 7.5t-10.5 6.5t-11.5 6.5t-11 5t-12.5 4.5l-12.5 2.5t-15 2t-15.5 0.5q-46 0 -75 -29q-23 -26 -35 -80h-101q15 87 72 144q56 61 148 61q70 0 141 -49l49 -35
q65 -45 119 -45q38 0 65 27q31 31 49 86z" />
    <glyph glyph-name="hungarumlaut" unicode="&#x2dd;" horiz-adv-x="817" 
d="M246 1434h176l-195 -271h-125zM539 1434h176l-195 -271h-125z" />
    <glyph glyph-name="acutecomb" unicode="&#x301;" horiz-adv-x="4" 
d="M-522 1434h176l-195 -271h-125z" />
    <glyph glyph-name="acutecomb" unicode="&#xf400;" horiz-adv-x="4" 
d="M-522 1434h176l-195 -271h-125z" />
    <glyph glyph-name="uni0313" unicode="&#x313;" horiz-adv-x="368" 
d="M102 1434h164v-236q0 -67 -12.5 -112.5t-46.5 -79.5q-39 -39 -105 -56v94q44 15 62 48q20 37 20 104v45h-82v193z" />
    <glyph glyph-name="uni0315" unicode="&#x315;" horiz-adv-x="368" 
d="M102 1434h164v-236q0 -67 -12.5 -112.5t-46.5 -79.5q-39 -39 -105 -56v94q44 15 62 48q20 37 20 104v45h-82v193z" />
    <glyph glyph-name="uni0326" unicode="&#x326;" horiz-adv-x="366" 
d="M102 -123h162v-180q0 -109 -51 -160q-43 -43 -111 -51v94q35 6 56 27q26 26 26 80v24h-82v166z" />
    <glyph glyph-name="anoteleia" unicode="&#x387;" horiz-adv-x="614" 
d="M225 451v194h164v-194h-164z" />
    <glyph glyph-name="uni0394" unicode="&#x394;" horiz-adv-x="1257" 
d="M590 1245l-420 -1116h838zM6 0l555 1434h135l555 -1434h-1245z" />
    <glyph glyph-name="uni0394" unicode="&#x2206;" horiz-adv-x="1257" 
d="M590 1245l-420 -1116h838zM6 0l555 1434h135l555 -1434h-1245z" />
    <glyph glyph-name="uni03A9" unicode="&#x3a9;" horiz-adv-x="1490" 
d="M141 0v129h353v92q-128 33 -222 127q-67 67 -115 185t-48 284q0 310 176 486q93 97 206.5 134.5t251.5 37.5q139 0 253.5 -38t207.5 -134q178 -187 178 -486q0 -153 -46.5 -274.5t-125.5 -200.5q-95 -95 -213 -121v-92h353v-129h-482v303q141 31 232 133q22 28 36.5 52
t37.5 72t35 114t12 143q0 87 -16.5 162t-43.5 125t-49 79t-45 50q-118 113 -322 113q-103 0 -180 -25t-141 -88q-156 -149 -156 -416q0 -243 121 -381q89 -101 234 -133v-303h-482z" />
    <glyph glyph-name="uni03A9" unicode="&#x2126;" horiz-adv-x="1490" 
d="M141 0v129h353v92q-128 33 -222 127q-67 67 -115 185t-48 284q0 310 176 486q93 97 206.5 134.5t251.5 37.5q139 0 253.5 -38t207.5 -134q178 -187 178 -486q0 -153 -46.5 -274.5t-125.5 -200.5q-95 -95 -213 -121v-92h353v-129h-482v303q141 31 232 133q22 28 36.5 52
t37.5 72t35 114t12 143q0 87 -16.5 162t-43.5 125t-49 79t-45 50q-118 113 -322 113q-103 0 -180 -25t-141 -88q-156 -149 -156 -416q0 -243 121 -381q89 -101 234 -133v-303h-482z" />
    <glyph glyph-name="pi" unicode="&#x3c0;" horiz-adv-x="1224" 
d="M229 0v938h-20q-47 0 -84 -12q-21 -8 -59 -29v102q36 22 67 29q47 12 115 12h895v-102h-131v-713v-12v-14.5t0.5 -14t1.5 -15t2.5 -13.5t4 -14.5t6.5 -11.5t9 -11q28 -28 84 -17v-102q-36 -8 -84 -8q-95 0 -131 41q-35 35 -35 110v795h-499v-938h-142z" />
    <glyph glyph-name="afii10023" unicode="&#x401;" horiz-adv-x="1251" 
d="M340 807h766v-129h-766v-549h862v-129h-1014v1434h992v-129h-840v-498zM412 1581v152h153v-152h-153zM829 1581v152h154v-152h-154z" />
    <glyph glyph-name="afii10051" unicode="&#x402;" horiz-adv-x="1529" 
d="M12 1305v129h1043v-129h-475v-502q143 20 297 20q288 0 415 -127q103 -110 103 -286q0 -104 -32 -191.5t-91 -142.5q-107 -103 -291 -103q-101 0 -180 27v129q79 -27 153 -27q133 0 211 78q76 82 76 230q0 128 -70 198q-86 86 -309 86q-151 0 -282 -14v-680h-152v1305
h-416z" />
    <glyph glyph-name="afii10052" unicode="&#x403;" horiz-adv-x="1099" 
d="M340 1305v-1305h-152v1434h899v-129h-747zM678 1843h188l-202 -287h-134z" />
    <glyph glyph-name="afii10053" unicode="&#x404;" horiz-adv-x="1507" 
d="M1028 807v-129h-731q0 -116 34.5 -240.5t119.5 -216.5q72 -78 156.5 -106.5t189.5 -28.5q206 0 319 113q54 54 87.5 129t41.5 151h160q-11 -101 -54 -197.5t-110 -164.5q-160 -160 -442 -160q-296 0 -459 170q-98 100 -151.5 256t-53.5 346q0 188 58.5 340.5t156.5 249.5
q163 158 445 158q159 0 271 -44t177 -112q55 -58 90.5 -139t46.5 -164h-161q-11 115 -99 213q-117 117 -329 117q-101 0 -182.5 -27t-153.5 -100q-49 -49 -83.5 -114.5t-49 -127.5t-20 -103t-5.5 -69h731z" />
    <glyph glyph-name="afii10054" unicode="&#x405;" horiz-adv-x="1341" 
d="M109 453h153q-2 -150 94 -246q58 -59 148.5 -88t185.5 -29q92 0 173 24t130 72q80 80 80 193q0 100 -63 170q-43 47 -123.5 74.5t-151.5 40.5l-143 26q-57 11 -96.5 20.5t-93.5 27.5t-97 44.5t-74 61.5q-84 96 -84 227q0 107 47 189.5t125 132.5q133 86 359 86
q244 0 391 -131q19 -19 38.5 -44t49.5 -93t37 -144h-152q-12 124 -94 199q-91 84 -282 84q-26 0 -58.5 -3t-88 -16.5t-93.5 -36.5q-57 -35 -88 -91t-31 -122q0 -84 55 -143q67 -70 254 -104l136 -27q134 -27 224.5 -60t151.5 -90q105 -97 105 -264q0 -192 -123 -309
q-137 -123 -405 -123q-313 0 -463 150q-56 56 -94.5 143t-38.5 199z" />
    <glyph glyph-name="afii10055" unicode="&#x406;" horiz-adv-x="528" 
d="M188 1434h152v-1434h-152v1434z" />
    <glyph glyph-name="afii10056" unicode="&#x407;" horiz-adv-x="571" 
d="M209 1434h151v-1434h-151v1434zM68 1581v152h153v-152h-153zM350 1581v152h154v-152h-154z" />
    <glyph glyph-name="afii10057" unicode="&#x408;" horiz-adv-x="1056" 
d="M61 461h152v-12q0 -46 2.5 -80.5t10.5 -78.5t27.5 -80.5t49.5 -62.5q61 -61 180 -61q109 0 176 64q51 50 67.5 123t16.5 173v988h152v-967q0 -276 -115 -399q-106 -111 -305 -111q-193 0 -293 98q-121 121 -121 398v8z" />
    <glyph glyph-name="afii10058" unicode="&#x409;" horiz-adv-x="2150" 
d="M1190 834h409q238 0 361 -123q108 -108 108 -287q0 -205 -116 -315q-116 -109 -342 -109h-572v1305h-540v-424q0 -238 -27 -424q-14 -103 -53 -203t-105 -166q-92 -92 -241 -92q-22 0 -72 4v133q55 -10 108.5 4.5t92.5 50.5q90 90 121 297q24 147 24 414v535h844v-600z
M1190 705v-576h407q160 0 240 80q76 76 76 213q0 131 -76 201q-82 82 -262 82h-385z" />
    <glyph glyph-name="afii10059" unicode="&#x40a;" horiz-adv-x="2222" 
d="M1262 834h409q238 0 361 -123q108 -108 108 -287q0 -94 -29.5 -177t-87.5 -138q-116 -109 -342 -109h-571v705h-770v-705h-152v1434h152v-600h770v600h152v-600zM1647 705h-385v-576h407q160 0 240 80q76 76 76 213q0 131 -76 201q-82 82 -262 82z" />
    <glyph glyph-name="afii10060" unicode="&#x40b;" horiz-adv-x="1538" 
d="M1391 0h-152v446q0 132 -51 183q-65 65 -320 65q-178 0 -288 -14v-680h-152v1305h-416v129h1043v-129h-475v-496q229 14 331 14q139 0 239 -18.5t159 -77.5q82 -82 82 -266v-461z" />
    <glyph glyph-name="afii10061" unicode="&#x40c;" horiz-adv-x="1257" 
d="M340 776l686 658h191l-711 -666l751 -768h-204l-713 750v-750h-152v1434h152v-658zM709 1843h188l-203 -287h-133z" />
    <glyph glyph-name="afii10062" unicode="&#x40e;" 
d="M651 520l367 914h162l-465 -1141q-69 -170 -129 -230q-51 -51 -108 -67t-128 -16q-76 0 -143 20v131q59 -20 131 -20q83 0 137 49q27 27 54.5 82.5t41.5 101.5l-544 1090h186zM821 1817h129q-19 -112 -84 -177q-94 -94 -252 -94q-170 0 -264 94q-66 70 -84 177h129
q9 -74 49 -117q56 -58 164 -58t164 58q40 43 49 117z" />
    <glyph glyph-name="afii10145" unicode="&#x40f;" horiz-adv-x="1454" 
d="M1114 129v1305h152v-1434h-469v-379h-140v379h-469v1434h152v-1305h774z" />
    <glyph glyph-name="afii10017" unicode="&#x410;" horiz-adv-x="1271" 
d="M324 412l-154 -412h-164l545 1434h170l545 -1434h-166l-152 412h-624zM367 541h536l-268 747z" />
    <glyph glyph-name="afii10018" unicode="&#x411;" horiz-adv-x="1366" 
d="M340 1305v-478h491q214 0 324 -110q117 -114 117 -305q0 -98 -34 -177.5t-89 -130.5q-117 -104 -352 -104h-609v1434h990v-129h-838zM340 700v-571h434q84 0 147.5 15t114.5 63q80 70 80 201q0 141 -82 213q-92 79 -262 79h-432z" />
    <glyph glyph-name="afii10019" unicode="&#x412;" horiz-adv-x="1421" 
d="M188 1434h600q43 0 77 -2.5t82.5 -11.5t92 -31.5t78.5 -57.5q43 -43 68.5 -110t25.5 -146q0 -135 -90 -231q-67 -67 -151 -84v-4q56 -8 112.5 -34.5t96.5 -66.5q44 -44 69 -112.5t25 -143.5t-27.5 -150.5t-75.5 -125.5q-40 -43 -94 -70t-116 -37.5t-100 -13t-91 -2.5
h-582v1434zM340 1305v-496h412q45 0 73 1.5t79.5 18.5t84.5 50q70 70 70 184q0 106 -64 170q-78 72 -231 72h-424zM340 680v-551h422q180 0 272 68q37 33 60.5 87.5t23.5 123.5q0 73 -25.5 129t-68.5 86q-79 57 -264 57h-420z" />
    <glyph glyph-name="afii10020" unicode="&#x413;" horiz-adv-x="1099" 
d="M340 1305v-1305h-152v1434h899v-129h-747z" />
    <glyph glyph-name="afii10021" unicode="&#x414;" horiz-adv-x="1468" 
d="M1235 129h207l-17 -453h-133v324h-1142v-324h-136l-14 453h131q156 211 227 463q62 225 62 555v287h815v-1305zM1083 1305h-524v-183q0 -407 -104 -698q-56 -159 -154 -295h782v1176z" />
    <glyph glyph-name="afii10022" unicode="&#x415;" horiz-adv-x="1251" 
d="M340 807h766v-129h-766v-549h862v-129h-1014v1434h990v-129h-838v-498z" />
    <glyph glyph-name="afii10024" unicode="&#x416;" horiz-adv-x="1806" 
d="M827 0v731l-641 -731h-186l680 768l-657 666h180l624 -646v646h152v-646l627 646h180l-658 -666l678 -768h-184l-643 731v-731h-152z" />
    <glyph glyph-name="afii10025" unicode="&#x417;" horiz-adv-x="1363" 
d="M109 426h151q9 -153 109 -246q101 -94 311 -94q95 0 171 20t136 80q86 86 86 220q0 96 -37.5 155.5t-85.5 85.5q-83 47 -229 47h-184v129h170q155 0 237 68q72 64 72 180q0 143 -111 217q-94 60 -241 60q-170 0 -258 -66q-107 -82 -115 -227h-152q6 174 125 293
q136 129 406 129q255 0 391 -121q108 -103 108 -271q0 -143 -79 -227q-66 -66 -166 -90v-4q125 -13 206 -98q99 -104 99 -258q0 -202 -127 -322q-136 -129 -426 -129q-294 0 -434 145q-124 131 -133 324z" />
    <glyph glyph-name="afii10026" unicode="&#x418;" horiz-adv-x="1497" 
d="M340 217l813 1217h156v-1434h-152v1223l-813 -1223h-156v1434h152v-1217z" />
    <glyph glyph-name="afii10027" unicode="&#x419;" horiz-adv-x="1497" 
d="M340 217l813 1217h156v-1434h-152v1223l-813 -1223h-156v1434h152v-1217zM965 1765h129q-18 -110 -84 -176q-94 -94 -252 -94q-170 0 -264 94q-66 70 -84 176h129q9 -73 49 -116q56 -58 164 -58q107 0 163 58q41 45 50 116z" />
    <glyph glyph-name="afii10028" unicode="&#x41a;" horiz-adv-x="1257" 
d="M340 776l686 658h191l-711 -666l751 -768h-204l-713 750v-750h-152v1434h152v-658z" />
    <glyph glyph-name="afii10029" unicode="&#x41b;" horiz-adv-x="1374" 
d="M0 0v133q55 -10 108.5 4.5t92.5 50.5q90 90 121 297q24 147 24 414v535h840v-1434h-152v1305h-549v-424q0 -245 -26 -424q-14 -103 -53 -203t-105 -166q-95 -92 -238 -92q-17 0 -63 4z" />
    <glyph glyph-name="afii10030" unicode="&#x41c;" horiz-adv-x="1798" 
d="M834 0l-494 1245h-4l4 -55v-1190h-152v1434h230l481 -1235l483 1235h228v-1434h-152v1190l4 55h-6l-491 -1245h-131z" />
    <glyph glyph-name="afii10031" unicode="&#x41d;" horiz-adv-x="1449" 
d="M340 692v-692h-152v1434h152v-613h770v613h152v-1434h-152v692h-770z" />
    <glyph glyph-name="afii10032" unicode="&#x41e;" horiz-adv-x="1617" 
d="M803 1477q287 0 463 -164q217 -204 217 -596q0 -216 -62.5 -365.5t-150.5 -232.5q-169 -162 -457 -162q-307 0 -473 166q-18 16 -38.5 40.5t-52 78t-55.5 116t-41.5 158.5t-17.5 201q0 199 59 349t150 241q170 170 459 170zM811 1348q-203 0 -334 -117q-80 -73 -131 -205
t-51 -317q0 -158 42 -283.5t118 -204.5q135 -135 356 -135q213 0 350 137q162 162 162 490q0 348 -184 520q-125 115 -328 115z" />
    <glyph glyph-name="afii10033" unicode="&#x41f;" horiz-adv-x="1449" 
d="M340 1305v-1305h-152v1434h1074v-1434h-152v1305h-770z" />
    <glyph glyph-name="afii10034" unicode="&#x420;" horiz-adv-x="1304" 
d="M188 1434h557q49 0 88 -3t92 -13t101.5 -34t87.5 -61q109 -101 109 -293q0 -200 -107 -307q-33 -35 -76.5 -60t-80 -37.5t-85.5 -19t-77.5 -7.5t-71.5 -1h-385v-598h-152v1434zM340 1305v-578h375q83 0 150 15t120 63q82 74 82 217q0 127 -76 203q-87 80 -276 80h-375z
" />
    <glyph glyph-name="afii10035" unicode="&#x421;" horiz-adv-x="1501" 
d="M1245 467h154q-12 -104 -55 -197t-111 -161q-90 -90 -196.5 -121t-235.5 -31q-63 0 -116 6.5t-115.5 24t-122.5 55t-113 92.5q-104 109 -151.5 262.5t-47.5 321.5t46.5 323.5t154.5 260.5q182 174 459 174q126 0 246.5 -37.5t201.5 -114.5q58 -58 95.5 -140.5
t43.5 -180.5h-153q-11 130 -103 229q-111 115 -319 115q-215 0 -342 -125q-168 -165 -168 -482q0 -155 42.5 -296.5t133.5 -229.5q129 -129 338 -129q187 0 309 113q114 114 125 268z" />
    <glyph glyph-name="afii10036" unicode="&#x422;" horiz-adv-x="1126" 
d="M487 1305h-475v129h1102v-129h-475v-1305h-152v1305z" />
    <glyph glyph-name="afii10037" unicode="&#x423;" 
d="M651 520l367 914h162l-465 -1141q-69 -170 -129 -230q-51 -51 -108 -67t-128 -16q-76 0 -143 20v131q59 -20 131 -20q83 0 137 49q27 27 54.5 82.5t41.5 101.5l-544 1090h186z" />
    <glyph glyph-name="afii10038" unicode="&#x424;" horiz-adv-x="1802" 
d="M825 -47v219h-104q-313 0 -467 147q-156 148 -156 408q0 234 135 387q156 172 498 172h94v211h152v-211h94q336 0 498 -172q135 -142 135 -379q0 -255 -156 -411q-155 -152 -467 -152h-104v-219h-152zM977 295h90q238 0 356 106q59 58 90 148t31 186q0 94 -31 177
t-86 137q-120 114 -374 114h-76v-868zM825 295v868h-75q-255 0 -375 -114q-55 -54 -86 -137t-31 -177q0 -96 31 -186t90 -148q112 -106 356 -106h90z" />
    <glyph glyph-name="afii10039" unicode="&#x425;" horiz-adv-x="1198" 
d="M600 844l383 590h186l-471 -701l492 -733h-195l-395 623l-397 -623h-195l492 733l-471 701h186z" />
    <glyph glyph-name="afii10040" unicode="&#x426;" horiz-adv-x="1497" 
d="M340 129h774v1305h152v-1305h204l-14 -453h-133v324h-1135v1434h152v-1305z" />
    <glyph glyph-name="afii10041" unicode="&#x427;" horiz-adv-x="1298" 
d="M147 1434h152v-441q0 -127 47 -176q21 -23 57 -38t84 -21.5t83.5 -8t86.5 -1.5q140 0 301 14v672h152v-1434h-152v633q-190 -15 -313 -15q-161 0 -258 21t-151 68q-89 78 -89 274v453z" />
    <glyph glyph-name="afii10042" unicode="&#x428;" horiz-adv-x="2105" 
d="M340 129h637v1305h151v-1305h637v1305h152v-1434h-1729v1434h152v-1305z" />
    <glyph glyph-name="afii10043" unicode="&#x429;" horiz-adv-x="2154" 
d="M340 1434v-1305h639v1305h151v-1305h637v1305h152v-1305h209l-14 -453h-136v324h-1790v1434h152z" />
    <glyph glyph-name="afii10044" unicode="&#x42a;" horiz-adv-x="1437" 
d="M477 1434v-600h410q221 0 346 -111q123 -107 123 -305q0 -208 -121 -316q-113 -102 -336 -102h-573v1305h-318v129h469zM477 705v-576h408q50 0 82 3.5t74.5 20t76.5 48.5q82 78 82 215t-86 215q-85 74 -254 74h-383z" />
    <glyph glyph-name="afii10045" unicode="&#x42b;" horiz-adv-x="1726" 
d="M340 1434v-600h410q99 0 185.5 -22t160.5 -89q123 -115 123 -305t-113 -303q-115 -115 -344 -115h-574v1434h152zM340 705v-576h405q169 0 244 82q36 37 55 92t19 113q0 131 -80 207q-86 82 -272 82h-371zM1386 1434h152v-1434h-152v1434z" />
    <glyph glyph-name="afii10046" unicode="&#x42c;" horiz-adv-x="1300" 
d="M340 1434v-600h410q237 0 360 -123q109 -109 109 -287q0 -94 -29.5 -177t-87.5 -138q-116 -109 -342 -109h-572v1434h152zM340 705v-576h408q159 0 239 80q76 76 76 213q0 131 -76 201q-82 82 -262 82h-385z" />
    <glyph glyph-name="afii10047" unicode="&#x42d;" horiz-adv-x="1501" 
d="M492 807h714q-5 122 -46 239t-126 195q-126 109 -319 109q-177 0 -281 -74q-135 -95 -153 -258h-154q7 94 45.5 172.5t81 121.5t92.5 74q75 47 175 70t194 23q244 0 401 -121q120 -93 185 -260.5t65 -374.5q0 -202 -66 -379.5t-186 -273.5q-145 -119 -399 -119
q-281 0 -441 160q-67 67 -112.5 165t-59.5 203h154q20 -174 135 -284q118 -115 318 -115q178 0 292 86q64 47 108.5 120.5t63.5 152t26 135t7 106.5h-714v127z" />
    <glyph glyph-name="afii10048" unicode="&#x42e;" horiz-adv-x="2045" 
d="M340 821h227q9 128 59 260t150 228q176 168 459 168q147 0 265 -44.5t192 -115.5q38 -37 72 -85t69.5 -122.5t56.5 -180.5t21 -229q0 -388 -211 -585q-98 -94 -210.5 -126t-244.5 -32q-141 0 -257 36t-212 126q-107 102 -160 254t-53 319h-223v-692h-152v1434h152v-613z
M1237 86q222 0 358 139q156 159 156 480q0 344 -174 518q-62 59 -154.5 92t-191.5 33q-206 0 -336 -127q-52 -50 -88.5 -118.5t-53.5 -140.5t-23.5 -130.5t-6.5 -114.5q0 -345 174 -506q128 -125 340 -125z" />
    <glyph glyph-name="afii10049" unicode="&#x42f;" horiz-adv-x="1406" 
d="M1067 590h-381l-356 -590h-183l381 604q-77 6 -150.5 36.5t-119.5 76.5q-49 47 -80 122t-31 173q0 195 115 303q125 119 375 119h582v-1434h-152v590zM1067 1305h-426q-169 0 -254 -78q-40 -36 -62 -93t-22 -120q0 -128 70 -205q86 -90 291 -90h403v586z" />
    <glyph glyph-name="afii10065" unicode="&#x430;" horiz-adv-x="1138" 
d="M274 741h-137q0 69 31.5 143t103.5 126q101 71 293 71q209 0 305 -96q54 -54 70 -113.5t14 -130.5l-12 -518v-9.5v-11v-10t0.5 -10.5t1.5 -10t2 -10.5t2.5 -9t3.5 -9.5t5 -8l6 -8q34 -40 94 -25v-102q-24 -8 -76 -8q-82 0 -121 39q-49 49 -45 135q-52 -87 -135 -133
q-102 -58 -244 -58q-170 0 -256 84q-86 80 -86 220q0 120 76 196q88 88 330 113l67 8q17 3 65.5 7.5t74.5 8.5q59 9 81 31q25 27 25 100q0 120 -63 179q-64 57 -197 57q-149 0 -213 -64q-31 -31 -47.5 -78.5t-18.5 -95.5zM805 444l4 107q-27 -25 -82 -35q-66 -11 -184 -22
l-41 -5q-156 -19 -211 -71q-49 -49 -49 -142q0 -86 53 -139q33 -37 73 -48t91 -11q135 0 223 72q57 47 87.5 124.5t35.5 169.5z" />
    <glyph glyph-name="afii10066" unicode="&#x431;" horiz-adv-x="1253" 
d="M944 1495h125q-8 -92 -63 -143q-53 -51 -185 -68q-37 -5 -83 -10.5t-79 -10t-65 -10.5q-143 -28 -219 -104q-47 -44 -75.5 -115t-36 -123.5t-7.5 -101.5h4q34 93 100 152q114 104 299 104q222 0 345 -129q67 -70 104 -179.5t37 -228.5q0 -122 -37.5 -242.5t-116.5 -199.5
q-77 -77 -156.5 -102t-187.5 -25q-103 0 -189.5 24.5t-156.5 98.5q-89 93 -125.5 240t-36.5 305q0 53 2.5 105t12.5 133t27 148.5t50 136.5t78 112q82 82 234 116q93 19 223 31q102 11 135 29q14 7 23.5 19t12 18t7.5 20zM289 526q0 -264 125 -383q82 -82 227 -82
q147 0 229 76q125 113 125 361q0 265 -114 379q-88 86 -240 86q-67 0 -122.5 -16t-106.5 -66q-123 -119 -123 -355z" />
    <glyph glyph-name="afii10067" unicode="&#x432;" horiz-adv-x="1095" 
d="M162 1040h456q96 0 153 -13t106 -62q67 -67 67 -172q0 -113 -74 -183q-45 -43 -108 -59v-4q101 -28 153 -80q68 -68 68 -184q0 -123 -76 -199q-87 -84 -295 -84h-450v1040zM303 938v-342h272q129 0 183 59q43 46 43 123q0 65 -39 107q-51 53 -176 53h-283zM303 494v-392
h283q142 0 198 56q54 54 54 141q0 81 -50 131q-27 29 -68 44t-69 17.5t-71 2.5h-277z" />
    <glyph glyph-name="afii10068" unicode="&#x433;" horiz-adv-x="860" 
d="M303 938v-938h-141v1040h686v-102h-545z" />
    <glyph glyph-name="afii10069" unicode="&#x434;" horiz-adv-x="1208" 
d="M8 102h125q88 140 129 275q20 66 30 148.5t11.5 146.5t1.5 198v170h707v-938h180l-10 -372h-123v270h-916v-270h-123zM870 938h-432v-156q0 -235 -43 -405q-43 -156 -116 -275h591v836z" />
    <glyph glyph-name="afii10070" unicode="&#x435;" 
d="M924 301h135q-25 -126 -113 -221q-69 -71 -149.5 -96t-182.5 -25q-105 0 -189 23t-163 98q-153 148 -153 444q0 283 143 426q131 131 352 131q215 0 332 -123q77 -80 103.5 -188t31.5 -276h-815q8 -220 111 -330q93 -103 254 -103q133 0 215 78q16 14 29.5 32t22 32.5
t16 32t10.5 27.5t6.5 23.5t3.5 14.5zM602 979q-161 0 -250 -100q-43 -50 -69.5 -127.5t-26.5 -155.5h666q0 72 -26.5 161.5t-74.5 137.5q-80 84 -219 84z" />
    <glyph glyph-name="afii10072" unicode="&#x436;" horiz-adv-x="1386" 
d="M623 0v524l-447 -524h-176l489 547l-460 493h168l426 -479v479h141v-479l426 479h168l-461 -493l489 -547h-176l-446 524v-524h-141z" />
    <glyph glyph-name="afii10073" unicode="&#x437;" horiz-adv-x="1048" 
d="M82 311h135q0 -114 76 -182q74 -68 229 -68q140 0 211 62q68 61 68 172q0 99 -64 154q-59 49 -188 49h-164v102h145q123 0 179 45q59 49 59 131q0 98 -68 154q-63 49 -186 49q-121 0 -184 -49q-73 -59 -76 -162h-135q9 130 92 213q100 100 315 100q205 0 303 -96
q82 -76 82 -205q0 -101 -65 -166q-53 -46 -117 -57v-4q83 -15 143 -72q74 -69 74 -188q0 -172 -121 -262q-101 -72 -303 -72q-107 0 -192.5 20t-147.5 80q-100 100 -100 252z" />
    <glyph glyph-name="afii10074" unicode="&#x438;" horiz-adv-x="1200" 
d="M303 164l576 876h159v-1040h-141v879l-573 -879h-162v1040h141v-876z" />
    <glyph glyph-name="afii10075" unicode="&#x439;" horiz-adv-x="1200" 
d="M303 164l576 876h159v-1040h-141v879l-573 -879h-162v1040h141v-876zM803 1434h119q-14 -104 -84 -174q-87 -82 -238 -82t-238 82q-69 69 -83 174h118q10 -75 56 -121q49 -47 147 -47q99 0 148 47q45 45 55 121z" />
    <glyph glyph-name="afii10076" unicode="&#x43a;" horiz-adv-x="974" 
d="M303 573l473 467h168l-502 -483l533 -557h-176l-496 530v-530h-141v1040h141v-467z" />
    <glyph glyph-name="afii10077" unicode="&#x43b;" horiz-adv-x="1105" 
d="M12 0v106q90 -21 156 41q73 73 90 240q10 79 10 240v49v364h676v-1040h-141v938h-402v-260q0 -138 -14 -297q-18 -135 -43 -200q-27 -68 -70 -109q-52 -50 -123 -67t-139 -5z" />
    <glyph glyph-name="afii10078" unicode="&#x43c;" horiz-adv-x="1472" 
d="M676 0l-373 874h-4l4 -55v-819h-141v1040h194l379 -886l379 886h197v-1040h-142v819l5 55h-5l-374 -874h-119z" />
    <glyph glyph-name="afii10079" unicode="&#x43d;" horiz-adv-x="1159" 
d="M303 500v-500h-141v1040h141v-438h553v438h141v-1040h-141v500h-553z" />
    <glyph glyph-name="afii10080" unicode="&#x43e;" horiz-adv-x="1212" 
d="M606 1081q213 0 340 -120q83 -78 120.5 -197.5t37.5 -243.5q0 -292 -166 -446q-72 -67 -152 -91t-178 -24q-216 0 -336 115q-67 56 -115 168.5t-48 277.5q0 284 157 441q120 120 340 120zM606 981q-145 0 -231 -86q-119 -119 -119 -373q0 -261 127 -381q87 -80 223 -80
q137 0 221 78q127 117 127 383q0 244 -108 363q-92 96 -240 96z" />
    <glyph glyph-name="afii10081" unicode="&#x43f;" horiz-adv-x="1167" 
d="M303 938v-938h-141v1040h844v-1040h-142v938h-561z" />
    <glyph glyph-name="afii10082" unicode="&#x440;" horiz-adv-x="1218" 
d="M162 1040h135v-153h4q47 72 129 133q93 61 221 61q186 0 307 -112q152 -152 152 -439q0 -170 -50 -298t-150.5 -200.5t-241.5 -72.5q-140 0 -232 57q-81 51 -133 144v-539h-141v1419zM295 516q0 -239 119 -358q93 -97 231 -97q117 0 201 84q55 58 86 156t31 225
q0 250 -123 373q-80 80 -209 80q-119 0 -211 -82q-125 -113 -125 -381z" />
    <glyph glyph-name="afii10083" unicode="&#x441;" horiz-adv-x="1120" 
d="M903 365h135q-8 -83 -43 -165t-92 -139q-63 -63 -134 -82.5t-167 -19.5q-101 0 -181.5 22.5t-154.5 92.5q-74 71 -115.5 187.5t-41.5 268.5q0 134 34.5 241t98.5 175q118 135 352 135q205 0 317 -108q98 -98 117 -246h-135q-11 95 -72 164q-76 88 -217 88
q-145 0 -237 -92q-109 -109 -109 -352q0 -260 125 -385q89 -89 221 -89q133 0 207 78q38 41 62.5 103t29.5 123z" />
    <glyph glyph-name="afii10084" unicode="&#x442;" horiz-adv-x="888" 
d="M375 938h-363v102h865v-102h-361v-938h-141v938z" />
    <glyph glyph-name="afii10085" unicode="&#x443;" horiz-adv-x="980" 
d="M182 -377v107q34 -9 80 -9q64 0 100 31q32 28 60 115l43 133l-438 1040h170l344 -882l299 882h141l-428 -1198q-40 -108 -63 -141q-13 -21 -29 -35q-58 -53 -164 -53q-57 0 -115 10z" />
    <glyph glyph-name="afii10086" unicode="&#x444;" horiz-adv-x="1603" 
d="M731 -379v352q-139 -5 -266.5 33.5t-218.5 136.5q-137 151 -137 383q0 133 39.5 230t95.5 153q51 53 121.5 88.5t141.5 49t124.5 17.5t99.5 1v369h141v-369q317 8 478 -150q145 -140 145 -383q0 -254 -147 -401q-91 -91 -217 -127t-259 -31v-352h-141zM731 76v887
q-241 10 -362 -117q-55 -56 -84 -140.5t-29 -179.5q0 -208 119 -327q117 -123 356 -123zM872 963v-887q101 -2 198.5 29t160.5 94q55 55 86 142.5t31 186.5q0 211 -113 318q-66 61 -167.5 91.5t-195.5 25.5z" />
    <glyph glyph-name="afii10087" unicode="&#x445;" horiz-adv-x="948" 
d="M473 635l281 405h161l-358 -497l391 -543h-166l-309 453l-309 -453h-164l391 543l-358 497h160z" />
    <glyph glyph-name="afii10088" unicode="&#x446;" horiz-adv-x="1200" 
d="M301 102h561v938h142v-938h180l-10 -372h-123v270h-889v1040h139v-938z" />
    <glyph glyph-name="afii10089" unicode="&#x447;" horiz-adv-x="1028" 
d="M109 1040h141v-340q0 -87 33 -120q27 -27 82.5 -35t171.5 -8q11 0 188 6v497h141v-1040h-141v440q-117 -8 -242 -8q-70 0 -117 2.5t-110.5 20t-95.5 49.5q-24 25 -36 60.5t-13.5 58.5t-1.5 61v356z" />
    <glyph glyph-name="afii10090" unicode="&#x448;" horiz-adv-x="1667" 
d="M301 102h461v938h141v-938h461v938h141v-1040h-1343v1040h139v-938z" />
    <glyph glyph-name="afii10091" unicode="&#x449;" horiz-adv-x="1701" 
d="M303 102h461v938h139v-938h463v938h139v-938h181l-13 -372h-123v270h-1388v1040h141v-938z" />
    <glyph glyph-name="afii10092" unicode="&#x44a;" horiz-adv-x="1181" 
d="M12 938v102h408v-417h325q188 0 279 -91q76 -76 76 -215q0 -138 -78 -223q-94 -94 -279 -94h-464v938h-267zM420 520v-418h274q150 0 207 64q53 56 53 153q0 94 -53 144q-61 57 -194 57h-287z" />
    <glyph glyph-name="afii10093" unicode="&#x44b;" horiz-adv-x="1419" 
d="M162 1040h141v-417h272h64q131 0 211 -50q135 -84 135 -256q0 -97 -39 -164.5t-94 -101.5q-85 -51 -225 -51h-465v1040zM303 520v-418h275q120 0 178 41q82 57 82 170q0 104 -60 156q-26 23 -62.5 35t-64 14t-73.5 2h-275zM1116 1040h141v-1040h-141v1040z" />
    <glyph glyph-name="afii10094" unicode="&#x44c;" horiz-adv-x="1064" 
d="M162 1040h141v-419h283q59 0 93.5 -2t83 -13t85.5 -33q135 -80 135 -258q0 -141 -82 -223q-92 -92 -276 -92h-463v1040zM303 518v-416h275q115 0 174 39q86 53 86 172q0 98 -54 148q-57 57 -192 57h-289z" />
    <glyph glyph-name="afii10095" unicode="&#x44d;" horiz-adv-x="1118" 
d="M387 494v102h475q0 133 -55 231q-88 152 -277 152q-147 0 -229 -86q-61 -64 -70 -166h-137q12 162 129 260q66 55 141.5 74.5t167.5 19.5q222 0 340 -118q138 -138 138 -431q0 -59 -5.5 -120t-31.5 -150t-70 -145q-119 -158 -364 -158q-221 0 -332 111q-53 52 -86 129.5
t-39 154.5h139q3 -101 53 -170q32 -48 99.5 -85.5t173.5 -37.5q103 0 165 41.5t101 130.5q52 120 49 261h-475z" />
    <glyph glyph-name="afii10096" unicode="&#x44e;" horiz-adv-x="1574" 
d="M303 600h172q4 105 44 198t106 156q132 127 346 127q210 0 340 -123q68 -68 111.5 -177.5t43.5 -258.5q0 -144 -43 -259t-120 -189q-74 -69 -154.5 -92t-173.5 -23q-213 0 -340 117q-77 76 -119.5 190.5t-42.5 231.5h-170v-498h-141v1040h141v-440zM623 522
q0 -256 114 -370q91 -91 238 -91q129 0 213 76q129 120 129 385q0 264 -127 381q-83 76 -219 76q-146 0 -232 -86q-116 -116 -116 -371z" />
    <glyph glyph-name="afii10097" unicode="&#x44f;" horiz-adv-x="1091" 
d="M506 424l-268 -424h-156l280 426q-108 14 -176 82q-84 80 -84 215q0 144 80 227q86 90 256 90h492v-1040h-142v424h-282zM788 938h-286q-49 0 -74.5 -2t-60.5 -14.5t-62 -38.5q-57 -52 -57 -152q0 -93 55 -143q62 -62 209 -62h276v412z" />
    <glyph glyph-name="afii10071" unicode="&#x451;" 
d="M297 1262v172h145v-172h-145zM752 1262v172h147v-172h-147zM602 979q-150 0 -250 -100q-43 -50 -69.5 -127.5t-26.5 -155.5h666q0 72 -26.5 161.5t-74.5 137.5q-80 84 -219 84zM604 1081q215 0 332 -123q77 -80 103.5 -188t31.5 -276h-815q8 -220 111 -330
q93 -103 254 -103q133 0 215 78q16 14 29.5 32t22 32.5t16 32t10.5 27.5t6.5 23.5t3.5 14.5h135q-25 -126 -113 -221q-69 -71 -149.5 -96t-182.5 -25q-105 0 -189 23t-163 98q-153 148 -153 444q0 283 143 426q131 131 352 131z" />
    <glyph glyph-name="afii10099" unicode="&#x452;" horiz-adv-x="1163" 
d="M162 1434h141v-136h440v-92h-440v-317q55 83 127 131q88 61 213 61q171 0 260 -96q73 -79 96 -219.5t23 -382.5q0 -108 -4.5 -187t-19.5 -173t-48.5 -168.5t-85.5 -126.5q-61 -61 -129 -84t-149 -23h-15v107h13q106 0 170 57q25 23 44.5 56.5t32 64.5t21 83t12.5 83
t6 95.5t2 90v94.5q0 257 -18 384.5t-74 183.5q-59 59 -164 59q-116 0 -204 -82q-66 -66 -87.5 -144t-21.5 -171v-582h-141v1206h-164v92h164v136z" />
    <glyph glyph-name="afii10100" unicode="&#x453;" horiz-adv-x="860" 
d="M303 938v-938h-141v1040h686v-102h-545zM541 1434h176l-195 -271h-125z" />
    <glyph glyph-name="afii10101" unicode="&#x454;" horiz-adv-x="1126" 
d="M748 596v-102h-490q0 -106 31 -201t86 -150q82 -82 219 -82q145 0 227 82q37 40 60 99.5t28 117.5h135q-4 -91 -39 -170t-90 -129q-109 -102 -319 -102q-100 0 -181.5 23t-154.5 96q-151 151 -151 452q0 282 137 424q125 127 342 127q206 0 334 -108q44 -40 74 -105
t36 -141h-135q-9 103 -74 168q-84 84 -227 84q-140 0 -225 -78q-51 -49 -82 -134t-31 -171h490z" />
    <glyph glyph-name="afii10102" unicode="&#x455;" horiz-adv-x="1013" 
d="M82 303h143q0 -104 72 -172q70 -70 225 -70q127 0 195 56q32 26 50.5 69.5t18.5 92.5q0 73 -55 120q-43 39 -172 68l-115 25q-65 16 -99.5 25.5t-81 30.5t-73.5 48q-69 69 -69 180q0 73 34.5 138t94.5 106q93 61 258 61q198 0 307 -102q85 -81 88 -209h-137q0 91 -57 148
q-64 61 -203 61q-130 0 -191 -61q-47 -47 -47 -127q0 -71 54 -119q47 -39 165 -68l109 -24q7 -2 43 -11t47 -12t40 -12t44 -16t35 -17.5t35 -22.5q92 -69 92 -198q0 -84 -33.5 -151t-89.5 -107q-97 -74 -293 -74q-223 0 -334 111q-42 45 -68 108.5t-32 124.5z" />
    <glyph glyph-name="afii10103" unicode="&#x456;" horiz-adv-x="456" 
d="M158 1040h141v-1040h-141v1040zM156 1262v172h145v-172h-145z" />
    <glyph glyph-name="afii10104" unicode="&#x457;" horiz-adv-x="509" 
d="M184 1040h142v-1040h-142v1040zM59 1262v172h148v-172h-148zM303 1262v172h148v-172h-148z" />
    <glyph glyph-name="afii10105" unicode="&#x458;" horiz-adv-x="464" 
d="M166 1040h141v-1138q0 -171 -59 -230q-57 -57 -185 -57q-36 0 -77 6v105h8q91 0 131 32q26 24 33.5 58t7.5 92v1132zM162 1262v172h147v-172h-147z" />
    <glyph glyph-name="afii10106" unicode="&#x459;" horiz-adv-x="1705" 
d="M944 621h283q59 0 93.5 -2t83 -13t85.5 -33q135 -80 135 -258q0 -141 -82 -223q-92 -92 -276 -92h-463v938h-402v-260q0 -138 -14 -297q-18 -135 -43 -200q-27 -68 -70 -109q-52 -50 -123 -67t-139 -5v106q90 -21 156 41q73 73 90 240q10 79 10 240v49v364h676v-419z
M944 518v-416h275q115 0 174 39q86 53 86 172q0 98 -54 148q-57 57 -192 57h-289z" />
    <glyph glyph-name="afii10107" unicode="&#x45a;" horiz-adv-x="1759" 
d="M856 1040h141v-419h283q59 0 93.5 -2t83 -13t85.5 -33q135 -80 135 -258q0 -141 -82 -223q-92 -92 -276 -92h-463v518h-553v-518h-141v1040h141v-419h553v419zM997 518v-416h275q115 0 174 39q86 53 86 172q0 99 -53 148q-57 57 -193 57h-289z" />
    <glyph glyph-name="afii10108" unicode="&#x45b;" horiz-adv-x="1159" 
d="M162 1434h141v-136h440v-92h-440v-317q43 77 127 131q96 61 223 61q166 0 256 -90q31 -31 50 -66.5t26.5 -77t9.5 -70.5t2 -75v-702h-141v647v64q0 137 -59 200q-61 68 -170 68q-137 0 -228 -94q-43 -45 -65.5 -105t-26.5 -100t-4 -98v-582h-141v1206h-164v92h164v136z
" />
    <glyph glyph-name="afii10109" unicode="&#x45c;" horiz-adv-x="974" 
d="M303 573l473 467h168l-502 -483l533 -557h-176l-496 530v-530h-141v1040h141v-467zM571 1434h177l-195 -271h-125z" />
    <glyph glyph-name="afii10110" unicode="&#x45e;" horiz-adv-x="980" 
d="M709 1434h118q-14 -104 -84 -174q-87 -82 -237 -82q-151 0 -238 82q-70 70 -84 174h119q10 -76 55 -121q49 -47 148 -47q98 0 147 47q46 46 56 121zM182 -377v107q34 -9 80 -9q64 0 100 31q32 28 60 115l43 133l-438 1040h170l344 -882l299 882h141l-428 -1198
q-40 -108 -63 -141q-13 -21 -29 -35q-58 -53 -164 -53q-57 0 -115 10z" />
    <glyph glyph-name="afii10193" unicode="&#x45f;" horiz-adv-x="1169" 
d="M866 102v938h142v-1040h-359v-379h-129v379h-358v1040h141v-938h563z" />
    <glyph glyph-name="afii10146" unicode="&#x462;" horiz-adv-x="1437" 
d="M477 1434v-183h451v-129h-451v-288h410q237 0 360 -123q109 -109 109 -287q0 -94 -29.5 -177t-87.5 -138q-116 -109 -340 -109h-573v1122h-318v129h318v183h151zM477 705v-576h408q159 0 239 80q76 76 76 213q0 131 -76 201q-82 82 -262 82h-385z" />
    <glyph glyph-name="afii10194" unicode="&#x463;" horiz-adv-x="1181" 
d="M12 938v102h267v394h141v-394h381v-102h-381v-315h270q187 0 275 -50q135 -80 135 -258q0 -141 -82 -223q-92 -92 -277 -92h-462v938h-267zM420 518v-416h274q115 0 174 39q86 53 86 172q0 99 -53 148q-57 57 -192 57h-289z" />
    <glyph glyph-name="afii10147" unicode="&#x472;" horiz-adv-x="1617" 
d="M811 1348q-216 0 -352 -136q-75 -77 -115 -192.5t-45 -233.5h1022q-6 122 -47.5 238t-110.5 188q-136 136 -352 136zM809 86q223 0 356 139q72 72 114 191t42 254h-1024q0 -128 41.5 -251t116.5 -198q135 -135 354 -135zM805 1477q291 0 467 -166q99 -95 155 -250
t56 -354q0 -391 -211 -588q-177 -162 -467 -162t-463 168q-91 85 -149 233t-58 351q0 207 57.5 357t151.5 239q185 172 461 172z" />
    <glyph glyph-name="afii10195" unicode="&#x473;" horiz-adv-x="1212" 
d="M606 979q-145 0 -229 -84q-104 -104 -119 -317h696q-15 214 -120 319q-84 82 -228 82zM606 61q138 0 228 84q105 100 120 330h-696q0 -74 27 -168t90 -157q89 -89 231 -89zM606 1081q213 0 340 -120q83 -78 120.5 -197.5t37.5 -243.5q0 -292 -166 -446q-72 -67 -152 -91
t-178 -24q-216 0 -336 115q-67 56 -115 168.5t-48 277.5q0 284 157 441q120 120 340 120z" />
    <glyph glyph-name="afii10148" unicode="&#x474;" horiz-adv-x="1425" 
d="M608 156l289 958q17 55 28 85.5t38 81.5t57 81q84 86 233 86q65 0 146 -18v-134q-59 21 -123 21q-100 0 -154 -57q-43 -43 -86 -177l-336 -1083h-186l-506 1434h168z" />
    <glyph glyph-name="afii10196" unicode="&#x475;" horiz-adv-x="1058" 
d="M469 143l207 662q42 132 94 182q69 62 191 62q45 0 86 -9v-108q-21 8 -64 8q-24 0 -39.5 -2t-37.5 -11.5t-40 -27.5q-37 -37 -71 -141l-244 -758h-164l-387 1040h156z" />
    <glyph glyph-name="afii10050" unicode="&#x490;" horiz-adv-x="1103" 
d="M340 1305v-1305h-152v1434h756v323h133l15 -452h-752z" />
    <glyph glyph-name="afii10098" unicode="&#x491;" horiz-adv-x="860" 
d="M303 938v-938h-141v1040h551v271h123l12 -373h-545z" />
    <glyph glyph-name="uni0492" unicode="&#x492;" horiz-adv-x="1267" 
d="M446 795h492v-129h-492v-666h-151v666h-254v129h254v639h932v-129h-781v-510z" />
    <glyph glyph-name="uni0493" unicode="&#x493;" horiz-adv-x="899" 
d="M887 1040v-102h-545v-336h242v-102h-242v-500h-141v500h-181v102h181v438h686z" />
    <glyph glyph-name="uni049A" unicode="&#x49a;" horiz-adv-x="1298" 
d="M340 776l686 658h191l-711 -666l620 -639h172l-14 -453h-133v324h-98l-713 750v-750h-152v1434h152v-658z" />
    <glyph glyph-name="uni049B" unicode="&#x49b;" horiz-adv-x="1011" 
d="M162 1040h141v-467l473 467h168l-502 -483l435 -455h155l-10 -372h-123v270h-100l-496 530v-530h-141v1040z" />
    <glyph glyph-name="uni04A2" unicode="&#x4a2;" horiz-adv-x="1492" 
d="M340 692v-692h-152v1434h152v-613h772v613h152v-1305h202l-14 -453h-133v324h-207v692h-772z" />
    <glyph glyph-name="uni04A3" unicode="&#x4a3;" horiz-adv-x="1193" 
d="M303 500v-500h-141v1040h141v-438h553v438h141v-938h181l-11 -372h-123v270h-188v500h-553z" />
    <glyph glyph-name="uni04AE" unicode="&#x4ae;" horiz-adv-x="1234" 
d="M618 750l429 684h180l-533 -822v-612h-151v612l-535 822h182z" />
    <glyph glyph-name="uni04AF" unicode="&#x4af;" horiz-adv-x="966" 
d="M434 -379v379l-428 1040h166l338 -876l305 876h146l-383 -1040v-379h-144z" />
    <glyph glyph-name="uni04B0" unicode="&#x4b0;" horiz-adv-x="1234" 
d="M618 750l429 684h180l-533 -822v-172h332v-129h-332v-311h-151v311h-332v129h332v172l-535 822h182z" />
    <glyph glyph-name="uni04B1" unicode="&#x4b1;" horiz-adv-x="966" 
d="M434 -379v195h-262v102h262v82l-428 1040h166l338 -876l305 876h146l-383 -1040v-82h262v-102h-262v-195h-144z" />
    <glyph glyph-name="uni04BA" unicode="&#x4ba;" horiz-adv-x="1300" 
d="M1153 0h-152v508q0 129 -49 178q-35 36 -112 52t-215 16t-285 -15v-739h-152v1434h152v-566q165 15 324 15q68 0 113.5 -2t105 -10t105 -27.5t77.5 -50.5q88 -84 88 -271v-522z" />
    <glyph glyph-name="uni04BB" unicode="&#x4bb;" horiz-adv-x="1159" 
d="M162 1434h141v-545q43 77 127 131q96 61 223 61q166 0 256 -90q31 -31 50 -66.5t26.5 -77t9.5 -70.5t2 -75v-702h-141v647v64q0 137 -59 200q-61 68 -170 68q-137 0 -228 -94q-43 -45 -65.5 -105t-26.5 -100t-4 -98v-582h-141v1434z" />
    <glyph glyph-name="uni04C1" unicode="&#x4c1;" horiz-adv-x="1806" 
d="M827 0v731l-641 -731h-186l680 768l-657 666h180l624 -646v646h152v-646l627 646h180l-658 -666l678 -768h-184l-643 731v-731h-152zM1116 1765h129q-18 -110 -84 -176q-94 -94 -252 -94q-170 0 -264 94q-66 70 -84 176h129q9 -73 49 -116q56 -58 164 -58t164 58
q40 43 49 116z" />
    <glyph glyph-name="uni04C2" unicode="&#x4c2;" horiz-adv-x="1386" 
d="M623 0v524l-447 -524h-176l489 547l-460 493h168l426 -479v479h141v-479l426 479h168l-461 -493l489 -547h-176l-446 524v-524h-141zM895 1434h119q-14 -104 -84 -174q-87 -82 -238 -82q-150 0 -237 82q-70 70 -84 174h118q10 -75 56 -121q49 -47 147 -47q99 0 148 47
q45 45 55 121z" />
    <glyph glyph-name="uni04D0" unicode="&#x4d0;" horiz-adv-x="1271" 
d="M848 1817h129q-19 -112 -84 -177q-94 -94 -252 -94q-170 0 -264 94q-66 70 -84 177h129q9 -74 49 -117q56 -58 164 -58t164 58q40 43 49 117zM324 412l-154 -412h-164l545 1434h170l545 -1434h-166l-152 412h-624zM367 541h536l-268 747z" />
    <glyph glyph-name="uni04D1" unicode="&#x4d1;" horiz-adv-x="1138" 
d="M760 1434h119q-14 -104 -84 -174q-87 -82 -238 -82t-238 82q-69 69 -83 174h118q10 -75 56 -121q49 -47 147 -47q99 0 148 47q45 45 55 121zM274 741h-137q0 69 31.5 143t103.5 126q101 71 293 71q209 0 305 -96q54 -54 70 -113.5t14 -130.5l-12 -518v-9.5v-11v-10
t0.5 -10.5t1.5 -10t2 -10.5t2.5 -9t3.5 -9.5t5 -8l6 -8q34 -40 94 -25v-102q-24 -8 -76 -8q-82 0 -121 39q-49 49 -45 135q-52 -87 -135 -133q-102 -58 -244 -58q-170 0 -256 84q-86 80 -86 220q0 120 76 196q88 88 330 113l67 8q17 3 65.5 7.5t74.5 8.5q59 9 81 31
q25 27 25 100q0 120 -63 179q-64 57 -197 57q-149 0 -213 -64q-31 -31 -47.5 -78.5t-18.5 -95.5zM805 444l4 107q-27 -25 -82 -35q-66 -11 -184 -22l-41 -5q-156 -19 -211 -71q-49 -49 -49 -142q0 -86 53 -139q33 -37 73 -48t91 -11q135 0 223 72q57 47 87.5 124.5
t35.5 169.5z" />
    <glyph glyph-name="uni04D2" unicode="&#x4d2;" horiz-adv-x="1271" 
d="M350 1581v152h154v-152h-154zM768 1581v152h154v-152h-154zM324 412l-154 -412h-164l545 1434h170l545 -1434h-166l-152 412h-624zM367 541h536l-268 747z" />
    <glyph glyph-name="uni04D3" unicode="&#x4d3;" horiz-adv-x="1138" 
d="M309 1262v172h148v-172h-148zM725 1262v172h145v-172h-145zM307 741h-137q0 69 31.5 143t103.5 126q101 71 293 71q209 0 305 -96q54 -54 70 -113.5t14 -130.5l-12 -518v-14v-15.5t0.5 -14t2 -15t3.5 -12.5t5.5 -14t8.5 -11q35 -41 95 -25v-102q-24 -8 -76 -8
q-82 0 -121 39q-49 49 -45 135q-52 -87 -135 -133q-102 -58 -244 -58q-170 0 -256 84q-86 80 -86 220q0 120 76 196q88 88 329 113l68 8q17 3 65 7.5t74 8.5q60 9 82 31q25 27 25 100q0 119 -64 179q-64 57 -196 57q-149 0 -213 -64q-31 -31 -47.5 -78.5t-18.5 -95.5z
M838 444l4 107q-27 -25 -82 -35q-65 -11 -185 -22l-40 -5q-156 -19 -211 -71q-50 -50 -50 -142q0 -85 54 -139q33 -37 73 -48t91 -11q135 0 223 72q57 47 87.5 124.5t35.5 169.5z" />
    <glyph glyph-name="uni04D4" unicode="&#x4d4;" horiz-adv-x="1988" 
d="M926 0v403h-523l-221 -403h-182l799 1434h1118v-129h-840v-498h766v-129h-766v-549h862v-129h-1013zM926 532v773h-37l-418 -773h455z" />
    <glyph glyph-name="uni04D5" unicode="&#x4d5;" horiz-adv-x="1875" 
d="M279 741h-138q0 189 156 281q60 37 122 48t140 11q75 0 131.5 -9.5t110.5 -41.5q83 -49 123 -131q49 74 123 123q95 59 241 59q109 0 195.5 -27.5t156.5 -99.5q73 -77 100 -181.5t27 -258.5v-20h-811q0 -86 26.5 -179t86.5 -157q94 -97 242 -97q145 0 227 82
q56 56 82 158h137q-38 -146 -119 -227q-65 -65 -155.5 -90t-173.5 -25q-172 0 -279 70q-16 10 -35.5 25.5t-55.5 59t-60 95.5q-48 -108 -152 -176q-110 -68 -268 -68q-191 0 -283 88q-82 77 -82 219q0 64 16.5 110t61.5 91q60 57 139 80.5t199 36.5l78 8q24 3 61.5 6t63.5 6
q3 1 15.5 3.5t19 4.5t16.5 5.5t18 9t15 12.5q20 28 20 111q0 110 -61 164q-63 59 -197 59q-125 0 -190 -45q-86 -58 -90 -193zM815 479v72q-23 -20 -61 -29q-48 -14 -127 -20q-126 -11 -172 -19q-115 -18 -162 -65q-53 -53 -53 -135q0 -100 61 -158q57 -55 164 -55
q161 0 256 100q54 57 74 130t20 179zM958 596h666q0 187 -98 295q-88 88 -226 88q-155 0 -243 -96q-85 -94 -99 -287z" />
    <glyph glyph-name="uni04D6" unicode="&#x4d6;" horiz-adv-x="1251" 
d="M903 1817h129q-19 -112 -84 -177q-94 -94 -252 -94q-170 0 -264 94q-66 70 -84 177h129q9 -74 49 -117q56 -58 164 -58t164 58q40 43 49 117zM340 807h766v-129h-766v-549h862v-129h-1014v1434h990v-129h-838v-498z" />
    <glyph glyph-name="uni04D7" unicode="&#x4d7;" 
d="M801 1434h119q-14 -104 -84 -174q-87 -82 -238 -82t-238 82q-70 70 -84 174h119q10 -75 56 -121q49 -47 147 -47t147 47q46 46 56 121zM924 301h135q-25 -126 -113 -221q-69 -71 -149.5 -96t-182.5 -25q-105 0 -189 23t-163 98q-153 148 -153 444q0 283 143 426
q131 131 352 131q215 0 332 -123q77 -80 103.5 -188t31.5 -276h-815q8 -220 111 -330q93 -103 254 -103q133 0 215 78q16 14 29.5 32t22 32.5t16 32t10.5 27.5t6.5 23.5t3.5 14.5zM602 979q-161 0 -250 -100q-43 -50 -69.5 -127.5t-26.5 -155.5h666q0 72 -26.5 161.5
t-74.5 137.5q-80 84 -219 84z" />
    <glyph glyph-name="uni04D8" unicode="&#x4d8;" horiz-adv-x="1525" 
d="M1233 680h-963q0 -341 148 -485q122 -115 319 -115q219 0 336 117q73 73 116.5 208.5t43.5 274.5zM315 1018h-159q48 188 159 299q67 72 177 117t262 45q241 0 403 -131q22 -17 46 -41.5t59.5 -77.5t62.5 -115.5t46.5 -159t19.5 -204.5q0 -205 -59.5 -389.5
t-176.5 -280.5q-152 -129 -422 -129q-128 0 -233.5 34.5t-190.5 123.5q-111 118 -153 306t-29 392h1104q0 26 -5 67t-19.5 105t-48.5 131.5t-83 116.5q-128 123 -327 123q-189 0 -308 -111q-33 -29 -69 -84.5t-56 -136.5z" />
    <glyph glyph-name="afii10846" unicode="&#x4d9;" 
d="M256 739h-135q26 129 112 222q68 71 149 95.5t183 24.5q106 0 190 -22.5t163 -97.5q153 -153 153 -445q0 -283 -143 -426q-131 -131 -353 -131q-216 0 -331 123q-77 80 -103.5 188.5t-31.5 276.5h815q-8 220 -111 330q-92 102 -254 102q-133 0 -215 -78
q-43 -41 -64.5 -88t-23.5 -74zM924 444h-666q0 -73 26 -162t74 -137q80 -84 220 -84q159 0 249 101q43 50 70 127.5t27 154.5z" />
    <glyph glyph-name="uni04DC" unicode="&#x4dc;" horiz-adv-x="1806" 
d="M827 0v731l-641 -731h-186l680 768l-657 666h180l624 -646v646h152v-646l627 646h180l-658 -666l678 -768h-184l-643 731v-731h-152zM616 1581v152h154v-152h-154zM1034 1581v152h154v-152h-154z" />
    <glyph glyph-name="uni04DD" unicode="&#x4dd;" horiz-adv-x="1386" 
d="M623 0v524l-447 -524h-176l489 547l-460 493h168l426 -479v479h141v-479l426 479h168l-461 -493l489 -547h-176l-446 524v-524h-141zM410 1262v172h147v-172h-147zM825 1262v172h146v-172h-146z" />
    <glyph glyph-name="uni04DE" unicode="&#x4de;" horiz-adv-x="1363" 
d="M109 426h151q9 -153 109 -246q101 -94 311 -94q95 0 171 20t136 80q86 86 86 220q0 96 -37.5 155.5t-85.5 85.5q-83 47 -229 47h-184v129h170q155 0 237 68q72 64 72 180q0 143 -111 217q-94 60 -241 60q-170 0 -258 -66q-107 -82 -115 -227h-152q6 174 125 293
q136 129 406 129q255 0 391 -121q108 -103 108 -271q0 -143 -79 -227q-66 -66 -166 -90v-4q125 -13 206 -98q99 -104 99 -258q0 -202 -127 -322q-136 -129 -426 -129q-294 0 -434 145q-124 131 -133 324zM369 1581v152h153v-152h-153zM786 1581v152h154v-152h-154z" />
    <glyph glyph-name="uni04DF" unicode="&#x4df;" horiz-adv-x="1048" 
d="M82 311h135q0 -114 76 -182q74 -68 229 -68q140 0 211 62q68 61 68 172q0 99 -64 154q-59 49 -188 49h-164v102h145q123 0 179 45q59 49 59 131q0 98 -68 154q-63 49 -186 49q-121 0 -184 -49q-73 -59 -76 -162h-135q9 130 92 213q100 100 315 100q205 0 303 -96
q82 -76 82 -205q0 -101 -65 -166q-53 -46 -117 -57v-4q83 -15 143 -72q74 -69 74 -188q0 -172 -121 -262q-101 -72 -303 -72q-107 0 -192.5 20t-147.5 80q-100 100 -100 252zM244 1262v172h147v-172h-147zM659 1262v172h146v-172h-146z" />
    <glyph glyph-name="uni04E2" unicode="&#x4e2;" horiz-adv-x="1497" 
d="M340 217l813 1217h156v-1434h-152v1223l-813 -1223h-156v1434h152v-1217zM432 1593v101h633v-101h-633z" />
    <glyph glyph-name="uni04E3" unicode="&#x4e3;" horiz-adv-x="1200" 
d="M303 164l576 876h159v-1040h-141v879l-573 -879h-162v1040h141v-876zM297 1270v94h633v-94h-633z" />
    <glyph glyph-name="uni04E4" unicode="&#x4e4;" horiz-adv-x="1497" 
d="M340 217l813 1217h156v-1434h-152v1223l-813 -1223h-156v1434h152v-1217zM463 1581v152h153v-152h-153zM881 1581v152h153v-152h-153z" />
    <glyph glyph-name="uni04E5" unicode="&#x4e5;" horiz-adv-x="1200" 
d="M303 164l576 876h159v-1040h-141v879l-573 -879h-162v1040h141v-876zM338 1262v172h147v-172h-147zM754 1262v172h145v-172h-145z" />
    <glyph glyph-name="uni04E6" unicode="&#x4e6;" horiz-adv-x="1617" 
d="M522 1581v152h154v-152h-154zM940 1581v152h154v-152h-154zM803 1477q287 0 463 -164q217 -204 217 -596q0 -216 -62.5 -365.5t-150.5 -232.5q-169 -162 -457 -162q-307 0 -473 166q-18 16 -38.5 40.5t-52 78t-55.5 116t-41.5 158.5t-17.5 201q0 199 59 349t150 241
q170 170 459 170zM811 1348q-203 0 -334 -117q-80 -73 -131 -205t-51 -317q0 -158 42 -283.5t118 -204.5q135 -135 356 -135q213 0 350 137q162 162 162 490q0 348 -184 520q-125 115 -328 115z" />
    <glyph glyph-name="uni04E7" unicode="&#x4e7;" horiz-adv-x="1212" 
d="M328 1262v172h147v-172h-147zM743 1262v172h146v-172h-146zM606 1081q213 0 340 -120q83 -78 120.5 -197.5t37.5 -243.5q0 -292 -166 -446q-72 -67 -152 -91t-178 -24q-216 0 -336 115q-67 56 -115 168.5t-48 277.5q0 284 157 441q120 120 340 120zM606 981
q-145 0 -231 -86q-119 -119 -119 -373q0 -261 127 -381q87 -80 223 -80q137 0 221 78q127 117 127 383q0 244 -108 363q-92 96 -240 96z" />
    <glyph glyph-name="uni04E8" unicode="&#x4e8;" horiz-adv-x="1617" 
d="M811 1348q-216 0 -352 -136q-75 -77 -115 -192.5t-45 -233.5h1022q-6 122 -47.5 238t-110.5 188q-136 136 -352 136zM809 86q223 0 356 139q72 72 114 191t42 254h-1024q0 -128 41.5 -251t116.5 -198q135 -135 354 -135zM805 1477q291 0 467 -166q99 -95 155 -250
t56 -354q0 -391 -211 -588q-177 -162 -467 -162t-463 168q-91 85 -149 233t-58 351q0 207 57.5 357t151.5 239q185 172 461 172z" />
    <glyph glyph-name="uni04E9" unicode="&#x4e9;" horiz-adv-x="1212" 
d="M606 979q-145 0 -229 -84q-104 -104 -119 -317h696q-15 214 -120 319q-84 82 -228 82zM606 61q138 0 228 84q105 100 120 330h-696q0 -74 27 -168t90 -157q89 -89 231 -89zM606 1081q213 0 340 -120q83 -78 120.5 -197.5t37.5 -243.5q0 -292 -166 -446q-72 -67 -152 -91
t-178 -24q-216 0 -336 115q-67 56 -115 168.5t-48 277.5q0 284 157 441q120 120 340 120z" />
    <glyph glyph-name="uni04EA" unicode="&#x4ea;" horiz-adv-x="1617" 
d="M811 1348q-216 0 -352 -136q-75 -77 -115 -192.5t-45 -233.5h1022q-6 122 -47.5 238t-110.5 188q-136 136 -352 136zM809 86q223 0 356 139q72 72 114 191t42 254h-1024q0 -128 41.5 -251t116.5 -198q135 -135 354 -135zM805 1477q291 0 467 -166q99 -95 155 -250
t56 -354q0 -391 -211 -588q-177 -162 -467 -162t-463 168q-91 85 -149 233t-58 351q0 207 57.5 357t151.5 239q185 172 461 172zM522 1581v152h154v-152h-154zM940 1581v152h154v-152h-154z" />
    <glyph glyph-name="uni04EB" unicode="&#x4eb;" horiz-adv-x="1212" 
d="M606 979q-145 0 -229 -84q-104 -104 -119 -317h696q-15 214 -120 319q-84 82 -228 82zM606 61q138 0 228 84q105 100 120 330h-696q0 -74 27 -168t90 -157q89 -89 231 -89zM606 1081q213 0 340 -120q83 -78 120.5 -197.5t37.5 -243.5q0 -292 -166 -446q-72 -67 -152 -91
t-178 -24q-216 0 -336 115q-67 56 -115 168.5t-48 277.5q0 284 157 441q120 120 340 120zM317 1262v172h148v-172h-148zM733 1262v172h146v-172h-146z" />
    <glyph glyph-name="uni04EE" unicode="&#x4ee;" 
d="M651 520l367 914h162l-465 -1141q-69 -170 -129 -230q-51 -51 -108 -67t-128 -16q-76 0 -143 20v131q59 -20 131 -20q83 0 137 49q27 27 54.5 82.5t41.5 101.5l-544 1090h186zM297 1593v101h633v-101h-633z" />
    <glyph glyph-name="uni04EF" unicode="&#x4ef;" horiz-adv-x="980" 
d="M195 1270v94h632v-94h-632zM182 -377v107q34 -9 80 -9q64 0 100 31q32 28 60 115l43 133l-438 1040h170l344 -882l299 882h141l-428 -1198q-40 -108 -63 -141q-13 -21 -29 -35q-58 -53 -164 -53q-57 0 -115 10z" />
    <glyph glyph-name="uni04F0" unicode="&#x4f0;" 
d="M651 520l367 914h162l-465 -1141q-69 -170 -129 -230q-51 -51 -108 -67t-128 -16q-76 0 -143 20v131q59 -20 131 -20q83 0 137 49q27 27 54.5 82.5t41.5 101.5l-544 1090h186zM328 1581v152h153v-152h-153zM745 1581v152h154v-152h-154z" />
    <glyph glyph-name="uni04F1" unicode="&#x4f1;" horiz-adv-x="980" 
d="M225 1262v172h148v-172h-148zM641 1262v172h145v-172h-145zM182 -377v107q34 -9 80 -9q64 0 100 31q32 28 60 115l43 133l-438 1040h170l344 -882l299 882h141l-428 -1198q-40 -108 -63 -141q-13 -21 -29 -35q-58 -53 -164 -53q-57 0 -115 10z" />
    <glyph glyph-name="uni04F2" unicode="&#x4f2;" 
d="M651 520l367 914h162l-465 -1141q-69 -170 -129 -230q-51 -51 -108 -67t-128 -16q-76 0 -143 20v131q59 -20 131 -20q83 0 137 49q27 27 54.5 82.5t41.5 101.5l-544 1090h186zM512 1843h176l-194 -287h-125zM805 1843h176l-195 -287h-124z" />
    <glyph glyph-name="uni04F3" unicode="&#x4f3;" horiz-adv-x="980" 
d="M410 1434h176l-195 -271h-125zM702 1434h177l-195 -271h-125zM182 -377v107q34 -9 80 -9q64 0 100 31q32 28 60 115l43 133l-438 1040h170l344 -882l299 882h141l-428 -1198q-40 -108 -63 -141q-13 -21 -29 -35q-58 -53 -164 -53q-57 0 -115 10z" />
    <glyph glyph-name="uni04F4" unicode="&#x4f4;" horiz-adv-x="1298" 
d="M147 1434h152v-441q0 -127 47 -176q21 -23 57 -38t84 -21.5t83.5 -8t86.5 -1.5q140 0 301 14v672h152v-1434h-152v633q-190 -15 -313 -15q-161 0 -258 21t-151 68q-89 78 -89 274v453zM348 1581v152h154v-152h-154zM766 1581v152h154v-152h-154z" />
    <glyph glyph-name="uni04F5" unicode="&#x4f5;" horiz-adv-x="1028" 
d="M109 1040h141v-340q0 -87 33 -120q27 -27 82.5 -35t171.5 -8q11 0 188 6v497h141v-1040h-141v440q-117 -8 -242 -8q-70 0 -117 2.5t-110.5 20t-95.5 49.5q-24 25 -36 60.5t-13.5 58.5t-1.5 61v356zM205 1262v172h147v-172h-147zM621 1262v172h145v-172h-145z" />
    <glyph glyph-name="uni04F8" unicode="&#x4f8;" horiz-adv-x="1726" 
d="M340 1434v-600h410q99 0 185.5 -22t160.5 -89q123 -115 123 -305t-113 -303q-115 -115 -344 -115h-574v1434h152zM340 705v-576h405q169 0 244 82q36 37 55 92t19 113q0 131 -80 207q-86 82 -272 82h-371zM1386 1434h152v-1434h-152v1434zM578 1581v152h153v-152h-153z
M995 1581v152h154v-152h-154z" />
    <glyph glyph-name="uni04F9" unicode="&#x4f9;" horiz-adv-x="1419" 
d="M162 1040h141v-417h272h64q131 0 211 -50q135 -84 135 -256q0 -97 -39 -164.5t-94 -101.5q-85 -51 -225 -51h-465v1040zM303 520v-418h275q120 0 178 41q82 57 82 170q0 104 -60 156q-26 23 -62.5 35t-64 14t-73.5 2h-275zM1116 1040h141v-1040h-141v1040zM420 1262v172
h147v-172h-147zM836 1262v172h145v-172h-145z" />
    <glyph glyph-name="uni1E9E" unicode="&#x1e9e;" horiz-adv-x="2615" 
d="M1378 453h154q-2 -150 94 -246q58 -59 148.5 -88t185.5 -29q92 0 173 24t130 72q80 80 80 193q0 99 -64 170q-30 33 -89 59.5t-101.5 37.5t-83.5 18l-143 26q-57 11 -96.5 20.5t-93.5 27.5t-97 44.5t-74 61.5q-84 96 -84 227q0 107 47 189.5t125 132.5q133 86 359 86
q244 0 391 -131q19 -19 38.5 -44t49.5 -93t37 -144h-152q-12 124 -94 199q-91 84 -283 84q-25 0 -57.5 -3t-88 -16.5t-93.5 -36.5q-57 -35 -88 -91t-31 -122q0 -84 55 -143q67 -70 254 -104l135 -27q135 -27 225.5 -60t151.5 -90q105 -97 105 -264q0 -192 -123 -309
q-137 -123 -406 -123q-313 0 -463 150q-56 56 -94.5 143t-38.5 199zM109 453h153q-2 -150 94 -246q58 -59 148.5 -88t185.5 -29q92 0 173 24t130 72q80 80 80 193q0 100 -63 170q-43 47 -123.5 74.5t-151.5 40.5l-143 26q-57 11 -96.5 20.5t-93.5 27.5t-97 44.5t-74 61.5
q-84 96 -84 227q0 107 47 189.5t125 132.5q133 86 359 86q244 0 391 -131q19 -19 38.5 -44t49.5 -93t37 -144h-152q-12 124 -94 199q-91 84 -282 84q-26 0 -58.5 -3t-88 -16.5t-93.5 -36.5q-57 -35 -88 -91t-31 -122q0 -84 55 -143q67 -70 254 -104l136 -27
q134 -27 224.5 -60t151.5 -90q105 -97 105 -264q0 -192 -123 -309q-137 -123 -405 -123q-313 0 -463 150q-56 56 -94.5 143t-38.5 199z" />
    <glyph glyph-name="uni2010" unicode="&#x2010;" horiz-adv-x="827" 
d="M143 465v162h541v-162h-541z" />
    <glyph glyph-name="uni2011" unicode="&#x2011;" horiz-adv-x="827" 
d="M143 465v162h541v-162h-541z" />
    <glyph glyph-name="figuredash" unicode="&#x2012;" horiz-adv-x="1228" 
d="M102 786h1024v-98h-1024v98z" />
    <glyph glyph-name="endash" unicode="&#x2013;" horiz-adv-x="1228" 
d="M102 594h1024v-98h-1024v98z" />
    <glyph glyph-name="emdash" unicode="&#x2014;" horiz-adv-x="2015" 
d="M102 496v98h1811v-98h-1811z" />
    <glyph glyph-name="afii00208" unicode="&#x2015;" horiz-adv-x="2015" 
d="M102 496v98h1811v-98h-1811z" />
    <glyph glyph-name="quoteleft" unicode="&#x2018;" horiz-adv-x="614" 
d="M389 987h-164v236q0 66 13 112t47 80q38 38 104 55v-94q-43 -14 -61 -47q-21 -39 -21 -104v-45h82v-193z" />
    <glyph glyph-name="quoteright" unicode="&#x2019;" horiz-adv-x="614" 
d="M225 1434h164v-236q0 -67 -12.5 -112.5t-46.5 -79.5q-39 -39 -105 -56v94q44 15 62 48q20 37 20 104v45h-82v193z" />
    <glyph glyph-name="quotesinglbase" unicode="&#x201a;" horiz-adv-x="614" 
d="M225 193h164v-236q0 -67 -12.5 -113t-46.5 -80q-38 -38 -105 -55v94q44 15 62 47q20 37 20 105v45h-82v193z" />
    <glyph glyph-name="quotedblleft" unicode="&#x201c;" horiz-adv-x="753" 
d="M307 987h-164v236q0 66 13 112t47 80q38 38 104 55v-94q-43 -14 -61 -47q-21 -39 -21 -104v-45h82v-193zM610 987h-164v236q0 66 13 112t47 80q38 38 104 55v-94q-43 -14 -61 -47q-21 -39 -21 -104v-45h82v-193z" />
    <glyph glyph-name="quotedblright" unicode="&#x201d;" horiz-adv-x="753" 
d="M446 1432h164v-236q0 -67 -12.5 -112.5t-46.5 -79.5q-39 -39 -105 -56v94q44 15 62 48q20 37 20 104v45h-82v193zM143 1432h164v-236q0 -67 -12.5 -112.5t-46.5 -79.5q-39 -39 -105 -56v94q44 15 62 48q20 37 20 104v45h-82v193z" />
    <glyph glyph-name="quotedblbase" unicode="&#x201e;" horiz-adv-x="751" 
d="M143 193h164v-236q0 -67 -12.5 -113t-46.5 -80q-38 -38 -105 -55v94q44 15 62 47q20 37 20 105v45h-82v193zM444 193h164v-236q0 -67 -12.5 -113t-46.5 -80q-38 -38 -105 -55v94q44 15 62 47q20 37 20 105v45h-82v193z" />
    <glyph glyph-name="dagger" unicode="&#x2020;" horiz-adv-x="1024" 
d="M446 1434h132v-394h378v-110h-378v-1309h-132v1309h-378v110h378v394z" />
    <glyph glyph-name="daggerdbl" unicode="&#x2021;" horiz-adv-x="1024" 
d="M446 1434h132v-394h378v-110h-378v-422h378v-111h-378v-776h-132v776h-378v111h378v422h-378v110h378v394z" />
    <glyph glyph-name="bullet" unicode="&#x2022;" horiz-adv-x="1069" 
d="M348 717q0 78 54.5 132t132.5 54t132 -54t54 -132t-54 -132.5t-132 -54.5t-132.5 54.5t-54.5 132.5z" />
    <glyph glyph-name="ellipsis" unicode="&#x2026;" horiz-adv-x="1820" 
d="M225 0v193h164v-193h-164zM829 0v193h164v-193h-164zM1434 0v193h161v-193h-161z" />
    <glyph glyph-name="perthousand" unicode="&#x2030;" horiz-adv-x="2615" 
d="M438 1450q131 0 224 -88q112 -112 112 -309q0 -219 -115 -334q-88 -88 -215 -88q-133 0 -223 90q-112 112 -112 319q0 200 110 318q89 92 219 92zM434 1358q-74 0 -125 -51q-84 -84 -84 -263q0 -180 76 -262q54 -59 139 -59q79 0 138 59q41 46 61 118.5t20 146.5
q0 169 -84 253q-58 58 -141 58zM373 0l970 1434h119l-970 -1434h-119zM1380 803q131 0 224 -88q112 -112 112 -309q0 -220 -114 -334q-88 -88 -216 -88q-133 0 -223 90q-112 112 -112 319q0 200 110 318q89 92 219 92zM1376 711q-73 0 -125 -52q-84 -84 -84 -262
q0 -180 76 -262q54 -59 139 -59q79 0 138 59q41 46 61.5 118.5t20.5 145.5q0 170 -84 254q-58 58 -142 58zM2171 803q130 0 223 -88q113 -113 113 -309q0 -219 -115 -334q-88 -88 -215 -88q-133 0 -223 90q-113 113 -113 319q0 199 111 318q89 92 219 92zM2167 711
q-73 0 -125 -52q-84 -84 -84 -262q0 -180 76 -262q54 -59 139 -59q78 0 137 59q41 46 61.5 118.5t20.5 145.5q0 170 -84 254q-58 58 -141 58z" />
    <glyph glyph-name="guilsinglleft" unicode="&#x2039;" horiz-adv-x="585" 
d="M201 559l231 -194v-140l-305 269v133l305 268v-139z" />
    <glyph glyph-name="guilsinglright" unicode="&#x203a;" horiz-adv-x="585" 
d="M383 559l-229 197v139l305 -268v-133l-305 -269v140z" />
    <glyph glyph-name="fraction" unicode="&#x2044;" horiz-adv-x="409" 
d="M-307 0l950 1434h74l-950 -1434h-74z" />
    <glyph glyph-name="Euro" unicode="&#x20ac;" 
d="M1081 256v-164q-64 -48 -149 -86q-117 -49 -238 -49q-135 0 -233.5 47t-157.5 115q-63 71 -104 178t-52 217h-188l51 119h125q-3 84 0 155h-176l47 119h141q11 107 54.5 214.5t109.5 183.5q63 72 166.5 122t241.5 50q132 0 246 -62q92 -50 157 -141l-71 -133
q-54 92 -150 155q-85 52 -190 52q-183 0 -289 -123q-53 -60 -84.5 -147.5t-36.5 -170.5h660l-48 -119h-618q-3 -79 0 -155h559l-51 -119h-496q6 -85 39.5 -170t87.5 -143q110 -115 275 -115q107 0 215 53q73 33 157 117z" />
    <glyph glyph-name="afii61352" unicode="&#x2116;" horiz-adv-x="2209" 
d="M340 1206v-1206h-152v1434h174l805 -1207v1207h152v-1434h-172zM1499 283v133h596v-133h-596zM1798 600q-137 0 -225 88q-98 98 -98 287q0 184 94 287q49 55 104 73.5t125 18.5q71 0 126 -18.5t104 -73.5q94 -103 94 -287q0 -188 -99 -287q-88 -88 -225 -88zM1604 977
q0 -150 67 -219q51 -51 125 -51q76 0 127 51q70 76 70 219q0 141 -70 219q-51 51 -127 51q-74 0 -125 -51q-67 -69 -67 -219z" />
    <glyph glyph-name="uni2117" unicode="&#x2117;" horiz-adv-x="1638" 
d="M598 365v716h313q126 0 187 -57q53 -53 53 -141q0 -99 -51 -150q-71 -71 -244 -71h-143v-297h-115zM713 995v-247h172q80 0 116 38q33 33 33 91q0 47 -28 79q-39 39 -127 39h-166zM215 715q0 -271 195 -459q171 -168 409 -168q111 0 219 42.5t189 119.5q92 86 144 211
t52 256t-52.5 254t-141.5 211q-84 79 -192 121.5t-218 42.5t-217.5 -42.5t-191.5 -121.5q-90 -88 -142.5 -211.5t-52.5 -255.5zM102 721q0 149 61 283t165 235q102 96 231 145.5t260 49.5q142 0 273.5 -55.5t226.5 -145.5q97 -96 157 -231.5t60 -284.5q0 -34 -3 -69
t-16.5 -94t-36 -114t-66.5 -121t-103 -122q-112 -108 -241.5 -152.5t-250.5 -44.5q-133 0 -261 49.5t-230 145.5q-115 106 -170.5 245.5t-55.5 280.5z" />
    <glyph glyph-name="trademark" unicode="&#x2122;" horiz-adv-x="1660" 
d="M272 1339h-231v95h590v-95h-232v-622h-127v622zM1126 717l-211 557h-6l6 -92v-465h-124v717h163l197 -506l18 -72h7l16 72l194 506h166v-717h-127v465l9 92h-9l-211 -557h-88z" />
    <glyph glyph-name="partialdiff" unicode="&#x2202;" horiz-adv-x="1157" 
d="M479 1423l25 78q114 -15 250.5 -64.5t224.5 -129.5q149 -145 149 -410q0 -88 -10 -181t-33.5 -204.5t-73.5 -216t-120 -176.5q-87 -90 -189.5 -125t-226.5 -35q-89 0 -165.5 23t-139.5 94q-98 112 -98 291q0 171 79 337t209 250q137 86 320 86q150 0 229 -59
q76 -54 103 -154h6q8 120 -22 230.5t-107 187.5q-116 116 -410 178zM496 61q164 0 284 123q82 86 121 218t39 243q0 158 -80 232q-65 61 -194 61q-173 0 -283 -123q-67 -70 -114.5 -196t-47.5 -252q0 -148 76 -228q78 -78 199 -78z" />
    <glyph glyph-name="product" unicode="&#x220f;" horiz-adv-x="1427" 
d="M328 1305v-1305h-152v1305h-90v129h1255v-129h-92v-1305h-151v1305h-770z" />
    <glyph glyph-name="summation" unicode="&#x2211;" horiz-adv-x="1120" 
d="M1042 1434v-129h-735l438 -547l-469 -629h795v-129h-981v117l479 641l-450 557v119h923z" />
    <glyph glyph-name="minus" unicode="&#x2212;" horiz-adv-x="1228" 
d="M102 776h1024v-98h-1024v98z" />
    <glyph glyph-name="uni2215" unicode="&#x2215;" horiz-adv-x="204" 
d="M-410 0l928 1434h96l-927 -1434h-97z" />
    <glyph glyph-name="uni2219" unicode="&#x2219;" horiz-adv-x="614" 
d="M225 451v194h164v-194h-164z" />
    <glyph glyph-name="radical" unicode="&#x221a;" horiz-adv-x="1304" 
d="M449 1024l245 -846l234 1520h336v-99h-236l-289 -1804h-104l-346 1131h-248v98h408z" />
    <glyph glyph-name="infinity" unicode="&#x221e;" horiz-adv-x="2027" 
d="M971 614q-61 -73 -162 -151q-148 -111 -309 -111q-155 0 -258 103q-99 99 -99 258q0 149 99 252q111 118 336 118q157 0 266 -67q98 -60 198 -195q99 120 181 176q123 84 293 84q172 0 268 -94q100 -96 100 -252q0 -174 -112 -278q-112 -105 -308 -105q-91 0 -162 20
t-153 74q-96 65 -178 168zM918 682q-69 106 -158 192q-128 125 -271 125q-107 0 -180 -73q-76 -76 -76 -203q0 -125 80 -205t207 -80q69 0 126 23.5t120 73.5q83 66 152 147zM1102 760q71 -100 162 -182q62 -57 124 -89t146 -32q113 0 186 73q74 74 74 199q0 119 -70 189
q-77 77 -225 77q-128 0 -231 -69q-32 -21 -63.5 -50t-50 -51t-34.5 -42.5t-18 -22.5z" />
    <glyph glyph-name="integral" unicode="&#x222b;" horiz-adv-x="632" 
d="M324 266l-174 484q-49 151 -56 174q-24 102 -24 202q0 187 86 273q74 78 206 78q99 0 146 -47q35 -35 35 -95q0 -38 -25 -63q-21 -21 -59 -21q-45 0 -68 23q-8 8 -24 45q-2 5 -4 13t-3.5 13t-5 11.5t-8.5 11.5q-16 16 -47 16q-41 0 -68 -24q-45 -42 -45 -127
q0 -83 41 -211q7 -26 82 -234l174 -483q36 -89 56 -174q24 -124 24 -203q0 -186 -86 -272q-74 -78 -207 -78q-98 0 -145 47q-35 35 -35 94q0 39 25 64q20 20 59 20q46 0 68 -22q8 -8 24 -45q2 -5 4 -13t3.5 -13t5 -11.5t8.5 -11.5q17 -17 47 -17q39 0 67 25q45 42 45 127
q0 86 -40 211q-6 22 -82 233z" />
    <glyph glyph-name="approxequal" unicode="&#x2248;" horiz-adv-x="1210" 
d="M172 803l-70 28q33 104 99 170q76 76 178 76q74 0 162 -47l196 -104q3 -1 13 -6.5t14 -7.5t13.5 -6.5t16 -6t16.5 -4t20.5 -3.5t21.5 -1q46 0 76 15.5t57 51.5q20 25 34 54t17 41l72 -29q-38 -105 -102 -172q-71 -74 -166 -74q-82 0 -170 47l-201 109q-60 31 -115 31
q-68 0 -112 -47q-45 -45 -70 -115zM172 403l-70 29q33 104 99 170q76 76 178 76q74 0 162 -47l196 -105q1 -1 11 -6t12.5 -6t12 -5.5t13.5 -5.5t13.5 -4t16 -4t16.5 -2t20 -1q46 0 76 15.5t57 51.5q20 25 34 54t17 40l72 -28q-38 -105 -102 -172q-71 -74 -166 -74
q-82 0 -170 47l-201 109q-58 30 -115 30q-68 0 -112 -47q-45 -45 -70 -115z" />
    <glyph glyph-name="notequal" unicode="&#x2260;" horiz-adv-x="1228" 
d="M102 961h600l150 256l88 -52l-119 -204h305v-99h-362l-180 -311h542v-98h-600l-149 -256l-88 51l121 205h-308v98h363l180 311h-543v99z" />
    <glyph glyph-name="lessequal" unicode="&#x2264;" horiz-adv-x="1357" 
d="M123 801v82l1014 592l49 -91l-940 -542l940 -543l-49 -90zM123 473l49 88l1014 -590l-49 -90z" />
    <glyph glyph-name="greaterequal" unicode="&#x2265;" horiz-adv-x="1357" 
d="M1235 801l-1014 -592l-49 90l940 543l-940 542l49 91l1014 -592v-82zM1235 473l-1014 -592l-49 90l1014 590z" />
    <glyph glyph-name="dotmath" unicode="&#x22c5;" horiz-adv-x="614" 
d="M225 451v194h164v-194h-164z" />
    <glyph glyph-name="lozenge" unicode="&#x25ca;" horiz-adv-x="847" 
d="M639 717l-215 469l-215 -469l215 -469zM741 717l-317 -686l-318 686l318 686z" />
    <glyph glyph-name="openbullet" unicode="&#x25e6;" horiz-adv-x="540" 
d="M156 1239q0 -47 33.5 -81t80.5 -34t81 34t34 81t-34 81t-81 34t-80.5 -34t-33.5 -81zM76 1239q0 80 57.5 137.5t136.5 57.5q80 0 137.5 -58t57.5 -137t-57.5 -137t-137.5 -58q-79 0 -136.5 57.5t-57.5 137.5z" />
    <glyph glyph-name="uniF401" unicode="&#xf401;" horiz-adv-x="4" 
d="M-696 1843h188l-203 -287h-133z" />
    <glyph glyph-name="uniF406" unicode="&#xf406;" horiz-adv-x="888" 
d="M657 1817h129q-19 -112 -84 -177q-94 -94 -251 -94q-171 0 -265 94q-66 70 -84 177h129q9 -73 50 -117q56 -58 163 -58q108 0 164 58q40 43 49 117z" />
    <glyph glyph-name="uniF407" unicode="&#xf407;" horiz-adv-x="610" 
d="M88 -475l29 92q47 -16 119 -16q118 0 153 37q23 23 23 63q0 42 -27 61q-38 33 -147 33h-64l25 86h57q87 0 144.5 -12.5t93.5 -48.5q43 -43 43 -109q0 -89 -52 -141q-62 -62 -227 -62q-76 0 -170 17z" />
    <glyph glyph-name="uniF408" unicode="&#xf408;" horiz-adv-x="927" 
d="M346 1843h236l243 -270h-139l-223 215l-221 -215h-140z" />
    <glyph glyph-name="uniF409" unicode="&#xf409;" horiz-adv-x="366" 
d="M102 -123h162v-180q0 -109 -51 -160q-43 -43 -111 -51v94q35 6 56 27q26 26 26 80v24h-82v166z" />
    <glyph glyph-name="uniF40A" unicode="&#xf40a;" horiz-adv-x="368" 
d="M102 1434h164v-236q0 -67 -12.5 -112.5t-46.5 -79.5q-39 -39 -105 -56v94q44 15 62 48q20 37 20 104v45h-82v193z" />
    <glyph glyph-name="uniF40B" unicode="&#xf40b;" horiz-adv-x="358" 
d="M102 1581v152h154v-152h-154z" />
    <glyph glyph-name="uniF40C" unicode="&#xf40c;" horiz-adv-x="606" 
d="M102 1704q0 85 58 143t143 58t143 -58t58 -143t-58 -143t-143 -58t-143 58t-58 143zM176 1704q0 -45 34 -86t93 -41q54 0 90.5 36.5t36.5 90.5t-36.5 90.5t-90.5 36.5q-59 0 -93 -41t-34 -86z" />
    <glyph glyph-name="uniF40D" unicode="&#xf40d;" horiz-adv-x="966" 
d="M762 1761h102q-28 -103 -82 -157q-52 -52 -125 -52q-56 0 -93.5 13t-78.5 41l-49 32l-12 8l-12 8t-11 6.5t-12 6t-11.5 4.5t-13.5 4.5t-14.5 3t-17.5 2t-19 0.5q-47 0 -75 -28q-30 -38 -33 -80h-103q14 85 72 143q62 62 148 62q81 0 151 -49l49 -35q61 -45 129 -45
q40 0 66 26q34 32 45 86z" />
    <glyph glyph-name="uniF40E" unicode="&#xf40e;" horiz-adv-x="698" 
d="M246 0h145q-67 -41 -106 -92q-45 -58 -45 -133q0 -58 32 -86q27 -27 80 -27q50 0 86 31q42 38 45 102h117q-8 -98 -78 -168q-70 -65 -186 -65q-114 0 -178 57q-60 52 -60 139q0 83 47 148q35 51 101 94z" />
    <glyph glyph-name="uniF47E" unicode="&#xf47e;" horiz-adv-x="1423" 
d="M162 1434h151v-861q0 -80 4 -133t26 -121.5t63 -111.5q49 -54 131.5 -84.5t175.5 -30.5q95 0 174.5 29t128.5 82q57 63 75.5 153t18.5 217v861h152v-877q0 -67 -4 -116t-17.5 -114.5t-46 -123.5t-82.5 -107q-84 -80 -183 -106.5t-218 -26.5q-268 0 -406 129
q-82 78 -112.5 195.5t-30.5 269.5v877zM625 1581v152h153v-152h-153z" />
    <glyph glyph-name="uniF47F" unicode="&#xf47f;" horiz-adv-x="1161" 
d="M999 0h-141v150h-4q-58 -94 -135 -138q-86 -53 -225 -53q-154 0 -242 88q-52 51 -71 120t-19 171v702h141v-647q0 -102 12.5 -164.5t55.5 -105.5q62 -62 164 -62q134 0 231 99q57 61 74.5 132t17.5 167v581h141v-1040zM512 1262v172h152v-172h-152z" />
    <glyph glyph-name="uniF481" unicode="&#xf481;" horiz-adv-x="1271" 
d="M324 412l-154 -412h-164l545 1434h170l545 -1434h-166l-152 412h-624zM367 541h536l-268 747zM426 -475l29 92q47 -16 118 -16q119 0 154 37q23 23 23 63q0 42 -27 61q-38 33 -148 33h-63l25 86h57q87 0 144 -12.5t93 -48.5q43 -43 43 -109q0 -90 -51 -141
q-62 -62 -227 -62q-76 0 -170 17z" />
    <glyph glyph-name="uniF482" unicode="&#xf482;" horiz-adv-x="1138" 
d="M274 741h-137q0 69 31.5 143t103.5 126q101 71 293 71q209 0 305 -96q54 -54 70 -113.5t14 -130.5l-12 -518v-9.5v-11v-10t0.5 -10.5t1.5 -10t2 -10.5t2.5 -9t3.5 -9.5t5 -8l6 -8q34 -40 94 -25v-102q-24 -8 -76 -8q-82 0 -121 39q-49 49 -45 135q-52 -87 -135 -133
q-102 -58 -244 -58q-170 0 -256 84q-86 80 -86 220q0 120 76 196q88 88 330 113l67 8q17 3 65.5 7.5t74.5 8.5q59 9 81 31q25 27 25 100q0 120 -63 179q-64 57 -197 57q-149 0 -213 -64q-31 -31 -47.5 -78.5t-18.5 -95.5zM805 444l4 107q-27 -25 -82 -35q-66 -11 -184 -22
l-41 -5q-156 -19 -211 -71q-49 -49 -49 -142q0 -86 53 -139q33 -37 73 -48t91 -11q135 0 223 72q57 47 87.5 124.5t35.5 169.5zM326 -475l29 92q47 -16 119 -16q118 0 153 37q23 23 23 63q0 42 -27 61q-38 33 -147 33h-64l25 86h57q87 0 144.5 -12.5t93.5 -48.5
q43 -43 43 -109q0 -89 -52 -141q-62 -62 -227 -62q-76 0 -170 17z" />
    <glyph glyph-name="uniF483" unicode="&#xf483;" horiz-adv-x="1189" 
d="M100 1434h998v-127l-865 -1178h904v-129h-1084v141l873 1164h-826v129zM410 1704q0 85 57.5 143t142.5 58t143 -58t58 -143t-58 -143t-143 -58t-142.5 58t-57.5 143zM483 1704q0 -45 34 -86t93 -41q54 0 90.5 36.5t36.5 90.5t-36.5 90.5t-90.5 36.5q-59 0 -93 -41
t-34 -86z" />
    <glyph glyph-name="uniF484" unicode="&#xf484;" horiz-adv-x="933" 
d="M98 1040h752v-106l-625 -832h656v-102h-828v100l645 838h-600v102zM297 1319q0 79 54.5 133.5t134.5 54.5q79 0 133.5 -54.5t54.5 -133.5q0 -80 -54.5 -134.5t-133.5 -54.5t-134 55t-55 134zM365 1319q0 -49 34.5 -85t86.5 -36q49 0 84 35.5t35 85.5t-35 85.5t-84 35.5
q-52 0 -86.5 -36t-34.5 -85z" />
    <glyph glyph-name="uniF4C4" unicode="&#xf4c4;" horiz-adv-x="1126" 
d="M334 -475l28 92q47 -16 119 -16q119 0 154 37q22 22 22 63q0 42 -26 61q-38 33 -148 33h-63l24 86h58q87 0 144 -12.5t93 -48.5q43 -43 43 -109q0 -90 -51 -141q-62 -62 -227 -62q-77 0 -170 17zM487 1305h-475v129h1102v-129h-475v-1305h-152v1305z" />
    <glyph glyph-name="uniF4C5" unicode="&#xf4c5;" horiz-adv-x="888" 
d="M375 938h-363v102h865v-102h-361v-938h-141v938zM211 -475l29 92q47 -16 118 -16q119 0 154 37q23 23 23 63q0 42 -27 61q-38 33 -148 33h-63l25 86h57q87 0 144 -12.5t93 -48.5q43 -43 43 -109q0 -90 -51 -141q-62 -62 -227 -62q-77 0 -170 17z" />
    <glyph glyph-name="uniF4C8" unicode="&#xf4c8;" horiz-adv-x="1501" 
d="M590 -475l28 92q47 -16 119 -16q119 0 154 37q22 22 22 63q0 42 -26 61q-38 33 -148 33h-63l24 86h58q87 0 144 -12.5t93 -48.5q43 -43 43 -109q0 -90 -51 -141q-62 -62 -227 -62q-76 0 -170 17zM1245 467h154q-12 -104 -55 -197t-111 -161q-90 -90 -196.5 -121
t-235.5 -31q-63 0 -116 6.5t-115.5 24t-122.5 55t-113 92.5q-104 109 -151.5 262.5t-47.5 321.5t46.5 323.5t154.5 260.5q182 174 459 174q126 0 246.5 -37.5t201.5 -114.5q58 -58 95.5 -140.5t43.5 -180.5h-153q-11 130 -103 229q-111 115 -319 115q-215 0 -342 -125
q-168 -165 -168 -482q0 -155 42.5 -296.5t133.5 -229.5q129 -129 338 -129q187 0 309 113q114 114 125 268z" />
    <glyph glyph-name="uniF4C9" unicode="&#xf4c9;" horiz-adv-x="1120" 
d="M354 -475l29 92q47 -16 119 -16q118 0 153 37q23 23 23 63q0 42 -27 61q-38 33 -147 33h-64l25 86h57q87 0 144.5 -12.5t93.5 -48.5q43 -43 43 -109q0 -90 -51 -141q-62 -62 -228 -62q-77 0 -170 17zM903 365h135q-8 -83 -43 -165t-92 -139q-63 -63 -134 -82.5
t-167 -19.5q-101 0 -181.5 22.5t-154.5 92.5q-74 71 -115.5 187.5t-41.5 268.5q0 134 34.5 241t98.5 175q118 135 352 135q205 0 317 -108q98 -98 117 -246h-135q-11 95 -72 164q-76 88 -217 88q-145 0 -237 -92q-109 -109 -109 -352q0 -260 125 -385q89 -89 221 -89
q133 0 207 78q38 41 62.5 103t29.5 123z" />
    <glyph glyph-name="uniF4CC" unicode="&#xf4cc;" 
d="M651 520l367 914h162l-465 -1141q-69 -170 -129 -230q-51 -51 -108 -67t-128 -16q-76 0 -143 20v131q59 -20 131 -20q83 0 137 49q27 27 54.5 82.5t41.5 101.5l-544 1090h186zM668 1843h188l-203 -287h-133z" />
    <glyph glyph-name="uniF4CD" unicode="&#xf4cd;" horiz-adv-x="980" 
d="M571 1434h177l-195 -271h-125zM182 -377v107q34 -9 80 -9q64 0 100 31q32 28 60 115l43 133l-438 1040h170l344 -882l299 882h141l-428 -1198q-40 -108 -63 -141q-13 -21 -29 -35q-58 -53 -164 -53q-57 0 -115 10z" />
    <glyph glyph-name="dollar.fitted" unicode="&#xf5f5;" horiz-adv-x="1077" 
d="M41 436h147q0 -168 101 -262q83 -74 215 -84v592q-86 24 -131 39t-98 42t-89 62q-102 99 -102 265q0 164 98 262q59 59 146 89t176 25v125h92v-125q78 0 158.5 -27t132.5 -79q34 -34 57 -77.5t32 -82.5t12 -60.5t3 -35.5h-141q-9 113 -74 178q-69 69 -180 72v-551
q131 -31 210 -65t128 -85q100 -100 100 -270q0 -190 -110 -295q-57 -57 -146 -89t-182 -28v-161h-92v161q-99 -4 -187 30t-147 91q-64 64 -96.5 159.5t-32.5 184.5zM596 666v-578q135 0 213 78q78 71 78 203t-78 202q-41 36 -100 61.5t-113 33.5zM504 821v533
q-58 4 -113.5 -16t-93.5 -56q-70 -70 -70 -188q0 -50 18 -97t50 -77q64 -64 209 -99z" />
    <glyph glyph-name="Euro.fitted" unicode="&#xf5f6;" horiz-adv-x="1267" 
d="M1159 256v-164q-64 -48 -149 -86q-117 -49 -238 -49q-135 0 -233.5 47t-157.5 115q-63 71 -104 178t-52 217h-188l51 119h125q-3 84 0 155h-176l47 119h141q11 107 54.5 214.5t109.5 183.5q63 72 166.5 122t241.5 50q131 0 245 -62q94 -51 158 -141l-72 -133
q-54 93 -149 155q-85 52 -191 52q-182 0 -288 -123q-53 -60 -84.5 -147.5t-36.5 -170.5h659l-47 -119h-618q-3 -79 0 -155h559l-51 -119h-496q6 -85 39.5 -170t87.5 -143q110 -115 274 -115q107 0 215 53q75 34 158 117z" />
    <glyph glyph-name="cent.fitted" unicode="&#xf5f7;" horiz-adv-x="1009" 
d="M842 365h135q-14 -142 -86 -246q-104 -150 -305 -160v-147h-92v147q-213 8 -336 172q-111 148 -111 397q0 276 133 418q50 57 131.5 94t182.5 41v136h92v-136q159 -9 260 -104q105 -105 121 -250h-136q-11 97 -71 164q-29 33 -66.5 53.5t-57 25t-50.5 9.5v-918
q122 17 194 119q52 78 62 185zM494 63v914q-111 -8 -183 -80q-114 -114 -114 -362q0 -177 59 -297q77 -145 238 -175z" />
    <glyph glyph-name="sterling.fitted" unicode="&#xf5f8;" horiz-adv-x="1114" 
d="M987 176l68 -94q-110 -125 -252 -125q-13 0 -25.5 0.5t-26.5 3t-22.5 4t-23.5 6t-21 6t-22.5 7.5t-19.5 7t-21.5 8.5t-20.5 8.5q-123 53 -217 53q-122 0 -223 -77l-76 106q60 41 101 83t51 60q36 51 49.5 98.5t13.5 108.5q0 106 -43 193h-201v102h154q-84 167 -84 305
q0 199 115 314q123 123 354 123q215 0 334 -121q114 -117 114 -348h-149v14q0 180 -84 264q-78 78 -225 78q-151 0 -230 -84q-80 -87 -80 -217q0 -141 97 -328h325v-102h-284q30 -81 30 -170q0 -104 -49 -189q-41 -70 -88 -110l4 -8q68 24 142 24q57 0 99 -12t101 -37
q93 -41 158 -41q92 0 178 86z" />
    <glyph glyph-name="yen.fitted" unicode="&#xf5f9;" horiz-adv-x="1239" 
d="M618 750l410 684h182l-516 -822v-43h236v-84h-236v-131h236v-84h-236v-270h-151v270h-236v84h236v131h-236v84h236v43l-512 822h182z" />
    <glyph glyph-name="florin.fitted" unicode="&#xf5fa;" horiz-adv-x="944" 
d="M854 1040l-20 -102h-224l-221 -1049q-29 -141 -94 -206q-70 -70 -201 -70q-46 0 -82 8l23 107q28 -4 45 -4q25 0 40 1.5t36 11t37 27.5q35 35 53 121l221 1053h-191l23 102h190l31 142q30 118 78 168q82 84 231 84q53 0 109 -15l-18 -100q-44 12 -91 12q-24 0 -39.5 -2
t-37 -11.5t-39.5 -27.5q-41 -41 -54 -114l-28 -136h223z" />
    <glyph glyph-name="numbersign.fitted" unicode="&#xf5ff;" horiz-adv-x="1230" 
d="M772 66h-110l49 329h-293l-49 -329h-111l49 329h-274l22 144h275l57 366h-274l22 144h275l51 327h110l-51 -327h293l51 327h111l-51 -327h274l-22 -144h-275l-57 -366h274l-20 -144h-275zM733 539l58 366h-293l-58 -366h293z" />
    <glyph glyph-name="uniF639" unicode="&#xf639;" horiz-adv-x="1126" 
d="M563 -43q-96 0 -170 27.5t-137 93.5q-100 105 -144 282t-44 367q0 186 45.5 358t146.5 273q119 119 299 119q188 0 307 -119q95 -96 144 -261.5t49 -367.5q0 -216 -49 -389t-146 -268q-115 -115 -301 -115zM563 86q110 0 193 80q151 151 151 551q0 393 -151 551
q-80 80 -193 80q-116 0 -196 -80q-56 -56 -91.5 -163t-46 -200.5t-10.5 -187.5q0 -72 6.5 -142t21.5 -149.5t47 -148t77 -111.5q80 -80 192 -80z" />
    <glyph glyph-name="uniF63A" unicode="&#xf63a;" horiz-adv-x="1054" 
d="M1006 129v-129h-934v20q0 125 37.5 214t130.5 182q114 108 319 237q119 78 160 115q32 28 55 59q74 95 74 224q0 142 -86 221q-80 76 -219 76q-146 0 -228 -82q-53 -51 -69.5 -113t-16.5 -141v-23h-151v37q0 203 129 332q119 119 340 119q219 0 338 -117t119 -318
q0 -100 -28 -173t-93 -140q-69 -74 -252 -186l-105 -66q-133 -85 -204 -164q-73 -84 -82 -184h766z" />
    <glyph glyph-name="uniF63B" unicode="&#xf63b;" horiz-adv-x="1083" 
d="M57 422h146q0 -73 25 -140.5t67 -109.5q88 -90 248 -90q152 0 239 80q92 83 92 254q0 125 -79 196q-89 78 -246 78h-100v125h57q49 0 77.5 1.5t80 18.5t86.5 50q77 67 77 190q0 126 -79 205q-77 72 -205 72q-150 0 -226 -76q-39 -39 -61.5 -103t-22.5 -141v-24h-143v22
q0 209 127 336q116 111 324 111q201 0 317 -109q113 -110 113 -285q0 -151 -99 -243q-51 -51 -131 -74v-4q97 -14 172 -86q59 -58 83 -123.5t24 -151.5q0 -191 -115 -309q-135 -135 -368 -135q-83 0 -152.5 17t-117.5 45t-85.5 67.5t-59.5 80t-37 88t-21 87t-7 80.5z" />
    <glyph glyph-name="uniF63C" unicode="&#xf63c;" horiz-adv-x="1095" 
d="M678 342h-668v129l664 963h155v-963h230v-129h-230v-342h-151v342zM162 471h516v758z" />
    <glyph glyph-name="uniF63D" unicode="&#xf63d;" horiz-adv-x="1071" 
d="M59 354h152q6 -52 29.5 -104.5t60.5 -87.5q80 -80 231 -80q148 0 236 80q106 97 106 295q0 174 -92 266q-88 88 -243 88q-19 0 -44.5 -3t-72.5 -14t-94.5 -40t-81.5 -72h-142l103 752h735v-129h-620l-68 -480q56 49 123 78q77 33 180 33q208 0 330 -117q81 -77 108 -168
t27 -192q0 -240 -135 -375q-127 -127 -365 -127q-222 0 -344 127q-45 48 -77 119t-42 151z" />
    <glyph glyph-name="uniF63E" unicode="&#xf63e;" horiz-adv-x="1101" 
d="M1016 1124h-142q-15 94 -77 156q-72 72 -207 72q-72 0 -127 -19.5t-103 -70.5q-141 -147 -141 -527h4q52 99 137 144q91 49 226 49q193 0 313 -113q137 -126 137 -360q0 -227 -123 -363q-124 -135 -342 -135q-230 0 -344 129q-159 164 -159 600q0 475 196 666
q128 125 334 125q188 0 299 -111q98 -92 119 -242zM242 455q0 -80 24 -157.5t74 -129.5q86 -86 233 -86q133 0 215 82q101 101 101 289q0 170 -94 264q-86 86 -228 86q-143 0 -231 -88q-94 -94 -94 -260z" />
    <glyph glyph-name="uniF63F" unicode="&#xf63f;" horiz-adv-x="1048" 
d="M20 1303v131h1006v-103q-135 -153 -226 -313t-167 -348q-124 -313 -164 -670h-164q20 157 53.5 294.5t59.5 211t69 176.5q74 172 159 317t222 304h-848z" />
    <glyph glyph-name="uniF640" unicode="&#xf640;" horiz-adv-x="1077" 
d="M340 780q-104 38 -158 117q-63 86 -63 203q0 153 102 262q115 115 314 115q193 0 309 -103q52 -46 83 -117t31 -155q0 -127 -75 -223q-52 -65 -146 -99q95 -21 164 -90q45 -41 79 -114t34 -177q0 -100 -32.5 -181.5t-86.5 -135.5q-125 -125 -354 -125q-232 0 -363 131
q-115 119 -115 309q0 148 78.5 253t198.5 130zM539 836q126 0 200 69q76 70 76 191q0 120 -78 190q-76 66 -198 66q-131 0 -203 -72q-74 -74 -74 -186q0 -115 74 -189q77 -69 203 -69zM547 82q135 0 223 84q94 94 94 242q0 154 -102 239q-51 43 -103 55.5t-120 12.5
q-163 0 -244 -86q-40 -40 -62 -99t-22 -122q0 -149 90 -236q42 -42 107 -66t139 -24z" />
    <glyph glyph-name="uniF641" unicode="&#xf641;" horiz-adv-x="1101" 
d="M86 309h141q15 -92 78 -155q72 -72 207 -72q72 0 126.5 19.5t102.5 70.5q142 148 142 526h-4q-51 -97 -138 -143q-90 -49 -213 -49q-205 0 -325 112q-137 126 -137 361q0 227 122 362q123 136 342 136q220 0 344 -129q160 -172 160 -600q0 -221 -43 -390t-153 -276
q-128 -125 -334 -125q-188 0 -299 111q-99 93 -119 241zM530 1352q-135 0 -217 -82q-100 -100 -100 -289q0 -170 94 -264q86 -86 228 -86q143 0 231 88q94 94 94 260q0 80 -24 157.5t-74 129.5q-79 86 -232 86z" />
    <glyph glyph-name="uniF6BA" unicode="&#xf6ba;" horiz-adv-x="827" 
d="M143 657v162h541v-162h-541z" />
    <glyph glyph-name="uniF6BB" unicode="&#xf6bb;" horiz-adv-x="1228" 
d="M102 786h1024v-98h-1024v98z" />
    <glyph glyph-name="uniF6BC" unicode="&#xf6bc;" horiz-adv-x="2015" 
d="M102 688v98h1811v-98h-1811z" />
    <glyph glyph-name="uniF6C3" unicode="&#xf6c3;" horiz-adv-x="366" 
d="M102 -123h162v-180q0 -109 -51 -160q-43 -43 -111 -51v94q35 6 56 27q26 26 26 80v24h-82v166z" />
    <glyph glyph-name="uniF6C9" unicode="&#xf6c9;" horiz-adv-x="614" 
d="M340 1843h188l-202 -287h-133z" />
    <glyph glyph-name="uniF6CA" unicode="&#xf6ca;" horiz-adv-x="952" 
d="M102 1843h152l223 -229l221 229h152l-248 -287h-252z" />
    <glyph glyph-name="uniF6CB" unicode="&#xf6cb;" horiz-adv-x="776" 
d="M102 1581v152h154v-152h-154zM520 1581v152h154v-152h-154z" />
    <glyph glyph-name="uniF6CE" unicode="&#xf6ce;" horiz-adv-x="616" 
d="M274 1843l150 -287h-133l-205 287h188z" />
    <glyph glyph-name="uniF6CF" unicode="&#xf6cf;" horiz-adv-x="817" 
d="M246 1843h176l-195 -287h-125zM539 1843h176l-195 -287h-125z" />
    <glyph glyph-name="uniF6D0" unicode="&#xf6d0;" horiz-adv-x="837" 
d="M102 1593v101h633v-101h-633z" />
    <glyph glyph-name="uniF6D1" unicode="&#xf6d1;" horiz-adv-x="888" 
d="M657 1765h129q-18 -110 -84 -176q-94 -94 -251 -94q-171 0 -265 94q-66 70 -84 176h129q9 -71 50 -116q56 -58 163 -58q108 0 164 58q40 43 49 116z" />
    <glyph glyph-name="uniF6D4" unicode="&#xf6d4;" horiz-adv-x="847" 
d="M627 1434h118q-14 -105 -83 -174q-87 -82 -238 -82t-238 82q-70 70 -84 174h119q10 -76 55 -121q49 -47 148 -47q98 0 147 47q46 46 56 121z" />
    <glyph glyph-name="uniF6DC" unicode="&#xf6dc;" horiz-adv-x="569" 
d="M0 1098v80h39q130 0 219 61q46 32 78.5 82.5t38.5 112.5h102v-1434h-153v1098h-324z" />
    <glyph glyph-name="uniF6DE" unicode="&#xf6de;" horiz-adv-x="1511" 
d="M76 496v98h1358v-98h-1358z" />
    <glyph glyph-name="uniF8FF" unicode="&#xf8ff;" horiz-adv-x="1705" 
d="M1655 1343q-221 -170 -221 -399q0 -148 74.5 -261.5t205.5 -164.5q-53 -146 -147 -295q-163 -254 -324 -254q-66 0 -170 39t-188 39q-59 0 -109 -18l-117 -43q-53 -21 -112 -21q-131 0 -256 162q-291 364 -291 782q0 279 137 453q138 176 359 176q80 0 245 -47
q85 -27 136 -27q59 0 184 45q107 39 205 39q239 0 389 -205zM1245 2011q4 -36 4 -55q0 -179 -137 -322q-51 -55 -94 -78q-61 -37 -178 -40l6 86q21 155 124.5 266.5t274.5 142.5z" />
    <glyph glyph-name="mu1" horiz-adv-x="1165" 
d="M301 115v-494h-139v1419h139v-612q0 -96 17 -157.5t69 -114.5q78 -78 182 -78q102 0 176 74q55 55 72 117.5t17 160.5v610h141v-815q0 -84 24 -106q29 -26 84 -17v-102q-44 -8 -88 -8q-84 0 -121 37q-40 40 -40 106q-39 -77 -99 -123q-67 -53 -170 -53q-91 0 -159 47
q-65 47 -105 109z" />
    <glyph glyph-name="dotlessi1" horiz-adv-x="466" 
d="M162 1040h143v-1040h-143v1040z" />
    <glyph glyph-name="uni021A" horiz-adv-x="1126" 
d="M487 1305h-475v129h1102v-129h-475v-1305h-152v1305zM481 -123h162v-180q0 -109 -51 -160q-43 -43 -111 -51v94q35 6 56 27q26 26 26 80v24h-82v166z" />
    <glyph glyph-name="uni021B" horiz-adv-x="598" 
d="M12 1040h195v312h141v-312h223v-102h-223v-754q0 -51 21 -78q24 -26 82 -26q55 0 120 22v-102q-72 -29 -163 -29q-115 0 -156 52q-45 52 -45 159v756h-195v102zM328 -123h161v-180q0 -109 -51 -160q-43 -43 -110 -51v94q34 6 55 27q27 27 27 80v24h-82v166z" />
    </font>
</defs>
</svg>
